<svg width="19" height="18" viewBox="0 0 19 18" fill="none" xmlns="http://www.w3.org/2000/svg">
<path d="M13.6674 9.40951L9.35043 13.8205C8.78449 14.3336 8.04776 14.6067 7.29096 14.584C6.53415 14.5613 5.81445 14.2444 5.27907 13.6983C4.7437 13.1521 4.4331 12.4179 4.41083 11.6459C4.38855 10.8738 4.65627 10.1222 5.15922 9.5449L10.7475 3.84405C11.0811 3.52074 11.5237 3.34047 11.9839 3.34047C12.4441 3.34047 12.8867 3.52074 13.2203 3.84405C13.5454 4.18011 13.7276 4.63324 13.7276 5.10536C13.7276 5.57749 13.5454 6.03062 13.2203 6.36668L8.40042 11.2765C8.35272 11.3289 8.29537 11.3713 8.23164 11.401C8.16791 11.4308 8.09906 11.4475 8.029 11.4502C7.88752 11.4555 7.74975 11.4033 7.64601 11.305C7.59464 11.2564 7.55316 11.1979 7.52396 11.1329C7.49475 11.0678 7.47838 10.9976 7.47579 10.9261C7.47055 10.7818 7.52173 10.6413 7.61806 10.5354L11.2015 6.88688C11.3331 6.7527 11.407 6.5707 11.407 6.38093C11.407 6.19116 11.3331 6.00917 11.2015 5.87498C11.07 5.74079 10.8916 5.66541 10.7056 5.66541C10.5196 5.66541 10.3412 5.74079 10.2096 5.87498L6.62615 9.53778C6.44684 9.71928 6.30452 9.9352 6.2074 10.1731C6.11028 10.411 6.06027 10.6661 6.06027 10.9238C6.06027 11.1815 6.11028 11.4366 6.2074 11.6745C6.30452 11.9124 6.44684 12.1283 6.62615 12.3098C6.99244 12.6658 7.47892 12.8643 7.9848 12.8643C8.49067 12.8643 8.97715 12.6658 9.34344 12.3098L14.1563 7.39283C14.7116 6.78494 15.0139 5.98092 14.9995 5.15016C14.9851 4.3194 14.6552 3.52676 14.0793 2.93923C13.5034 2.3517 12.7264 2.01516 11.912 2.0005C11.0977 1.98584 10.3096 2.29421 9.71367 2.86065L4.12539 8.56151C3.37181 9.41296 2.96934 10.5282 3.00182 11.6749C3.03431 12.8215 3.49925 13.9112 4.29977 14.7168C5.1003 15.5225 6.17467 15.9819 7.29903 15.9995C8.4234 16.017 9.51105 15.5913 10.3354 14.8111L14.6593 10.4072C14.7244 10.3407 14.7761 10.2618 14.8113 10.175C14.8466 10.0882 14.8647 9.99517 14.8647 9.90121C14.8647 9.80724 14.8466 9.7142 14.8113 9.62739C14.7761 9.54058 14.7244 9.4617 14.6593 9.39526C14.5942 9.32881 14.5168 9.27611 14.4317 9.24015C14.3466 9.20419 14.2554 9.18569 14.1633 9.18569C14.0712 9.18569 13.98 9.20419 13.8949 9.24015C13.8098 9.27611 13.7325 9.32881 13.6674 9.39526V9.40951Z" fill="#231A14"/>
</svg>
