<svg width="13" height="11" viewBox="0 0 13 11" fill="none" xmlns="http://www.w3.org/2000/svg">
<path d="M7 11C7 11 11 7.09088 11 4.125C11 3.03098 10.5786 1.98177 9.82843 1.20818C9.07828 0.434597 8.06087 0 7 0C5.93913 0 4.92172 0.434597 4.17157 1.20818C3.42143 1.98177 3 3.03098 3 4.125C3 7.09088 7 11 7 11ZM7 6.1875C6.46957 6.1875 5.96086 5.9702 5.58579 5.58341C5.21071 5.19661 5 4.67201 5 4.125C5 3.57799 5.21071 3.05339 5.58579 2.66659C5.96086 2.2798 6.46957 2.0625 7 2.0625C7.53043 2.0625 8.03914 2.2798 8.41421 2.66659C8.78929 3.05339 9 3.57799 9 4.125C9 4.67201 8.78929 5.19661 8.41421 5.58341C8.03914 5.9702 7.53043 6.1875 7 6.1875Z" fill="white"/>
</svg>
