<svg width="13" height="11" viewBox="0 0 13 11" fill="none" xmlns="http://www.w3.org/2000/svg">
<path fill-rule="evenodd" clip-rule="evenodd" d="M1.6446 1.65925C1 2.31794 1 3.37881 1 5.5C1 7.62119 1 8.68206 1.6446 9.34075C2.2892 9.99944 3.32595 10 5.4 10H7.6C9.67405 10 10.7113 10 11.3554 9.34075C11.9994 8.6815 12 7.62119 12 5.5C12 3.37881 12 2.31794 11.3554 1.65925C10.7108 1.00056 9.67405 1 7.6 1H5.4C3.32595 1 2.28865 1 1.6446 1.65925ZM10.1168 2.98C10.1868 3.06594 10.2205 3.17679 10.2106 3.28818C10.2007 3.39957 10.148 3.50237 10.064 3.574L8.8562 4.60337C8.36835 5.01963 7.97345 5.356 7.6242 5.5855C7.2612 5.82456 6.90755 5.97531 6.5 5.97531C6.09245 5.97531 5.7388 5.824 5.37525 5.5855C5.02655 5.356 4.63165 5.01906 4.1438 4.60394L2.936 3.57456C2.85191 3.50295 2.79907 3.40011 2.78912 3.28866C2.77916 3.17721 2.81291 3.06629 2.88293 2.98028C2.95294 2.89428 3.0535 2.84024 3.16247 2.83006C3.27144 2.81988 3.37991 2.85439 3.464 2.926L4.652 3.93794C5.16515 4.375 5.521 4.67763 5.8224 4.87563C6.11335 5.06687 6.3108 5.13156 6.50055 5.13156C6.6903 5.13156 6.88775 5.06744 7.1787 4.87563C7.47955 4.67763 7.83595 4.375 8.3491 3.93794L9.53655 2.92544C9.62065 2.85393 9.72908 2.8195 9.838 2.82973C9.94691 2.83996 10.0468 2.89402 10.1168 2.98Z" fill="white"/>
</svg>
