<svg width="12" height="12" viewBox="0 0 12 12" fill="none" xmlns="http://www.w3.org/2000/svg">
<path d="M3 1.5003L3 10.5006C3.00027 10.5917 3.02377 10.681 3.06797 10.7589C3.11216 10.8368 3.17539 10.9003 3.25084 10.9427C3.32629 10.985 3.4111 11.0045 3.49615 10.9991C3.5812 10.9937 3.66326 10.9636 3.73351 10.9121L9.81101 6.41194C10.063 6.22544 10.063 5.77642 9.81101 5.58942L3.73351 1.08929C3.66341 1.0372 3.58131 1.00665 3.49611 1.00097C3.41092 0.995285 3.32591 1.01468 3.2503 1.05705C3.17469 1.09941 3.11138 1.16313 3.06725 1.24128C3.02313 1.31942 2.99987 1.40901 3 1.5003Z" fill="white"/>
</svg>
