<svg width="24" height="24" viewBox="0 0 24 24" fill="none" xmlns="http://www.w3.org/2000/svg">
<path d="M23.4559 5.78399C23.2049 6.58621 22.8377 7.34731 22.3659 8.04299L22.3849 8.01299C21.9369 8.75966 21.4019 9.62232 20.7799 10.601C20.2466 11.3737 19.9643 11.7737 19.9329 11.801C19.7912 11.98 19.6991 12.1931 19.6659 12.419L19.6649 12.426C19.6906 12.6297 19.7852 12.8184 19.9329 12.961L20.3329 13.407C22.4729 15.6063 23.6766 17.1223 23.9439 17.955C23.9946 18.0918 24.0109 18.2389 23.9914 18.3835C23.9719 18.528 23.9171 18.6656 23.8319 18.784L23.8339 18.781C23.733 18.8845 23.6103 18.9642 23.4746 19.0142C23.339 19.0642 23.1939 19.0833 23.0499 19.07H23.0539H20.4179C20.0809 19.07 19.7709 18.952 19.5279 18.756L19.5309 18.758C19.1843 18.4732 18.8658 18.1557 18.5799 17.81L18.5709 17.798C18.1103 17.2773 17.7016 16.839 17.3449 16.483C16.1569 15.3537 15.2803 14.789 14.7149 14.789C14.5326 14.7736 14.3504 14.8213 14.1989 14.924L14.2019 14.922C14.1372 15.0035 14.0896 15.0972 14.0621 15.1976C14.0346 15.298 14.0277 15.4029 14.0419 15.506V15.502C14.004 15.9686 13.9913 16.437 14.0039 16.905V16.888V18.047C14.0323 18.1854 14.0226 18.329 13.9757 18.4623C13.9289 18.5956 13.8467 18.7137 13.7379 18.804L13.7369 18.805C13.2302 19.0328 12.673 19.1249 12.1199 19.072L12.1329 19.073C10.6189 19.0482 9.14059 18.6097 7.85793 17.805L7.89293 17.825C6.41272 16.9338 5.14433 15.7309 4.17593 14.3L4.14893 14.258C3.20834 13.0033 2.38141 11.6674 1.67793 10.266L1.60793 10.112C1.14008 9.20406 0.728305 8.2683 0.37493 7.30999L0.31493 7.12499C0.15195 6.6272 0.0479063 6.11202 0.00492969 5.58999L0.00292969 5.56499C0.00292969 5.05966 0.300263 4.80699 0.89493 4.80699H3.52493C3.7908 4.78637 4.05467 4.86671 4.26393 5.03199L4.26193 5.02999C4.46193 5.24899 4.60993 5.51799 4.68293 5.81799L4.68593 5.82999C5.12034 7.07434 5.65094 8.28299 6.27293 9.44499L6.20593 9.30799C6.65567 10.2209 7.19963 11.0842 7.82893 11.884L7.80593 11.853C8.33926 12.5077 8.75526 12.835 9.05393 12.835L9.08593 12.836C9.15624 12.8361 9.22534 12.8177 9.28626 12.7825C9.34718 12.7474 9.39777 12.6969 9.43293 12.636L9.43393 12.634C9.52911 12.3832 9.56703 12.1143 9.54493 11.847V11.853V7.97399C9.52655 7.53414 9.41761 7.10282 9.22493 6.70699L9.23293 6.72599C9.11577 6.47464 8.96433 6.24075 8.78293 6.03099L8.78593 6.03499C8.6183 5.86754 8.50922 5.65043 8.47493 5.41599L8.47393 5.40999C8.47393 5.23999 8.55193 5.08699 8.67393 4.98699L8.67493 4.98599C8.80058 4.87118 8.96472 4.80766 9.13493 4.80799H13.2889C13.3932 4.79546 13.499 4.8092 13.5966 4.84797C13.6943 4.88675 13.7806 4.94932 13.8479 5.02999L13.8489 5.03099C13.9752 5.26437 14.0305 5.52959 14.0079 5.79399V5.78899V10.962C13.9925 11.166 14.0399 11.3698 14.1439 11.546L14.1419 11.542C14.1785 11.5968 14.228 11.6417 14.2861 11.6728C14.3442 11.7038 14.4091 11.72 14.4749 11.72C14.6435 11.7088 14.8071 11.6529 14.9469 11.558L14.9439 11.56C15.2146 11.3733 15.4509 11.1597 15.6529 10.919L15.6569 10.914C16.2748 10.215 16.8286 9.46197 17.3119 8.66399L17.3509 8.59399C17.6949 8.02399 18.0669 7.32199 18.4039 6.60099L18.4659 6.45399L18.9119 5.56199C18.9902 5.33117 19.1416 5.13218 19.3432 4.9952C19.5448 4.85822 19.7855 4.79074 20.0289 4.80299H20.0259H22.6569C23.3676 4.80299 23.6343 5.12999 23.4569 5.78399H23.4559Z" fill="#4F74A4"/>
</svg>
