<svg width="26" height="24" viewBox="0 0 26 24" fill="none" xmlns="http://www.w3.org/2000/svg">
<path fill-rule="evenodd" clip-rule="evenodd" d="M19.7547 0.56954C19.1596 0.655507 18.3105 0.953152 17.7764 1.26323C17.1519 1.62564 16.2219 2.56182 15.8699 3.18213C15.3565 4.08704 15.1843 4.73503 15.1773 5.78823C15.1723 6.54348 15.2028 6.80367 15.3514 7.27569C15.6566 8.24475 16.0255 8.84835 16.7534 9.57011C17.7176 10.5262 18.7766 11.0086 20.1858 11.1336C21.2706 11.2299 22.5301 10.9168 23.4605 10.3196C23.9135 10.0288 24.8035 9.18963 24.8035 9.05332C24.8035 9.01792 24.4946 8.76086 24.1171 8.48206L23.4305 7.97518L23.053 8.35444C22.0634 9.3486 20.3907 9.64983 19.0941 9.06743C18.5889 8.8405 17.8537 8.16084 17.5829 7.67036C16.9926 6.60122 16.9955 5.0577 17.59 3.96323C18.4414 2.39583 20.5257 1.75157 22.2614 2.51941L22.7142 2.71972V3.58656V4.45333H23.6041H24.494V3.16763V1.88194L24.0323 1.5627C23.2501 1.02188 22.4164 0.718744 21.2963 0.568167C20.618 0.476936 20.3946 0.477165 19.7547 0.56954ZM3.3075 1.65005L3.3294 2.50819L4.22923 2.52963L5.12897 2.55099L5.35842 3.17801C5.48455 3.52279 6.1766 5.42666 6.8962 7.4088L8.20461 11.0126L9.05708 11.013L9.90947 11.0134L11.505 6.79894L13.1004 2.58447L13.9607 2.56289L14.821 2.5413V1.6666V0.791896H13.2839H11.7468L10.6796 3.86216C10.0926 5.55077 9.50815 7.22062 9.3807 7.57295L9.14909 8.2134L8.18565 5.43712C7.65573 3.91007 7.07844 2.24022 6.90278 1.72633L6.58333 0.791896H4.93451H3.2856L3.3075 1.65005ZM10.1253 13.1612C9.2452 13.2962 8.31651 13.8591 7.75153 14.6L7.4074 15.0513L7.35176 14.1003L7.29604 13.1492H5.68034H4.06455V13.9502V14.7511H4.91578H5.76701V18.1456V21.54H4.91578H4.06455V22.3791V23.2182H8.01115H11.9578V22.3791V21.54H9.79099H7.62423V19.378C7.62423 17.0211 7.66052 16.7767 8.1157 16.066C8.55431 15.381 9.35307 14.8487 10.0601 14.7702L10.4043 14.7319L10.4265 15.4852L10.4488 16.2386L11.3193 16.2602L12.1899 16.2818V14.7237C12.1899 13.3354 12.1757 13.1602 12.06 13.1164C11.8921 13.0529 10.6429 13.0818 10.1253 13.1612ZM14.0471 14.0265V14.9037H14.8142H15.5814L15.614 17.6307C15.6494 20.5893 15.6775 20.8151 16.1196 21.6887C16.3978 22.2386 17.0007 22.8353 17.5393 23.094C17.7788 23.2091 18.2619 23.359 18.6127 23.4271C20.0444 23.7052 21.3742 23.1781 22.192 22.0085L22.4395 21.6545L22.5384 22.341C22.5928 22.7186 22.6534 23.0704 22.6733 23.1228C22.7002 23.1943 23.0592 23.2182 24.1047 23.2182H25.5V22.3821V21.546L24.8229 21.5239C24.3513 21.5086 24.1428 21.473 24.1361 21.4065C24.1308 21.3541 24.1221 19.4748 24.1168 17.2302L24.1071 13.1492H22.2473H20.3875L20.4094 14.0074L20.4313 14.8655L21.3059 14.8871L22.1805 14.9087L22.1572 17.3281L22.1338 19.7475L21.9264 20.1836C21.3477 21.4006 20.055 22.0696 18.9141 21.7427C18.3992 21.5952 18.0405 21.2689 17.7688 20.701L17.5681 20.2814L17.5452 16.7153L17.5223 13.1492H15.7847H14.0471V14.0265ZM0.521745 22.36L0.543568 23.2563H1.43349H2.32341L2.34523 22.36L2.36697 21.4638H1.43349H0.5L0.521745 22.36Z" fill="white"/>
</svg>
