<svg width="24" height="24" viewBox="0 0 24 24" fill="none" xmlns="http://www.w3.org/2000/svg">
<path fill-rule="evenodd" clip-rule="evenodd" d="M18.4845 0.0725634C17.9132 0.162269 17.0981 0.472854 16.5853 0.796414C15.9859 1.17458 15.093 2.15146 14.7551 2.79874C14.2623 3.74299 14.0969 4.41917 14.0902 5.51815C14.0854 6.30624 14.1147 6.57774 14.2574 7.07029C14.5504 8.08148 14.9044 8.71132 15.6033 9.46447C16.5289 10.4621 17.5456 10.9655 18.8984 11.096C19.9397 11.1964 21.1489 10.8697 22.042 10.2465C22.477 9.94308 23.3314 9.06744 23.3314 8.9252C23.3314 8.88827 23.0348 8.62003 22.6724 8.3291L22.0133 7.80018L21.6509 8.19594C20.7009 9.23332 19.0951 9.54764 17.8503 8.93993C17.3653 8.70313 16.6596 7.99392 16.3996 7.48212C15.8329 6.36649 15.8357 4.75586 16.4064 3.61381C17.2237 1.97826 19.2246 1.30599 20.8909 2.10721L21.3256 2.31623V3.22076V4.12522H22.1799H23.0342V2.78362V1.44202L22.591 1.10891C21.8401 0.544571 21.0397 0.228254 19.9645 0.0711308C19.3133 -0.0240665 19.0988 -0.0238279 18.4845 0.0725634ZM2.6952 1.20005L2.71623 2.09551L3.58006 2.11787L4.44382 2.14016L4.66408 2.79444C4.78517 3.15422 5.44954 5.14087 6.14035 7.20918L7.39643 10.9697L8.21479 10.9701L9.03309 10.9705L10.5648 6.57281L12.0964 2.1751L12.9223 2.15258L13.7481 2.13005V1.21732V0.304587H12.2725H10.7969L9.77241 3.50834C9.20893 5.27037 8.64782 7.01282 8.52547 7.38047L8.30312 8.04876L7.37823 5.15177C6.8695 3.55833 6.3153 1.81588 6.14667 1.27964L5.84 0.304587H4.25713H2.67418L2.6952 1.20005ZM9.24028 13.2117C8.39539 13.3526 7.50385 13.9399 6.96147 14.7131L6.6311 15.1839L6.57769 14.1916L6.5242 13.1992H4.97312H3.42197V14.035V14.8707H4.23915H5.05633V18.4128V21.9548H4.23915H3.42197V22.8304V23.7059H7.21071H10.9994V22.8304V21.9548H8.91935H6.83926V19.6988C6.83926 17.2394 6.8741 16.9843 7.31107 16.2427C7.73214 15.528 8.49895 14.9725 9.17765 14.8906L9.50809 14.8507L9.52941 15.6368L9.55081 16.4229L10.3866 16.4454L11.2223 16.4679V14.8421C11.2223 13.3934 11.2087 13.2107 11.0976 13.165C10.9364 13.0987 9.7372 13.1288 9.24028 13.2117ZM13.0052 14.1146V15.0299H13.7417H14.4782L14.5094 17.8755C14.5434 20.9627 14.5704 21.1984 14.9948 22.11C15.2619 22.6838 15.8406 23.3064 16.3578 23.5764C16.5877 23.6965 17.0514 23.8529 17.3882 23.924C18.7626 24.2141 20.0392 23.6641 20.8243 22.4437L21.0619 22.0742L21.1569 22.7906C21.209 23.1846 21.2673 23.5518 21.2864 23.6064C21.3122 23.681 21.6569 23.7059 22.6605 23.7059H24V22.8335V21.961L23.35 21.938C22.8973 21.922 22.6971 21.8849 22.6907 21.8155C22.6855 21.7608 22.6772 19.7997 22.6721 17.4576L22.6628 13.1992H20.8774H19.092L19.1131 14.0947L19.1341 14.9901L19.9737 15.0127L20.8133 15.0352L20.7909 17.5597L20.7684 20.0843L20.5693 20.5394C20.0138 21.8093 18.7728 22.5075 17.6775 22.1663C17.1833 22.0124 16.8388 21.6719 16.578 21.0793L16.3854 20.6415L16.3634 16.9203L16.3414 13.1992H14.6733H13.0052V14.1146ZM0.0208756 22.8105L0.0418249 23.7457H0.896147H1.75047L1.77142 22.8105L1.79229 21.8752H0.896147H0L0.0208756 22.8105Z" fill="#4F74A4"/>
</svg>
