<svg width="18" height="20" viewBox="0 0 18 20" fill="none" xmlns="http://www.w3.org/2000/svg">
<path fill-rule="evenodd" clip-rule="evenodd" d="M1.13088 0.0458359C1.0497 0.107604 1.05192 0.104281 0.688573 0.704868C0.176808 1.5508 0 1.88667 0 2.01294C0 2.18814 0.0575155 2.23808 0.610642 2.54299C0.890516 2.69725 1.27208 2.9179 1.45859 3.03328C1.6451 3.14868 1.82169 3.24308 1.85102 3.24308C1.92409 3.24308 2.03972 3.17361 2.06974 3.11166C2.10946 3.02974 2.09967 2.92928 2.01107 2.5103C1.95444 2.24244 1.93593 2.1099 1.95346 2.09794C1.99159 2.07189 2.64709 1.92547 3.12977 1.83516C6.17316 1.26572 9.39138 1.46546 12.3265 2.406C12.492 2.45905 12.6736 2.50264 12.73 2.50288C12.864 2.50347 13.0413 2.40725 13.0991 2.30256C13.1983 2.12311 13.1221 1.82511 12.9466 1.70612C12.794 1.6026 11.6884 1.28103 10.8374 1.09259C9.39405 0.772988 8.11157 0.635021 6.58455 0.634994C5.02051 0.634968 3.77823 0.772962 2.23003 1.11869C1.96689 1.17745 1.74884 1.222 1.74545 1.21769C1.74205 1.21339 1.6894 0.97065 1.62842 0.67829C1.5274 0.193903 1.51108 0.140242 1.44453 0.0736367C1.3583 -0.0126892 1.2235 -0.0246229 1.13088 0.0458359ZM6.729 3.34137C6.58393 3.36261 6.38803 3.43617 6.2235 3.53119C5.67555 3.84763 5.40039 4.58348 5.56102 5.30289C5.58712 5.41984 6.13319 7.00456 6.77451 8.8245L7.94056 12.1335L7.88331 12.2132C7.62874 12.5678 7.3531 13.1243 7.27117 13.4491C6.90437 14.9032 7.39962 16.7344 8.48957 17.9541C8.73133 18.2246 8.96272 18.4319 9.34116 18.7167C10.2646 19.4119 11.0871 19.7916 12.0178 19.9523C12.4158 20.021 13.1419 20.0147 13.5904 19.9386C14.3617 19.8079 15.2846 19.478 15.8868 19.118C17.0102 18.4462 17.6207 17.5367 17.8746 16.1564C17.99 15.5289 18.0202 15.1549 17.9877 14.7562C17.8953 13.6228 17.343 11.3656 16.5729 8.97358C16.3921 8.41185 16.348 8.32231 16.1554 8.12547C15.911 7.87569 15.6088 7.75101 15.2516 7.75268C14.9613 7.75404 14.7643 7.82944 14.4427 8.0624L14.3802 8.10772L14.2928 7.95144C14.1249 7.65108 13.8375 7.40422 13.5115 7.28044C13.0065 7.08863 12.3507 7.30497 12.0133 7.77466C11.9713 7.83314 11.9295 7.89575 11.9203 7.9138C11.909 7.93599 11.8547 7.8952 11.7524 7.78774C11.5111 7.53421 11.186 7.38875 10.8627 7.38968C10.4234 7.39093 9.9434 7.69485 9.73555 8.10336C9.6974 8.17836 9.66075 8.23965 9.65413 8.23957C9.64751 8.23949 9.32813 7.38136 8.9444 6.33261C8.56069 5.28386 8.20387 4.33018 8.15148 4.21329C7.88885 3.62719 7.28882 3.25938 6.729 3.34137ZM6.56048 4.09045C6.2925 4.23248 6.14212 4.48043 6.12036 4.81611C6.11398 4.91432 6.1218 5.05205 6.13772 5.12221C6.15363 5.19235 6.92425 7.40334 7.85021 10.0355C8.8388 12.8458 9.53376 14.8568 9.53376 14.9073C9.53376 15.0995 9.40787 15.2298 9.22235 15.2298C9.03425 15.2298 9.01898 15.1999 8.59536 13.9979C8.38489 13.4007 8.20736 12.9062 8.20086 12.899C8.16482 12.8592 7.88892 13.4625 7.8244 13.7221C7.48154 15.1017 8.25842 17.0531 9.55694 18.0741C10.4055 18.7413 11.2002 19.1278 12.0496 19.2864C12.3891 19.3498 13.087 19.3492 13.47 19.2851C14.1978 19.1634 15.095 18.8423 15.6487 18.5053C16.562 17.9495 17.0593 17.2085 17.2705 16.0887C17.3696 15.5637 17.4129 15.139 17.3948 14.871C17.3259 13.8493 16.781 11.6334 15.9835 9.13124C15.8745 8.78953 15.8428 8.71824 15.7572 8.62378C15.6328 8.48645 15.4781 8.42583 15.252 8.42583C15.0493 8.42583 14.9106 8.49068 14.7229 8.6733L14.6035 8.78947L14.7323 9.18302C14.8897 9.66411 14.9042 9.73231 14.8747 9.85045C14.8329 10.0175 14.6042 10.106 14.4742 10.0055C14.4007 9.94868 14.3701 9.87668 14.0595 9.03019C13.7508 8.18915 13.7067 8.11375 13.4398 7.96868C13.3016 7.89355 13.2548 7.88167 13.0969 7.88167C12.9389 7.88167 12.8922 7.89355 12.7539 7.96868C12.5601 8.07399 12.4202 8.23991 12.3492 8.4485C12.2969 8.60244 12.296 8.67261 12.3406 9.14543C12.3531 9.27838 12.348 9.30211 12.2916 9.37624C12.1698 9.53597 11.9725 9.54578 11.847 9.39832C11.8178 9.36396 11.7343 9.15798 11.6616 8.94062C11.5889 8.72327 11.5045 8.50357 11.474 8.45241C11.312 8.18022 11.0756 8.03912 10.8185 8.06107C10.5445 8.08449 10.2786 8.31016 10.1941 8.59099C10.1477 8.74506 10.1412 9.01422 10.1806 9.14626C10.2224 9.28643 10.3764 10.2278 10.3764 10.3433C10.3764 10.4238 10.3582 10.4684 10.294 10.5458C10.2199 10.6351 10.1995 10.6451 10.0911 10.6451C9.86168 10.6451 9.94636 10.8379 8.78208 7.66577C8.20315 6.08844 7.70051 4.72221 7.66509 4.62969C7.5784 4.4032 7.39579 4.1861 7.21063 4.08939C7.0043 3.98164 6.76504 3.98204 6.56048 4.09045Z" fill="#4F74A4"/>
</svg>
