<svg width="109" height="34" viewBox="0 0 109 34" fill="none" xmlns="http://www.w3.org/2000/svg">
<g clip-path="url(#clip0_168_975)">
<path fill-rule="evenodd" clip-rule="evenodd" d="M108.828 0.180647H93.7222C88.6183 0.180647 84.4424 4.36827 84.4424 9.48678V23.0742H99.5483C104.652 23.0742 108.828 18.8864 108.828 13.7681V0.180647ZM100.174 19.1881C103.05 19.2103 104.945 16.9317 104.945 14.9206V4.32893L102.933 6.34659V14.6147C102.933 15.8459 101.9 17.1718 100.201 17.1588L91.1113 17.1706L89.0994 19.1881H100.174Z" fill="white"/>
<path d="M48.5436 21.3077C46.5869 21.3077 44.8233 20.8906 43.253 20.0558C41.6827 19.2213 40.4571 18.0588 39.575 16.5683C38.6932 15.0777 38.2524 13.3906 38.2524 11.5067C38.2524 9.62298 38.6932 7.94153 39.575 6.46303C40.4571 4.98451 41.6827 3.82795 43.253 2.9934C44.8233 2.15858 46.5869 1.74158 48.5436 1.74158C50.5246 1.74158 52.3003 2.15858 53.8705 2.9934C55.4408 3.82795 56.667 4.98451 57.5485 6.46303C58.4303 7.94153 58.8714 9.62298 58.8714 11.5067C58.8714 13.3906 58.4303 15.0777 57.5485 16.5683C56.667 18.0588 55.4408 19.2213 53.8705 20.0558C52.3003 20.8906 50.5246 21.3077 48.5436 21.3077ZM48.3368 17.2933C50.0037 17.2933 51.7998 16.7449 52.8873 15.6479C53.9745 14.551 54.5178 13.2951 54.5178 11.5067C54.5178 9.71849 53.9745 8.51615 52.8873 7.41908C51.7998 6.32211 50.0037 5.77353 48.3368 5.77353C46.6701 5.77353 45.2988 6.32254 44.2239 7.41908C43.149 8.51615 42.6113 9.71849 42.6113 11.5067C42.6113 13.2951 43.149 14.5512 44.2239 15.6479C45.2988 16.7444 46.6701 17.2933 48.3368 17.2933Z" fill="white"/>
<path d="M20.8618 2.12598H29.0971C31.2432 2.12598 32.9466 2.6416 34.2075 3.67284C35.4682 4.70408 36.0986 6.24189 36.0986 8.28644C36.0986 10.295 35.4726 11.8149 34.221 12.846C32.969 13.8773 31.3329 14.393 29.312 14.393H25.0198V21.2794H20.8618V2.12598ZM25.0198 6.00504V10.4529H28.7485C30.9302 10.4529 32.0211 9.60117 32.0211 8.34022C32.0211 6.97027 30.9392 6.00504 28.7752 6.00504H25.0198Z" fill="white"/>
<path d="M18.7833 2.12881L16.1109 6.00965H10.8302V21.2309H6.82021V5.98824H0.102051L2.85681 2.12881H18.7833Z" fill="white"/>
<path fill-rule="evenodd" clip-rule="evenodd" d="M73.5527 1.97177L71.1034 6.22587H67.0135C66.6518 6.22587 65.6089 6.59074 65.6049 7.67188C65.5991 9.32369 67.1864 9.21394 68.3706 9.37981C69.3762 9.52359 70.6447 9.84903 71.4954 10.3411C73.3291 11.4015 74.098 13.2142 74.022 15.2331C73.9708 16.6002 73.4546 18.0573 72.6474 19.0214C71.5913 20.2819 69.9218 21.1865 67.799 21.1581L58.915 21.039L61.1797 17.1054H67.8368C69.0901 17.1054 69.7369 16.323 69.7744 15.2285C69.8419 13.2688 68.0262 13.3125 66.6731 12.9768C64.6349 12.4703 61.4705 11.0127 61.4781 7.84334C61.487 4.16828 64.5152 1.96783 67.5328 1.96924L73.5527 1.97177Z" fill="white"/>
<path d="M4.69987 30.5445C4.65717 31.1394 4.4388 31.6074 4.04312 31.9497C3.64887 32.2906 3.12786 32.4617 2.48164 32.4617C1.77445 32.4617 1.21864 32.2232 0.812665 31.7447C0.408118 31.2677 0.205078 30.6119 0.205078 29.7782V29.44C0.205078 28.9084 0.298224 28.4392 0.485612 28.0334C0.671795 27.629 0.939413 27.3179 1.28584 27.1013C1.63358 26.8849 2.03692 26.776 2.49576 26.776C3.13313 26.776 3.64504 26.9471 4.03404 27.2879C4.42328 27.6303 4.6482 28.11 4.70763 28.7282H3.57137C3.54425 28.3704 3.44463 28.1111 3.2741 27.9505C3.10466 27.7897 2.84482 27.7093 2.49576 27.7093C2.11705 27.7093 1.83388 27.8454 1.6465 28.1176C1.45779 28.3898 1.36213 28.8125 1.35699 29.3855V29.8029C1.35699 30.4005 1.44619 30.8374 1.62712 31.1135C1.80816 31.3896 2.09242 31.5283 2.48164 31.5283C2.83191 31.5283 3.09426 31.4479 3.26754 31.2884C3.43948 31.1278 3.53898 30.8801 3.56492 30.5445H4.69987ZM7.2633 32.4617C6.66218 32.4617 6.17227 32.2763 5.79475 31.9068C5.41734 31.5374 5.22853 31.0448 5.22853 30.429V30.3227C5.22853 29.9105 5.30864 29.541 5.46769 29.2156C5.62673 28.8902 5.85166 28.6388 6.1438 28.4638C6.43594 28.2874 6.76812 28.1994 7.14181 28.1994C7.70278 28.1994 8.14365 28.3769 8.46544 28.7309C8.78737 29.0861 8.9477 29.589 8.9477 30.2398V30.6883H6.33907C6.37387 30.9566 6.48125 31.1704 6.65834 31.3326C6.83675 31.4946 7.0617 31.5749 7.33445 31.5749C7.75717 31.5749 8.08543 31.422 8.32327 31.1173L8.86115 31.7215C8.69695 31.9535 8.47455 32.1363 8.19412 32.266C7.91478 32.3969 7.60328 32.4617 7.2633 32.4617ZM7.13788 29.0861C6.92072 29.0861 6.74492 29.1599 6.60919 29.3077C6.4748 29.4554 6.38811 29.6668 6.35067 29.9417H7.87222V29.8535C7.86695 29.6098 7.80236 29.4205 7.67563 29.287C7.54897 29.1535 7.37057 29.0861 7.13788 29.0861ZM13.2563 30.3681C13.2563 31.0021 13.1128 31.5089 12.8258 31.8899C12.5401 32.2711 12.1524 32.4617 11.6651 32.4617C11.2513 32.4617 10.9166 32.3178 10.6619 32.0288V33.9628H9.5669V28.2771H10.5817L10.6205 28.6791C10.8855 28.3588 11.2307 28.1994 11.6586 28.1994C12.1628 28.1994 12.5557 28.3873 12.8362 28.7619C13.1155 29.1366 13.2563 29.6525 13.2563 30.311V30.3681ZM12.1614 30.2852C12.1614 29.9014 12.0941 29.6058 11.9584 29.3984C11.824 29.1897 11.6275 29.0861 11.3703 29.0861C11.0264 29.0861 10.7912 29.2182 10.6619 29.4814V31.1679C10.795 31.4388 11.0341 31.5749 11.3781 31.5749C11.9003 31.5749 12.1614 31.1447 12.1614 30.2852ZM14.0062 32.3839V28.2771H15.7178C16.2762 28.2771 16.7041 28.3756 17.0013 28.5727C17.3 28.771 17.4487 29.0536 17.4487 29.4231C17.4487 29.6124 17.3866 29.7835 17.2612 29.9339C17.1358 30.0842 16.9535 30.1996 16.7143 30.2799C17.0066 30.3357 17.238 30.4459 17.4047 30.6092C17.5727 30.7726 17.6567 30.9722 17.6567 31.2107C17.6567 31.5931 17.5133 31.8836 17.2277 32.0844C16.9406 32.2841 16.5243 32.3839 15.9789 32.3839H14.0062ZM15.1011 30.6805V31.505H15.9827C16.3692 31.505 16.5632 31.3702 16.5632 31.1005C16.5632 30.8257 16.3783 30.6857 16.0099 30.6805H15.1011ZM15.1011 29.9417H15.7785C16.1625 29.9364 16.355 29.8132 16.355 29.5734C16.355 29.4257 16.302 29.3206 16.1973 29.2571C16.0926 29.195 15.9323 29.1638 15.7178 29.1638H15.1011V29.9417ZM20.7929 28.2771H21.8879V32.3839H20.7929V29.8483L19.4226 32.3839H18.3238V28.2771H19.4226V30.8089L20.7929 28.2771ZM24.4268 31.5749C24.6284 31.5749 24.7926 31.5192 24.9193 31.4078C25.046 31.2962 25.1106 31.1485 25.1157 30.9631H26.1422C26.1395 31.2419 26.0646 31.4972 25.9147 31.7293C25.766 31.9613 25.563 32.1415 25.3032 32.2698C25.0447 32.3981 24.759 32.4617 24.4462 32.4617C23.8606 32.4617 23.3978 32.275 23.0591 31.9017C22.7217 31.5283 22.5524 31.0124 22.5524 30.3538V30.2813C22.5524 29.6473 22.7204 29.143 23.0565 28.7658C23.3912 28.3886 23.8528 28.1994 24.4384 28.1994C24.9503 28.1994 25.3614 28.3458 25.6704 28.6375C25.9806 28.9292 26.137 29.3181 26.1422 29.8041H25.1157C25.1106 29.5915 25.046 29.4179 24.9193 29.2856C24.7926 29.1521 24.6259 29.0861 24.419 29.0861C24.1643 29.0861 23.9718 29.1794 23.8412 29.3648C23.7119 29.5514 23.6472 29.8535 23.6472 30.2722V30.385C23.6472 30.8089 23.7106 31.1122 23.8399 31.2976C23.9691 31.4829 24.1643 31.5749 24.4268 31.5749ZM30.3216 32.3839H29.2241V30.805H27.864V32.3839H26.7691V28.2771H27.864V29.9183H29.2241V28.2771H30.3216V32.3839ZM30.9975 30.2929C30.9975 29.8846 31.0765 29.5216 31.2329 29.2027C31.3892 28.8838 31.6142 28.6361 31.909 28.4612C32.2024 28.2861 32.5437 28.1994 32.9329 28.1994C33.4863 28.1994 33.9374 28.3692 34.2877 28.7088C34.6368 29.0472 34.8318 29.5087 34.8719 30.0907L34.8797 30.372C34.8797 31.0033 34.704 31.5089 34.3535 31.8899C34.0019 32.2711 33.5314 32.4617 32.9404 32.4617C32.3498 32.4617 31.8779 32.2711 31.5262 31.8913C31.1735 31.5115 30.9975 30.9955 30.9975 30.3422V30.2929ZM32.0925 30.3707C32.0925 30.7608 32.1648 31.0591 32.3125 31.2652C32.4585 31.4713 32.6678 31.5749 32.9404 31.5749C33.2058 31.5749 33.4123 31.4726 33.5611 31.269C33.711 31.0655 33.7847 30.7389 33.7847 30.2904C33.7847 29.9079 33.711 29.611 33.5611 29.4011C33.4123 29.191 33.203 29.0861 32.9329 29.0861C32.6653 29.0861 32.4585 29.191 32.3125 29.3998C32.1648 29.6084 32.0925 29.9326 32.0925 30.3707ZM37.6849 30.4627H35.5519V29.576H37.6849V30.4627ZM41.9636 29.1638H40.6506V32.3839H39.5516V29.1638H38.2601V28.2771H41.9636V29.1638ZM42.2276 30.2929C42.2276 29.8846 42.3063 29.5216 42.4629 29.2027C42.6193 28.8838 42.8443 28.6361 43.1391 28.4612C43.4322 28.2861 43.7737 28.1994 44.1627 28.1994C44.7161 28.1994 45.1672 28.3692 45.5175 28.7088C45.8666 29.0472 46.0619 29.5087 46.102 30.0907L46.1095 30.372C46.1095 31.0033 45.9338 31.5089 45.5833 31.8899C45.2317 32.2711 44.7612 32.4617 44.1705 32.4617C43.5798 32.4617 43.108 32.2711 42.7563 31.8913C42.4033 31.5115 42.2276 30.9955 42.2276 30.3422V30.2929ZM43.3226 30.3707C43.3226 30.7608 43.3949 31.0591 43.5423 31.2652C43.6883 31.4713 43.8976 31.5749 44.1705 31.5749C44.4356 31.5749 44.6424 31.4726 44.7909 31.269C44.9408 31.0655 45.0145 30.7389 45.0145 30.2904C45.0145 29.9079 44.9408 29.611 44.7909 29.4011C44.6424 29.191 44.4328 29.0861 44.1627 29.0861C43.8951 29.0861 43.6883 29.191 43.5423 29.3998C43.3949 29.6084 43.3226 29.9326 43.3226 30.3707ZM50.4751 30.3681C50.4751 31.0021 50.3317 31.5089 50.0447 31.8899C49.7589 32.2711 49.3711 32.4617 48.8839 32.4617C48.4703 32.4617 48.1354 32.3178 47.8807 32.0288V33.9628H46.7857V28.2771H47.8006L47.8392 28.6791C48.1043 28.3588 48.4495 28.1994 48.8774 28.1994C49.3815 28.1994 49.7746 28.3873 50.0551 28.7619C50.3342 29.1366 50.4751 29.6525 50.4751 30.311V30.3681ZM49.3801 30.2852C49.3801 29.9014 49.3131 29.6058 49.1772 29.3984C49.0427 29.1897 48.8463 29.0861 48.5891 29.0861C48.2453 29.0861 48.0099 29.2182 47.8807 29.4814V31.1679C48.0138 31.4388 48.2531 31.5749 48.5969 31.5749C49.1189 31.5749 49.3801 31.1447 49.3801 30.2852ZM53.9435 29.1638H52.2474V32.3839H51.1524V28.2771H53.9435V29.1638ZM54.1542 30.2929C54.1542 29.8846 54.233 29.5216 54.3896 29.2027C54.546 28.8838 54.771 28.6361 55.0658 28.4612C55.3591 28.2861 55.7004 28.1994 56.0893 28.1994C56.6427 28.1994 57.0939 28.3692 57.4441 28.7088C57.7933 29.0472 57.9883 29.5087 58.0286 30.0907L58.0362 30.372C58.0362 31.0033 57.8605 31.5089 57.51 31.8899C57.1586 32.2711 56.6879 32.4617 56.0972 32.4617C55.5065 32.4617 55.0347 32.2711 54.683 31.8913C54.3302 31.5115 54.1542 30.9955 54.1542 30.3422V30.2929ZM55.2493 30.3707C55.2493 30.7608 55.3216 31.0591 55.469 31.2652C55.6152 31.4713 55.8243 31.5749 56.0972 31.5749C56.3623 31.5749 56.5691 31.4726 56.7176 31.269C56.8675 31.0655 56.9415 30.7389 56.9415 30.2904C56.9415 29.9079 56.8675 29.611 56.7176 29.4011C56.5691 29.191 56.3597 29.0861 56.0893 29.0861C55.8217 29.0861 55.6152 29.191 55.469 29.3998C55.3216 29.6084 55.2493 29.9326 55.2493 30.3707ZM58.7849 32.3839V28.2771H60.4964C61.0549 28.2771 61.4827 28.3756 61.78 28.5727C62.0787 28.771 62.2275 29.0536 62.2275 29.4231C62.2275 29.6124 62.1653 29.7835 62.0398 29.9339C61.9145 30.0842 61.7321 30.1996 61.4931 30.2799C61.7854 30.3357 62.0168 30.4459 62.1835 30.6092C62.3514 30.7726 62.4354 30.9722 62.4354 31.2107C62.4354 31.5931 62.292 31.8836 62.0064 32.0844C61.7192 32.2841 61.3031 32.3839 60.7576 32.3839H58.7849ZM59.8797 30.6805V31.505H60.7615C61.1479 31.505 61.3418 31.3702 61.3418 31.1005C61.3418 30.8257 61.1571 30.6857 60.7884 30.6805H59.8797ZM59.8797 29.9417H60.5572C60.9411 29.9364 61.1336 29.8132 61.1336 29.5734C61.1336 29.4257 61.0807 29.3206 60.9761 29.2571C60.8713 29.195 60.7111 29.1638 60.4964 29.1638H59.8797V29.9417ZM65.4774 32.3839C65.4269 32.2854 65.3905 32.1635 65.3672 32.017C65.1022 32.3138 64.7572 32.4617 64.333 32.4617C63.9323 32.4617 63.5989 32.345 63.3352 32.1117C63.0715 31.8783 62.9395 31.584 62.9395 31.2288C62.9395 30.7933 63.1012 30.4589 63.4232 30.2255C63.7448 29.9922 64.2103 29.8742 64.818 29.8716H65.3221V29.6383C65.3221 29.4491 65.2728 29.2986 65.1761 29.1859C65.0792 29.073 64.9251 29.016 64.7158 29.016C64.5322 29.016 64.3874 29.06 64.2828 29.147C64.178 29.2338 64.1251 29.3543 64.1251 29.506H63.0314C63.0314 29.2688 63.1037 29.0484 63.2497 28.8475C63.3974 28.6452 63.6039 28.4871 63.8718 28.3717C64.1394 28.2564 64.4392 28.1994 64.7726 28.1994C65.2781 28.1994 65.6788 28.3264 65.975 28.5805C66.2723 28.8358 66.4208 29.1923 66.4208 29.6538V31.435C66.4233 31.8239 66.4777 32.1195 66.5836 32.3191V32.3839H65.4774ZM64.5723 31.6217C64.734 31.6217 64.8825 31.5854 65.0195 31.514C65.1551 31.4415 65.2563 31.3442 65.3221 31.2237V30.5172H64.9136C64.3655 30.5172 64.0732 30.7065 64.0385 31.0863L64.0346 31.151C64.0346 31.2872 64.0822 31.4 64.178 31.4894C64.2736 31.5776 64.4056 31.6217 64.5723 31.6217ZM70.6766 28.2771V32.3839H69.5866V30.9684H68.8939L68.1054 32.3839H66.9961L67.8894 30.7817C67.645 30.6676 67.4565 30.5133 67.3233 30.3175C67.1914 30.1231 67.1241 29.9014 67.1241 29.6525C67.1241 29.2546 67.278 28.9292 67.5842 28.6738C67.8919 28.4197 68.303 28.2874 68.8177 28.2771H70.6766ZM68.837 30.1983H69.5866V29.1638H68.8743C68.6807 29.1638 68.5229 29.2144 68.4013 29.3168C68.2797 29.4192 68.2189 29.5423 68.2189 29.6889C68.2189 29.834 68.2772 29.9559 68.3935 30.0505C68.5098 30.1464 68.6571 30.1958 68.837 30.1983ZM75.1338 30.8672H74.6956V32.3839H73.6008V28.2771H74.6956V29.8172H75.0848L75.9792 28.2771H77.3612L76.0207 30.228L77.4867 32.3839H76.0285L75.1338 30.8672ZM77.5111 30.2929C77.5111 29.8846 77.5898 29.5216 77.7465 29.2027C77.9028 28.8838 78.1275 28.6361 78.4223 28.4612C78.716 28.2861 79.0573 28.1994 79.4462 28.1994C79.9996 28.1994 80.4507 28.3692 80.801 28.7088C81.1501 29.0472 81.3451 29.5087 81.3855 30.0907L81.393 30.372C81.393 31.0033 81.2174 31.5089 80.8668 31.8899C80.5154 32.2711 80.0447 32.4617 79.454 32.4617C78.8633 32.4617 78.3915 32.2711 78.0398 31.8913C77.6868 31.5115 77.5111 30.9955 77.5111 30.3422V30.2929ZM78.6061 30.3707C78.6061 30.7608 78.6784 31.0591 78.8258 31.2652C78.9718 31.4713 79.1814 31.5749 79.454 31.5749C79.7191 31.5749 79.9259 31.4726 80.0744 31.269C80.2243 31.0655 80.2983 30.7389 80.2983 30.2904C80.2983 29.9079 80.2243 29.611 80.0744 29.4011C79.9259 29.191 79.7163 29.0861 79.4462 29.0861C79.1786 29.0861 78.9718 29.191 78.8258 29.3998C78.6784 29.6084 78.6061 29.9326 78.6061 30.3707ZM84.5655 31.0901L85.637 28.2771H87.0086V32.3839H85.9139V29.8638L84.9326 32.3839H84.1985L83.2365 29.9053V32.3839H82.1415V28.2771H83.5016L84.5655 31.0901ZM91.523 32.3839H90.4241V29.1638H89.0539V32.3839H87.9588V28.2771H91.523V32.3839ZM94.7339 32.3839C94.6835 32.2854 94.6473 32.1635 94.6241 32.017C94.359 32.3138 94.0141 32.4617 93.5901 32.4617C93.1891 32.4617 92.8557 32.345 92.592 32.1117C92.3283 31.8783 92.1964 31.584 92.1964 31.2288C92.1964 30.7933 92.3581 30.4589 92.68 30.2255C93.0017 29.9922 93.4671 29.8742 94.0749 29.8716H94.579V29.6383C94.579 29.4491 94.5296 29.2986 94.4327 29.1859C94.3357 29.073 94.1819 29.016 93.9726 29.016C93.7891 29.016 93.6442 29.06 93.5397 29.147C93.4349 29.2338 93.3819 29.3543 93.3819 29.506H92.2883C92.2883 29.2688 92.3606 29.0484 92.5068 28.8475C92.6539 28.6452 92.861 28.4871 93.1283 28.3717C93.3959 28.2564 93.696 28.1994 94.0295 28.1994C94.535 28.1994 94.9357 28.3264 95.2318 28.5805C95.5291 28.8358 95.6779 29.1923 95.6779 29.6538V31.435C95.6805 31.8239 95.7345 32.1195 95.8407 32.3191V32.3839H94.7339ZM93.8291 31.6217C93.9908 31.6217 94.1393 31.5854 94.2766 31.514C94.4122 31.4415 94.5128 31.3442 94.579 31.2237V30.5172H94.1704C93.6223 30.5172 93.3301 30.7065 93.2953 31.0863L93.2914 31.151C93.2914 31.2872 93.3393 31.4 93.4349 31.4894C93.5304 31.5776 93.6624 31.6217 93.8291 31.6217ZM100.07 32.3839H98.9729V30.805H97.613V32.3839H96.518V28.2771H97.613V29.9183H98.9729V28.2771H100.07V32.3839ZM103.388 28.2771H104.483V32.3839H103.388V29.8483L102.017 32.3839H100.918V28.2771H102.017V30.8089L103.388 28.2771ZM108.734 28.2771V32.3839H107.644V30.9684H106.951L106.163 32.3839H105.054L105.947 30.7817C105.703 30.6676 105.514 30.5133 105.381 30.3175C105.249 30.1231 105.182 29.9014 105.182 29.6525C105.182 29.2546 105.335 28.9292 105.642 28.6738C105.95 28.4197 106.361 28.2874 106.875 28.2771H108.734ZM106.895 30.1983H107.644V29.1638H106.932C106.738 29.1638 106.58 29.2144 106.459 29.3168C106.338 29.4192 106.277 29.5423 106.277 29.6889C106.277 29.834 106.335 29.9559 106.451 30.0505C106.568 30.1464 106.715 30.1958 106.895 30.1983Z" fill="white"/>
</g>
<defs>
<clipPath id="clip0_168_975">
<rect width="109" height="34" fill="white"/>
</clipPath>
</defs>
</svg>
