<svg width="42" height="42" viewBox="0 0 42 42" fill="none" xmlns="http://www.w3.org/2000/svg">
<path d="M26.9687 21.5C25.5632 21.5 24.2042 20.8725 23.1405 19.7336C22.1063 18.6228 21.4746 17.1414 21.3632 15.5637C21.2443 13.8807 21.7576 12.333 22.8083 11.2051C23.859 10.0771 25.328 9.46875 26.9687 9.46875C28.5977 9.46875 30.0708 10.0881 31.1181 11.2133C32.1756 12.3494 32.6904 13.8943 32.5714 15.563C32.4572 17.1428 31.8263 18.6234 30.7941 19.7329C29.7331 20.8725 28.3748 21.5 26.9687 21.5ZM35.9805 33.5312H17.9575C17.6678 33.5328 17.3815 33.4678 17.1208 33.3414C16.8601 33.2149 16.6318 33.0304 16.4536 32.8019C16.2646 32.5541 16.1341 32.2669 16.0718 31.9616C16.0096 31.6563 16.0172 31.3408 16.0941 31.0389C16.6696 28.7276 18.0956 26.8108 20.2175 25.4963C22.1008 24.3301 24.4982 23.6875 26.9687 23.6875C29.4877 23.6875 31.8222 24.3027 33.7164 25.4683C35.8431 26.776 37.2711 28.7037 37.844 31.043C37.9199 31.3451 37.9267 31.6606 37.8637 31.9657C37.8008 32.2709 37.6697 32.5579 37.4803 32.8053C37.3023 33.0327 37.0746 33.2164 36.8146 33.3422C36.5546 33.4681 36.2693 33.5327 35.9805 33.5312ZM14.0487 21.7734C11.6432 21.7734 9.52814 19.5367 9.33195 16.788C9.23488 15.3798 9.67375 14.0775 10.5624 13.1226C11.4415 12.1771 12.6816 11.6562 14.0487 11.6562C15.4159 11.6562 16.6464 12.1799 17.5303 13.1308C18.4258 14.0933 18.8633 15.3928 18.7608 16.7894C18.5646 19.5374 16.4502 21.7734 14.0487 21.7734ZM18.5372 23.9233C17.3348 23.3355 15.7741 23.0415 14.0494 23.0415C12.0356 23.0415 10.0798 23.5665 8.54172 24.5194C6.79787 25.6016 5.62482 27.1772 5.15109 29.0797C5.08177 29.3533 5.07521 29.6391 5.13191 29.9156C5.18862 30.1922 5.30711 30.4523 5.47854 30.6766C5.6412 30.8854 5.84958 31.0541 6.08766 31.1698C6.32575 31.2854 6.58719 31.345 6.85188 31.3438H14.4398C14.5678 31.3437 14.6918 31.2988 14.7902 31.2167C14.8885 31.1346 14.9549 31.0206 14.9778 30.8946C14.9853 30.8516 14.9948 30.8085 15.0058 30.7661C15.5855 28.4378 16.9438 26.4704 18.9508 25.0362C19.0246 24.983 19.084 24.9122 19.1235 24.8303C19.1631 24.7483 19.1816 24.6578 19.1773 24.5669C19.173 24.476 19.1461 24.3876 19.0991 24.3097C19.052 24.2318 18.9862 24.1669 18.9077 24.1209C18.8004 24.058 18.6774 23.9917 18.5372 23.9233Z" fill="#4F74A4"/>
</svg>
