<svg width="40" height="40" viewBox="0 0 40 40" fill="none" xmlns="http://www.w3.org/2000/svg">
<g clip-path="url(#clip0_168_1210)">
<path fill-rule="evenodd" clip-rule="evenodd" d="M8.0105 16.6575L17.0105 8.65799C17.8342 7.92586 18.8979 7.52145 20 7.52145C21.1021 7.52145 22.1658 7.92586 22.9895 8.65799L31.9895 16.6575C32.4644 17.0796 32.8446 17.5976 33.1049 18.1772C33.3653 18.7569 33.4999 19.3851 33.5 20.0205V34.875H35C35.2984 34.875 35.5845 34.9935 35.7955 35.2045C36.0065 35.4155 36.125 35.7016 36.125 36C36.125 36.2984 36.0065 36.5845 35.7955 36.7955C35.5845 37.0065 35.2984 37.125 35 37.125H5C4.70163 37.125 4.41548 37.0065 4.2045 36.7955C3.99353 36.5845 3.875 36.2984 3.875 36C3.875 35.7016 3.99353 35.4155 4.2045 35.2045C4.41548 34.9935 4.70163 34.875 5 34.875H6.5V20.0205C6.50007 19.3851 6.6347 18.7569 6.89505 18.1772C7.1554 17.5976 7.53556 17.0796 8.0105 16.6575ZM15.875 16.5C15.875 16.2016 15.9935 15.9155 16.2045 15.7045C16.4155 15.4935 16.7016 15.375 17 15.375H23C23.2984 15.375 23.5845 15.4935 23.7955 15.7045C24.0065 15.9155 24.125 16.2016 24.125 16.5C24.125 16.7984 24.0065 17.0845 23.7955 17.2955C23.5845 17.5065 23.2984 17.625 23 17.625H17C16.7016 17.625 16.4155 17.5065 16.2045 17.2955C15.9935 17.0845 15.875 16.7984 15.875 16.5ZM23.078 19.875C24.4265 19.875 25.55 19.875 26.441 19.995C27.383 20.121 28.2335 20.4 28.916 21.084C29.6 21.7665 29.879 22.617 30.005 23.559C30.125 24.45 30.125 25.575 30.125 26.922V34.875H27.875V27C27.875 25.554 27.872 24.5835 27.7745 23.8575C27.6815 23.166 27.521 22.869 27.3245 22.674C27.128 22.479 26.834 22.3185 26.1425 22.224C25.418 22.128 24.446 22.125 23 22.125H17C15.554 22.125 14.582 22.128 13.8575 22.2255C13.166 22.3185 12.869 22.479 12.674 22.6755C12.479 22.872 12.3185 23.166 12.224 23.8575C12.128 24.5835 12.125 25.554 12.125 27V34.875H9.875V26.922C9.875 25.575 9.875 24.45 9.995 23.559C10.121 22.617 10.4 21.7665 11.0825 21.084C11.7665 20.4 12.617 20.121 13.5575 19.995C14.45 19.875 15.575 19.875 16.922 19.875H23.078ZM14.375 26.25C14.375 25.9516 14.4935 25.6655 14.7045 25.4545C14.9155 25.2435 15.2016 25.125 15.5 25.125H24.5C24.7984 25.125 25.0845 25.2435 25.2955 25.4545C25.5065 25.6655 25.625 25.9516 25.625 26.25C25.625 26.5484 25.5065 26.8345 25.2955 27.0455C25.0845 27.2565 24.7984 27.375 24.5 27.375H15.5C15.2016 27.375 14.9155 27.2565 14.7045 27.0455C14.4935 26.8345 14.375 26.5484 14.375 26.25ZM14.375 30.75C14.375 30.4516 14.4935 30.1655 14.7045 29.9545C14.9155 29.7435 15.2016 29.625 15.5 29.625H24.5C24.7984 29.625 25.0845 29.7435 25.2955 29.9545C25.5065 30.1655 25.625 30.4516 25.625 30.75C25.625 31.0484 25.5065 31.3345 25.2955 31.5455C25.0845 31.7565 24.7984 31.875 24.5 31.875H15.5C15.2016 31.875 14.9155 31.7565 14.7045 31.5455C14.4935 31.3345 14.375 31.0484 14.375 30.75Z" fill="#4F74A4"/>
</g>
<defs>
<clipPath id="clip0_168_1210">
<rect width="40" height="40" fill="white"/>
</clipPath>
</defs>
</svg>
