<svg width="61" height="61" viewBox="0 0 61 61" fill="none" xmlns="http://www.w3.org/2000/svg">
<path d="M25.5001 18.8333C25.5001 18.1566 25.7535 17.5883 26.0935 17.36C26.3435 17.1933 27.2818 16.8 29.7435 18.0533C30.1372 18.2531 30.5941 18.2884 31.0139 18.1516C31.4337 18.0148 31.7821 17.717 31.9826 17.3236C32.183 16.9302 32.2192 16.4734 32.0831 16.0533C31.947 15.6333 31.6499 15.2844 31.2568 15.0833C28.3851 13.6216 25.9901 13.4166 24.2401 14.59C22.5801 15.7016 22.1668 17.6233 22.1668 18.8333H18.8335C17.9135 18.8333 17.1535 19.5833 17.3018 20.4933C17.4621 21.4649 17.7584 22.4092 18.1818 23.2983C18.8518 24.7149 19.8335 25.9983 21.0718 27.0816C22.3457 28.1845 23.8126 29.0422 25.3985 29.6116C26.4985 30.0116 27.6551 30.2783 28.8335 30.4083V35.5H32.1668V30.4083C33.2645 30.2871 34.3455 30.0451 35.3901 29.6866C35.2775 30.1114 35.082 30.5098 34.8148 30.8587C34.5477 31.2077 34.2142 31.5004 33.8335 31.72V35.2899C36.7085 34.5499 38.8335 31.94 38.8335 28.8333C38.8338 28.5672 38.7703 28.3049 38.6485 28.0683C39.0985 27.7638 39.5251 27.4355 39.9285 27.0833C41.1418 26.0337 42.1256 24.7452 42.8185 23.2983C43.2399 22.4084 43.536 21.4644 43.6985 20.4933C43.8485 19.5833 43.0868 18.8333 42.1668 18.8333H25.5001Z" fill="#4F74A4"/>
<path d="M26.3337 32.1666H27.167V35.5H26.3337C26.1126 35.5 25.9007 35.5878 25.7444 35.744C25.5881 35.9003 25.5003 36.1123 25.5003 36.3333C25.5003 36.5543 25.5881 36.7663 25.7444 36.9225C25.9007 37.0788 26.1126 37.1666 26.3337 37.1666H33.5637C34.3476 37.1661 35.1103 37.4211 35.7361 37.8932C36.3619 38.3652 36.8168 39.0285 37.0316 39.7823C37.2465 40.5362 37.2096 41.3396 36.9267 42.0706C36.6437 42.8017 36.1301 43.4205 35.4637 43.8333H38.8337V47.1666H22.167V43.8333H28.8337C28.8335 43.4889 28.9401 43.153 29.1387 42.8716C29.3513 42.5705 29.6579 42.3483 30.0103 42.24L33.6487 41.0266C33.7098 41.0067 33.7619 40.9655 33.7954 40.9105C33.8289 40.8556 33.8417 40.7905 33.8314 40.7269C33.8212 40.6634 33.7886 40.6056 33.7395 40.564C33.6904 40.5224 33.628 40.4997 33.5637 40.5H26.3337C25.2286 40.5 24.1688 40.061 23.3874 39.2796C22.606 38.4982 22.167 37.4384 22.167 36.3333C22.167 35.2282 22.606 34.1684 23.3874 33.387C24.1688 32.6056 25.2286 32.1666 26.3337 32.1666Z" fill="#4F74A4"/>
</svg>
