<svg width="61" height="61" viewBox="0 0 61 61" fill="none" xmlns="http://www.w3.org/2000/svg">
<path d="M17.0001 29.125C16.6945 28.7917 16.5417 28.3961 16.5417 27.9383C16.5417 27.4806 16.6945 27.0844 17.0001 26.75L21.6667 22.0833L19.8751 20.2917L19.3751 20.7917C19.0417 21.125 18.6462 21.2917 18.1884 21.2917C17.7306 21.2917 17.3345 21.125 17.0001 20.7917C16.6945 20.4583 16.5417 20.0628 16.5417 19.605C16.5417 19.1472 16.6945 18.765 17.0001 18.4583L20.3334 15.125C20.6667 14.7917 21.0629 14.625 21.5217 14.625C21.9806 14.625 22.3762 14.7917 22.7084 15.125C23.0417 15.4306 23.2084 15.8194 23.2084 16.2917C23.2084 16.7639 23.0417 17.1528 22.7084 17.4583L22.2084 17.9583L24.0001 19.75L28.6667 15.0833C29.0001 14.75 29.3962 14.5833 29.8551 14.5833C30.314 14.5833 30.7095 14.75 31.0417 15.0833C31.374 15.4167 31.5406 15.8128 31.5417 16.2717C31.5429 16.7306 31.3762 17.1261 31.0417 17.4583L29.9167 18.5417L32.5001 21.125L27.7917 25.7917C27.4862 26.125 27.3334 26.5211 27.3334 26.98C27.3334 27.4389 27.4862 27.8344 27.7917 28.1667C28.1251 28.5 28.5212 28.6667 28.9801 28.6667C29.439 28.6667 29.8345 28.5 30.1667 28.1667L34.8334 23.4583L37.3751 25.9583L32.6667 30.6667C32.3334 31 32.1667 31.3961 32.1667 31.855C32.1667 32.3139 32.3334 32.7094 32.6667 33.0417C32.9723 33.3472 33.3545 33.4933 33.8134 33.48C34.2723 33.4667 34.6679 33.3067 35.0001 33L39.6667 28.2917L42.2084 30.8333C42.8473 31.4722 43.1667 32.2572 43.1667 33.1883C43.1667 34.1194 42.8473 34.9039 42.2084 35.5417L41.0417 36.75L47.5001 43.1667C47.7779 43.4444 47.8473 43.75 47.7084 44.0833C47.5695 44.4167 47.3056 44.5833 46.9167 44.5833H45.2084C44.8751 44.5833 44.549 44.5139 44.2301 44.375C43.9112 44.2361 43.6401 44.0556 43.4167 43.8333L38.6667 39.0833L37.5001 40.2917C36.8612 40.9306 36.0767 41.25 35.1467 41.25C34.2167 41.25 33.4317 40.9306 32.7917 40.2917L20.5001 28L19.3751 29.125C19.0417 29.4306 18.6462 29.5833 18.1884 29.5833C17.7306 29.5833 17.3345 29.4306 17.0001 29.125Z" fill="#4F74A4"/>
</svg>
