<svg width="61" height="61" viewBox="0 0 61 61" fill="none" xmlns="http://www.w3.org/2000/svg">
<path d="M36.75 42.3833C35.3667 42.3833 34.25 40.9833 34.25 39.2499C34.25 37.5333 35.3667 36.1333 36.75 36.1333C38.1334 36.1333 39.25 37.5333 39.25 39.2499C39.25 40.9833 38.1334 42.3833 36.75 42.3833ZM30.5 29.2499C28.4334 29.2499 26.75 27.8499 26.75 26.1333C26.75 24.3999 28.4334 22.9999 30.5 22.9999C32.5667 22.9999 34.25 24.3999 34.25 26.1333C34.25 27.8499 32.5667 29.2499 30.5 29.2499ZM24.25 42.3833C22.8667 42.3833 21.75 40.9833 21.75 39.2499C21.75 37.5333 22.8667 36.1333 24.25 36.1333C25.6334 36.1333 26.75 37.5333 26.75 39.2499C26.75 40.9833 25.6334 42.3833 24.25 42.3833ZM30.5 24.2499C31.1834 24.2499 31.75 24.8166 31.75 25.4999C31.75 26.1833 31.1834 26.7499 30.5 26.7499C29.8167 26.7499 29.25 26.1833 29.25 25.4999C29.25 24.8166 29.8167 24.2499 30.5 24.2499ZM41.75 30.4999C41.2167 30.4999 40.7 30.6166 40.2334 30.8333C39.4334 29.8166 38.35 28.9499 37.05 28.2833C38 26.9499 38.5667 25.3333 38.5667 23.5833V23.4833C40.3834 23.0999 41.75 21.4833 41.75 19.5333C41.75 17.3166 39.9334 15.4999 37.7167 15.4999C36.5667 15.4999 35.5 15.9833 34.8 16.7499C33.5146 15.933 32.0231 15.4991 30.5 15.4991C28.977 15.4991 27.4854 15.933 26.2 16.7499C25.5 15.9833 24.4334 15.4999 23.2834 15.4999C21.0667 15.4999 19.25 17.3166 19.25 19.5333C19.25 21.4666 20.6167 23.0833 22.4167 23.4833V23.5833C22.4167 25.3333 23 26.9666 23.9334 28.2833C22.65 28.9499 21.5667 29.8166 20.7667 30.8333C20.1971 30.5767 19.5723 30.4672 18.9494 30.5147C18.3266 30.5622 17.7256 30.7652 17.2015 31.1052C16.6774 31.4452 16.2471 31.9112 15.9498 32.4606C15.6525 33.01 15.4979 33.6253 15.5 34.2499C15.5 36.3333 17.1667 37.9999 19.25 37.9999H19.35C19.2834 38.3999 19.25 38.8333 19.25 39.2499C19.25 42.6999 21.4834 45.4999 24.25 45.4999C25.9334 45.4999 27.4167 44.4499 28.3334 42.8499C29.0334 42.9499 29.75 42.9999 30.5 42.9999C31.25 42.9999 31.9667 42.9499 32.6667 42.8499C33.5834 44.4499 35.0667 45.4999 36.75 45.4999C39.5167 45.4999 41.75 42.6999 41.75 39.2499C41.75 38.8333 41.7167 38.3999 41.65 37.9999H41.75C43.8334 37.9999 45.5 36.3333 45.5 34.2499C45.5 32.1666 43.8334 30.4999 41.75 30.4999Z" fill="#4F74A4"/>
</svg>
