<svg width="40" height="40" viewBox="0 0 40 40" fill="none" xmlns="http://www.w3.org/2000/svg">
<path fill-rule="evenodd" clip-rule="evenodd" d="M20.1145 11.8759C17.8328 11.8759 17.6046 12.1179 16.4237 12.1179C15.4401 12.1179 12.4863 9.70831 11.0109 9.70831C9.53556 9.70831 7.81198 10.5763 7.81198 13.0815V15.9721C7.81506 16.7306 8.08948 19.0554 9.16864 18.4341C7.89368 19.9419 7.76573 21.7009 7.78268 23.4029C7.43889 23.5016 7.08893 23.6141 6.74823 23.7298C5.69373 24.0905 4.57448 24.5499 4.07035 24.8768C3.81276 25.0432 3.63182 25.3051 3.56735 25.6049C3.50288 25.9047 3.56015 26.2179 3.72656 26.4755C3.89297 26.7331 4.1549 26.914 4.45471 26.9785C4.75453 27.043 5.06768 26.9857 5.32527 26.8193C5.56577 26.6636 6.43681 26.2797 7.49593 25.9174L7.84743 25.8018C7.91835 26.4693 8.09564 27.0814 8.35927 27.6364L8.32227 27.6564C7.69018 27.9894 7.10435 28.3733 6.73127 28.6169L6.55706 28.7309C6.29947 28.8974 6.11853 29.1593 6.05406 29.4591C5.98959 29.7589 6.04685 30.0721 6.21327 30.3296C6.37968 30.5872 6.6416 30.7682 6.94142 30.8326C7.24124 30.8971 7.55438 30.8399 7.81198 30.6734L8.01393 30.5409C8.39164 30.2942 8.87573 29.9781 9.40298 29.7006C9.52631 29.6349 9.64502 29.5753 9.7591 29.5218C12.4262 32.0239 17.2161 32.8333 20.1145 32.8333C23.0128 32.8333 27.8028 32.0239 30.4698 29.5218C30.5829 29.5753 30.7016 29.6349 30.826 29.7006C31.3532 29.9781 31.8373 30.2942 32.215 30.5409L32.417 30.6734C32.6746 30.8399 32.9877 30.8971 33.2875 30.8326C33.5873 30.7682 33.8493 30.5872 34.0157 30.3296C34.1821 30.0721 34.2394 29.7589 34.1749 29.4591C34.1104 29.1593 33.9295 28.8974 33.6719 28.7309L33.4977 28.6169C32.9825 28.2723 32.4516 27.9518 31.9067 27.6564L31.8697 27.6364C32.1333 27.0814 32.3106 26.4693 32.3815 25.8018L32.733 25.9174C33.7921 26.2797 34.6632 26.6636 34.9052 26.8193C35.1627 26.9764 35.4714 27.0266 35.7654 26.9593C36.0594 26.892 36.3154 26.7125 36.479 26.4591C36.6425 26.2057 36.7005 25.8984 36.6407 25.6028C36.5808 25.3072 36.4078 25.0466 36.1586 24.8768C35.6545 24.5499 34.5352 24.0905 33.4823 23.7298C33.1394 23.6127 32.794 23.5032 32.4463 23.4014C32.4648 21.6994 32.3353 19.9419 31.0588 18.4341C32.1379 19.0554 32.4154 16.7306 32.417 15.9706V13.0815C32.417 10.5763 30.6949 9.70831 29.218 9.70831C27.7426 9.70831 24.7888 12.1179 23.8068 12.1179C22.6243 12.1179 22.3961 11.8759 20.1145 11.8759ZM19.0738 26.05C19.3853 25.9436 19.7537 25.8958 20.1145 25.8958C20.4752 25.8958 20.8437 25.9436 21.1566 26.05C21.3108 26.1024 21.4958 26.1856 21.6623 26.3182C21.7764 26.4044 21.8697 26.5151 21.9353 26.6421C22.0009 26.7691 22.0372 26.9092 22.0416 27.0521C22.0416 27.4066 21.8273 27.6533 21.6623 27.7859C21.4973 27.9185 21.3093 28.0017 21.1566 28.0541C20.8437 28.1605 20.4752 28.2083 20.1145 28.2083C19.7537 28.2083 19.3853 28.1605 19.0738 28.0541C18.8908 27.9942 18.7192 27.9035 18.5666 27.7859C18.4526 27.6997 18.3593 27.5891 18.2937 27.4621C18.228 27.3351 18.1917 27.195 18.1874 27.0521C18.1874 26.6975 18.4017 26.4508 18.5666 26.3182C18.7316 26.1856 18.9212 26.1024 19.0738 26.05ZM23.4599 21.2708C23.6711 20.9193 24.0858 20.5 24.7086 20.5C25.3315 20.5 25.7477 20.9193 25.9574 21.2708C26.1763 21.6393 26.2811 22.0833 26.2811 22.5242C26.2811 22.9651 26.1763 23.4076 25.9574 23.7745C25.7477 24.1275 25.3315 24.5469 24.7086 24.5469C24.0858 24.5469 23.6711 24.1275 23.4599 23.776C23.2426 23.395 23.1308 22.9628 23.1361 22.5242C23.1361 22.0833 23.241 21.6393 23.4599 21.2724M14.2716 21.2724C14.4828 20.9209 14.8975 20.5015 15.5203 20.5015C16.1431 20.5015 16.5594 20.9209 16.7691 21.2724C16.988 21.6408 17.0928 22.0848 17.0928 22.5257C17.0928 22.9666 16.988 23.4091 16.7691 23.776C16.5594 24.1291 16.1431 24.5484 15.5203 24.5484C14.8975 24.5484 14.4828 24.1291 14.2716 23.7776C14.0542 23.3965 13.9425 22.9644 13.9478 22.5257C13.9478 22.0848 14.0526 21.6393 14.2716 21.2724Z" fill="#4F74A4"/>
</svg>
