<svg width="37" height="37" viewBox="0 0 37 37" fill="none" xmlns="http://www.w3.org/2000/svg">
<path d="M18.5 20.2857C16.5109 20.2857 14.6032 19.483 13.1967 18.0541C11.7902 16.6253 11 14.6874 11 12.6667H14C14 13.8791 14.4741 15.0418 15.318 15.8992C16.1619 16.7565 17.3065 17.2381 18.5 17.2381C19.6935 17.2381 20.8381 16.7565 21.682 15.8992C22.5259 15.0418 23 13.8791 23 12.6667H26C26 14.6874 25.2098 16.6253 23.8033 18.0541C22.3968 19.483 20.4891 20.2857 18.5 20.2857ZM18.5 5.04762C19.6935 5.04762 20.8381 5.52925 21.682 6.38656C22.5259 7.24387 23 8.40663 23 9.61905H14C14 8.40663 14.4741 7.24387 15.318 6.38656C16.1619 5.52925 17.3065 5.04762 18.5 5.04762ZM29 9.61905H26C26 8.6185 25.806 7.62775 25.4291 6.70336C25.0522 5.77898 24.4997 4.93906 23.8033 4.23157C23.1069 3.52407 22.2801 2.96286 21.3701 2.57997C20.4602 2.19707 19.4849 2 18.5 2C16.5109 2 14.6032 2.80272 13.1967 4.23157C11.7902 5.66042 11 7.59835 11 9.61905H8C6.335 9.61905 5 10.9752 5 12.6667V30.9524C5 31.7607 5.31607 32.5358 5.87868 33.1074C6.44129 33.6789 7.20435 34 8 34H29C29.7956 34 30.5587 33.6789 31.1213 33.1074C31.6839 32.5358 32 31.7607 32 30.9524V12.6667C32 11.8584 31.6839 11.0832 31.1213 10.5117C30.5587 9.94014 29.7956 9.61905 29 9.61905Z" fill="#4F74A4"/>
</svg>
