<svg width="90" height="40" viewBox="0 0 90 40" fill="none" xmlns="http://www.w3.org/2000/svg">
<g clip-path="url(#clip0_242_383)">
<path fill-rule="evenodd" clip-rule="evenodd" d="M64.9757 0.633304C64.4812 1.0279 63.9173 2.12303 63.7216 3.06628L63.366 4.78195L71.0111 4.95817C77.0779 5.09871 78.7619 5.30249 79.1691 5.94574C79.4516 6.39168 79.6858 10.5576 79.6907 15.2041C79.6972 21.7857 79.5313 23.7895 78.9408 24.2782C78.4486 24.6857 76.3146 24.8506 72.8414 24.7495C67.7283 24.6009 67.4924 24.5409 67.3227 23.3468C67.1552 22.1706 67.7629 21.2393 74.7081 12.0268L76.0321 10.2701H69.7988H63.5649L60.4269 14.4268C58.3981 17.1144 57.2893 19.1025 57.2893 20.0517C57.2893 21.7593 61.958 28.0041 64.0139 29.0457C64.8867 29.4884 68.0747 29.7122 73.4639 29.7095C80.1911 29.7063 81.9748 29.5344 83.7873 28.7133C88.6072 26.5311 90.2852 22.2803 89.9143 13.1955C89.6438 6.55601 88.335 3.7252 84.5713 1.63547C82.3348 0.393304 81.4831 0.26952 74.006 0.09979C67.8318 -0.04021 65.6572 0.0878981 64.9757 0.633304ZM0.574157 11.2911C0.258614 11.8798 0 12.9852 0 13.7479C0 15.0311 0.182169 15.1349 2.43976 15.1349H4.87952V27.5674V39.9998H10.0301H15.1807V27.5495V15.0993L21.2801 15.2522C27.3389 15.4041 27.3806 15.4144 27.527 16.7565C27.6343 17.7349 26.4752 19.7128 23.3311 23.9187L18.9873 29.7295H25.2033H31.4198L34.5052 25.643C36.5639 22.9155 37.5902 21.0474 37.5902 20.0274C37.5902 18.449 34.9211 14.3706 32.2655 11.8917L30.818 10.5403L15.9831 10.3809C1.66988 10.2274 1.12825 10.2592 0.574157 11.2911ZM41.7345 19.2668C38.0142 24.2149 34.7747 28.5933 34.5361 28.9965C34.1821 29.596 35.2225 29.7295 40.2419 29.7295H46.3809L53.145 20.7328C56.8654 15.7847 60.1048 11.4063 60.3434 11.003C60.6974 10.4036 59.657 10.2701 54.6376 10.2701H48.4986L41.7345 19.2668Z" fill="black"/>
</g>
<defs>
<clipPath id="clip0_242_383">
<rect width="90" height="40" fill="white"/>
</clipPath>
</defs>
</svg>
