<?xml version="1.0" encoding="utf-8"?><svg viewBox="0 0 812 502.66" xmlns="http://www.w3.org/2000/svg" xmlns:xlink="http://www.w3.org/1999/xlink"><style>:root>svg{display:none}:root>svg:target{display:block}</style><svg viewBox="0 0 16 16" id="arrow-down-light" xmlns="http://www.w3.org/2000/svg"><path d="M14 3.333H2a.668.668 0 0 0-.55 1.047l6 8.667c.249.36.848.36 1.097 0l6-8.667A.666.666 0 0 0 14 3.333Z"/></svg><svg viewBox="0 0 16 16" id="arrow-next" xmlns="http://www.w3.org/2000/svg"><path d="M2.525 15.5.5 13.95l4.894-5.959L.5 2.05 2.525.5l6.162 7.491L2.525 15.5Zm6.813 0-2.042-1.55 4.912-5.959L7.296 2.05 9.338.5 15.5 7.991 9.338 15.5Z"/></svg><svg viewBox="0 0 16 14" id="arrow-prev" xmlns="http://www.w3.org/2000/svg"><path d="M13.475 0 15.5 1.446l-4.894 5.562 4.894 5.546L13.475 14 7.313 7.008 13.475 0ZM6.662 0l2.042 1.446-4.912 5.562 4.912 5.546L6.662 14 .5 7.008 6.662 0Z"/></svg><svg viewBox="0 0 19 21" id="arrow-up" xmlns="http://www.w3.org/2000/svg"><path d="M10.844.529A1.953 1.953 0 0 0 9.5 0c-.504 0-.987.19-1.344.529L.556 7.77a1.808 1.808 0 0 0-.411.587A1.73 1.73 0 0 0 0 9.05c0 .48.2.94.557 1.28.356.34.84.53 1.343.53.504 0 .987-.19 1.344-.53L7.6 6.181v13.008c0 .48.2.941.557 1.28.356.34.84.531 1.343.531.504 0 .987-.19 1.344-.53.356-.34.556-.8.556-1.28V6.18l4.356 4.151c.177.168.386.302.617.393a1.982 1.982 0 0 0 1.454 0c.23-.091.44-.225.616-.393.177-.168.317-.367.412-.587a1.737 1.737 0 0 0 0-1.386 1.807 1.807 0 0 0-.412-.587l-7.6-7.242Z"/></svg><svg viewBox="0 0 19 18" id="attach" xmlns="http://www.w3.org/2000/svg"><path d="M13.667 9.41 9.35 13.82a2.934 2.934 0 0 1-2.059.764 2.941 2.941 0 0 1-2.012-.886 3.058 3.058 0 0 1-.868-2.052 3.065 3.065 0 0 1 .748-2.101l5.589-5.7a1.776 1.776 0 0 1 1.236-.505c.46 0 .903.18 1.236.504a1.817 1.817 0 0 1 0 2.523l-4.82 4.91a.533.533 0 0 1-.371.173.528.528 0 0 1-.505-.317.554.554 0 0 1 .094-.598l3.583-3.648a.723.723 0 0 0 0-1.012.694.694 0 0 0-.991 0L6.626 9.538a1.987 1.987 0 0 0 0 2.772 1.946 1.946 0 0 0 2.717 0l4.813-4.917A3.243 3.243 0 0 0 15 5.15a3.24 3.24 0 0 0-.92-2.21A3.113 3.113 0 0 0 11.912 2a3.109 3.109 0 0 0-2.198.86L4.125 8.563a4.507 4.507 0 0 0-1.123 3.113A4.497 4.497 0 0 0 4.3 14.717a4.323 4.323 0 0 0 2.999 1.282 4.318 4.318 0 0 0 3.036-1.188l4.324-4.404a.717.717 0 0 0 .206-.506.727.727 0 0 0-.206-.506.7.7 0 0 0-.496-.21.69.69 0 0 0-.496.21v.015Z"/></svg><svg viewBox="0 0 180 132" id="camera-dark" xmlns="http://www.w3.org/2000/svg"><path fill-rule="evenodd" clip-rule="evenodd" d="M120.691.678c4.032 1.055 7.413 2.99 10.746 6.153 4.973 4.72 7.338 9.351 8.32 16.295 1.049 7.418 1.383 7.18-17.258 12.301a4055.824 4055.824 0 0 1-28.925 7.813L79.52 46.966l-1.872-.709c-1.03-.39-4.183-2.248-7.008-4.13-2.905-1.935-5.788-3.542-6.637-3.7-1.07-.199-2.647.044-5.483.842-12.246 3.446-20.544 5.572-21.747 5.572-1.666 0-2.2-.408-4.306-3.29-3.62-4.951-9.243-9.057-14.841-10.835-1.14-.362-3.914-.93-6.163-1.26-3.784-.557-4.821-.841-4.379-1.201.095-.077 3.813-1.116 8.26-2.308 4.449-1.192 8.648-2.335 9.332-2.538.685-.204 5.63-1.547 10.991-2.985 5.36-1.437 13.293-3.578 17.627-4.755a8133.151 8133.151 0 0 1 24.677-6.63l21.36-5.711C112.6-.227 115.742-.616 120.69.678ZM15.553 31.904c4.91 1.365 7.258 2.556 8.398 4.261 1.1 1.646 1.154 2.769.302 6.278-1.133 4.664-1.607 5.823-2.911 7.116-1.418 1.405-4.316 2.27-7.599 2.27-1.785 0-2.12-.168-3.875-1.952C4.594 44.513 0 37.921 0 35.716c0-1.242 1.25-2.785 2.958-3.648 1.073-.543 2.763-.867 5.225-1.002 3.037-.166 4.253-.028 7.37.838Zm127.288 1.304c1.39 4.34 2.736 12.245 2.733 16.05-.002 3.213-1.07 9.515-2.043 12.052-1.57 4.097-4.449 6.74-8.871 8.14-1.41.447-6.296 1.767-10.858 2.934-4.562 1.167-20.102 5.344-34.532 9.283-28.881 7.884-29.546 8.054-29.546 7.547 0-.193.386-1.323.858-2.51 4.299-10.812 3.483-23.49-2.468-38.332-1.17-2.92-2.06-5.376-1.976-5.458.532-.528 5.096-1.773 6.5-1.773 2.05 0 3.37.642 6.156 3 1.17.99 3.201 2.33 4.512 2.978 2.075 1.024 2.951 1.197 6.74 1.325 4.8.162 4.84.154 17.176-3.556 3.858-1.161 12.35-3.513 18.871-5.226 15.202-3.994 24.945-6.617 25.817-6.951.457-.175.769-.009.931.497ZM29.456 41.83c1.996 2.254 2.349 3.52 2.611 9.383.524 11.7 3.154 19.956 9.05 28.41 2.63 3.772 4.33 5.139 6.685 5.376 4.888.492 6.937-3.431 6.942-13.296.004-6.725-1.439-12.773-5.02-21.048-1.116-2.576-2.028-4.812-2.028-4.967 0-.45 2.835-1.67 3.882-1.67 1.465 0 2.615 1.55 4.453 5.995 1.971 4.772 3.451 10.102 4.138 14.905.623 4.354.298 13.31-.623 17.185-1.426 6.003-4.847 9.544-9.598 9.934-3.343.275-5.517-.713-9.213-4.187-7.452-7.004-11.597-15.399-13.813-27.981-.503-2.855-.291-16.574.287-18.626.355-1.26.689-1.172 2.247.587Zm12.352 5.48c1.335.557 5.153 8.578 6.532 13.725 1.167 4.358 1.782 10.3 1.404 13.566-.164 1.417-.514 2.236-1.186 2.776-1.63 1.308-2.655.97-5.149-1.7-4.015-4.3-6.09-9.607-7.52-19.234-.775-5.218-.459-7.46 1.203-8.539 1.263-.82 3.501-1.102 4.716-.595Zm.208 7.82c1.735 1.352 3.294 5.116 3.517 8.487.217 3.3-.137 5.891-.807 5.891-.88 0-3.271-3.088-4.123-5.323-1.458-3.824-1.582-9.888-.203-9.888.302 0 1.029.374 1.616.832Zm137.338 20.637c.568.804.646 4.09.646 27.36 0 22.902-.085 26.61-.633 27.66l-.632 1.213h-8.202c-5.826 0-8.346-.143-8.699-.493-.719-.714-.719-55.447 0-56.16.353-.35 2.871-.494 8.686-.494 7.992 0 8.204.022 8.834.914Zm-53.797.011c.224.283.531.976.684 1.542 2 7.404 3.16 12.047 3.16 12.655 0 .66-.306.726-2.672.577-6.302-.398-11.849 1.612-16.249 5.889-1.459 1.418-2.724 2.46-2.81 2.315-.176-.297-3.187-11.056-4.004-14.31-.879-3.5-.588-3.716 8.377-6.21 12.071-3.357 12.713-3.474 13.514-2.458Zm1.77 17.628c5.017.806 10.1 4.461 12.19 8.765 3.06 6.304 2.05 14.099-2.476 19.089-3.603 3.973-10.144 6.287-15.202 5.378-8.997-1.617-14.92-9.155-14.332-18.241.471-7.264 6.391-13.64 13.966-15.041 2.506-.463 2.671-.462 5.854.05Zm30.776 10.74c.364.636.53 2.877.533 7.183.006 8.493.476 8.058-8.958 8.273l-7.093.161.228-1.179c.126-.648.452-4.37.725-8.271l.498-7.092h6.769c6.587 0 6.784.025 7.298.925Zm-31.191.621c2.019 1.073 3.477 3.98 3.072 6.125-.561 2.977-4.053 5.23-6.977 4.503-1.704-.424-3.513-2.253-4-4.043-1.259-4.637 3.738-8.8 7.905-6.585Z"/></svg><svg viewBox="0 0 16 16" id="checkbox-check" xmlns="http://www.w3.org/2000/svg"><path d="M13.02 4.273a1 1 0 0 1 .04 1.414l-5.667 6a1 1 0 0 1-1.433.02l-3-3a1 1 0 0 1 1.413-1.414l2.274 2.272 4.96-5.252a1 1 0 0 1 1.413-.04Z"/></svg><svg viewBox="0 0 16 16" id="checkbox-white" xmlns="http://www.w3.org/2000/svg"><path d="M13.02 4.273a1 1 0 0 1 .04 1.414l-5.667 6a1 1 0 0 1-1.433.02l-3-3a1 1 0 0 1 1.413-1.414l2.274 2.272 4.96-5.252a1 1 0 0 1 1.413-.04Z"/></svg><svg viewBox="0 0 13 11" id="clock" xmlns="http://www.w3.org/2000/svg"><path d="M6.5 10a4.5 4.5 0 1 1 0-9 4.5 4.5 0 0 1 0 9Zm.41-7.16h-.82v2.83l1.637 1.636.579-.579-1.397-1.396V2.84Z"/></svg><svg viewBox="0 0 40 40" id="close" xmlns="http://www.w3.org/2000/svg"><g clip-path="url(#aja)"><path d="M33.333 33.333 6.667 6.667m26.666 0L6.667 33.333"/></g><defs><clipPath id="aja"><path d="M0 0h40v40H0z"/></clipPath></defs></svg><svg viewBox="0 0 16 16" id="down-arrow" xmlns="http://www.w3.org/2000/svg"><path d="M14 3.333H2a.668.668 0 0 0-.55 1.047l6 8.667c.249.36.848.36 1.097 0l6-8.667A.666.666 0 0 0 14 3.333Z"/></svg><svg viewBox="0 0 502.664 502.664" xml:space="preserve" id="icon" xmlns="http://www.w3.org/2000/svg"><path d="M153.821 358.226 0 274.337v-46.463l153.821-83.414v54.574L46.636 250.523l107.185 53.431v54.272zm26.273 29.358L282.103 115.08h32.227L212.084 387.584h-31.99zm168.749-29.358v-54.272l107.164-52.999-107.164-52.59v-53.927l153.821 83.522v46.183l-153.821 84.083z"/></svg><svg viewBox="0 0 20 20" id="icon1" xmlns="http://www.w3.org/2000/svg"><path d="M13.285 9.063a2.813 2.813 0 1 1 0 1.875h-2.508a2.813 2.813 0 0 1-3.14 1.832l-1.35 2.385a2.813 2.813 0 1 1-1.577-1.017l1.294-2.29a2.812 2.812 0 0 1 0-3.695L4.71 5.863a2.813 2.813 0 1 1 1.577-1.018l1.35 2.385a2.812 2.812 0 0 1 3.14 1.833h2.508ZM3.125 3.125a.937.937 0 1 0 1.875 0 .937.937 0 0 0-1.875 0Zm5 5.938a.938.938 0 1 0 0 1.875.938.938 0 0 0 0-1.875Zm7.813 0a.938.938 0 1 0 0 1.875.938.938 0 0 0 0-1.875ZM4.062 15.938a.938.938 0 1 0 0 1.875.938.938 0 0 0 0-1.875Z"/></svg><svg viewBox="0 0 21 21" id="icon2" xmlns="http://www.w3.org/2000/svg"><path fill-rule="evenodd" clip-rule="evenodd" d="M10.063 2.625a3.938 3.938 0 0 1 3.793 2.88l.046.18 1.636-.409a.875.875 0 0 1 1.08.735l.007.114v1.584a5.69 5.69 0 0 1 1.194 1.646l.12.27h.436a.875.875 0 0 1 .869.773l.006.102v2.625a.876.876 0 0 1-.39.728l-.094.054-1.022.512a5.686 5.686 0 0 1-1.767 2.034l-.227.153v.894a.875.875 0 0 1-.773.869l-.102.006H12.25a.875.875 0 0 1-.869-.773l-.006-.102H10.5a.875.875 0 0 1-.773.869l-.102.006H7a.875.875 0 0 1-.869-.773l-.006-.102v-.894a5.69 5.69 0 0 1-2.497-3.589 2.626 2.626 0 0 1-1.873-2.356L1.75 10.5v-.438a.875.875 0 0 1 1.744-.102l.006.102v.438c.001.13.027.252.079.363a5.687 5.687 0 0 1 2.57-3.86 3.938 3.938 0 0 1 3.913-4.378Zm3.937 7a.875.875 0 1 0 0 1.75.875.875 0 0 0 0-1.75Zm-3.938-5.25a2.187 2.187 0 0 0-2.168 1.898 5.687 5.687 0 0 1 1.293-.148h2.955l.062-.015a2.187 2.187 0 0 0-2.142-1.735Z"/></svg><svg viewBox="0 0 20 20" id="icon3" xmlns="http://www.w3.org/2000/svg"><path d="M4.167 2.5A1.667 1.667 0 0 0 2.5 4.167v1.666A1.667 1.667 0 0 0 4.167 7.5H7.5a1.667 1.667 0 0 0 1.667-1.667V4.167A1.667 1.667 0 0 0 7.5 2.5H4.167Zm11.666 15a1.666 1.666 0 0 0 1.667-1.667v-1.666a1.666 1.666 0 0 0-1.667-1.667H12.5a1.666 1.666 0 0 0-1.667 1.667v1.666A1.666 1.666 0 0 0 12.5 17.5h3.333ZM4.167 9.167A1.667 1.667 0 0 0 2.5 10.833v5A1.666 1.666 0 0 0 4.167 17.5H7.5a1.667 1.667 0 0 0 1.667-1.667v-5A1.667 1.667 0 0 0 7.5 9.167H4.167Zm11.666 1.666A1.667 1.667 0 0 0 17.5 9.167v-5A1.667 1.667 0 0 0 15.833 2.5H12.5a1.667 1.667 0 0 0-1.667 1.667v5a1.667 1.667 0 0 0 1.667 1.666h3.333Z"/></svg><svg viewBox="0 0 20 20" id="icon4" xmlns="http://www.w3.org/2000/svg"><path fill-rule="evenodd" clip-rule="evenodd" d="M11.875 2.083a.208.208 0 0 0-.208-.208H5.833a2.292 2.292 0 0 0-2.291 2.292v11.666a2.292 2.292 0 0 0 2.291 2.292h8.334a2.291 2.291 0 0 0 2.291-2.292v-8.21a.208.208 0 0 0-.208-.209H12.5a.625.625 0 0 1-.625-.625V2.083Zm.625 8.125a.625.625 0 0 1 0 1.25h-5a.625.625 0 1 1 0-1.25h5Zm0 3.334a.625.625 0 1 1 0 1.25h-5a.625.625 0 0 1 0-1.25h5Z"/><path d="M13.125 2.353c0-.153.16-.25.28-.155.101.082.19.177.27.285l2.51 3.498c.057.08-.005.183-.103.183h-2.749a.208.208 0 0 1-.208-.208V2.353Z"/></svg><svg viewBox="0 0 13 11" id="location" xmlns="http://www.w3.org/2000/svg"><path d="M7 11s4-3.91 4-6.875a4.191 4.191 0 0 0-1.172-2.917A3.94 3.94 0 0 0 7 0a3.94 3.94 0 0 0-2.828 1.208A4.191 4.191 0 0 0 3 4.125C3 7.091 7 11 7 11Zm0-4.813a1.97 1.97 0 0 1-1.414-.604A2.096 2.096 0 0 1 5 4.125c0-.547.21-1.072.586-1.458A1.97 1.97 0 0 1 7 2.063c.53 0 1.04.217 1.414.604.375.386.586.911.586 1.458a2.09 2.09 0 0 1-.586 1.458A1.97 1.97 0 0 1 7 6.187Z"/></svg><svg viewBox="0 0 13 11" id="mail" xmlns="http://www.w3.org/2000/svg"><path fill-rule="evenodd" clip-rule="evenodd" d="M1.645 1.66C1 2.317 1 3.378 1 5.5c0 2.121 0 3.182.645 3.84.644.66 1.681.66 3.755.66h2.2c2.074 0 3.111 0 3.755-.66C12 8.682 12 7.622 12 5.5c0-2.121 0-3.182-.645-3.84C10.711 1 9.674 1 7.6 1H5.4c-2.074 0-3.111 0-3.755.66Zm8.472 1.32a.428.428 0 0 1-.053.594l-1.208 1.03c-.488.416-.883.752-1.232.981-.363.24-.716.39-1.124.39-.408 0-.761-.151-1.125-.39-.348-.229-.743-.566-1.231-.981l-1.208-1.03a.425.425 0 0 1-.053-.594.406.406 0 0 1 .581-.054l1.188 1.012c.513.437.869.74 1.17.938.291.19.489.256.679.256.19 0 .387-.065.678-.256.3-.198.657-.501 1.17-.938l1.188-1.013a.406.406 0 0 1 .58.055Z"/></svg><svg viewBox="0 0 28 28" id="plus" xmlns="http://www.w3.org/2000/svg"><path d="M14 1v26m13-13H1"/></svg><svg viewBox="0 0 12 12" id="select-arrow" xmlns="http://www.w3.org/2000/svg"><path d="M3 1.5v9c0 .092.024.181.068.259a.484.484 0 0 0 .183.184.443.443 0 0 0 .483-.03L9.81 6.411c.252-.187.252-.636 0-.823l-6.077-4.5a.448.448 0 0 0-.484-.032.482.482 0 0 0-.183.184.526.526 0 0 0-.067.26Z"/></svg><svg viewBox="0 0 29 32" id="social-dzen" xmlns="http://www.w3.org/2000/svg"><rect x="1" y="3" width="26" height="28" rx="13"/><path fill-rule="evenodd" clip-rule="evenodd" d="M10.941.536c-2.746.056-4.491.265-5.853.7-1.089.349-2.01.913-2.577 1.579C1.503 4 .933 5.966.711 9.03.62 10.29.587 11.41.567 13.883L.552 15.83l.496-.017c4.935-.176 6.773-.426 8.423-1.145.91-.397 1.867-1.122 2.471-1.872 1.166-1.448 1.747-3.137 2.03-5.903.137-1.337.226-3.051.305-5.824l.016-.561-1.213.004c-.667.002-1.63.013-2.139.023Zm3.678.53c.125 4.451.285 6.44.651 8.069.174.77.332 1.26.613 1.898.557 1.26 1.326 2.222 2.375 2.97 1.356.967 3.063 1.423 6.144 1.638 1.009.07 3.312.181 3.802.182h.133v-1.065c-.002-4.56-.164-7.02-.583-8.865-.32-1.412-.83-2.514-1.481-3.204-.934-.99-2.37-1.598-4.475-1.895-1.29-.182-2.62-.25-5.403-.277L14.604.5l.015.566ZM.567 18.125c.02 2.472.053 3.592.144 4.852.206 2.85.703 4.711 1.586 5.94.85 1.184 2.376 1.933 4.628 2.271 1.401.21 3.431.31 6.372.312h.99v-.163c0-.202-.06-2.042-.094-2.846-.128-3.142-.336-4.894-.75-6.331-.73-2.526-2.251-4.22-4.527-5.04-1.507-.544-3.44-.771-7.857-.925l-.507-.018.015 1.948Zm26.729-1.911c-3.683.153-5.204.31-6.598.683-2.677.715-4.434 2.473-5.239 5.241-.362 1.248-.566 2.742-.697 5.114-.05.894-.152 3.644-.152 4.084v.164h.99c4.069-.003 6.24-.175 7.865-.623 1.423-.393 2.497-1.064 3.134-1.958.961-1.347 1.454-3.37 1.634-6.704.057-1.072.08-2.048.096-4.087l.016-1.943-.276.004c-.152.002-.5.013-.773.025Z"/></svg><svg viewBox="0 0 27 32" id="social-dzen-light" xmlns="http://www.w3.org/2000/svg"><rect x="1" y="5" width="24" height="24" rx="12"/><path fill-rule="evenodd" clip-rule="evenodd" d="M10.177.536c-2.535.056-4.146.265-5.403.7-1.005.349-1.855.913-2.379 1.579C1.465 4 .938 5.966.734 9.03c-.085 1.26-.115 2.38-.133 4.853L.586 15.83l.458-.017c4.556-.176 6.253-.426 7.776-1.145a6.5 6.5 0 0 0 2.28-1.872c1.077-1.448 1.613-3.137 1.874-5.903.127-1.337.21-3.051.282-5.824L13.27.51l-1.119.004c-.616.002-1.504.013-1.974.023Zm3.395.53c.115 4.451.263 6.44.6 8.069.16.77.307 1.26.567 1.898.513 1.26 1.223 2.222 2.192 2.97 1.251.967 2.827 1.423 5.671 1.638.931.07 3.057.181 3.51.182h.123v-1.065c-.003-4.56-.152-7.02-.539-8.865C25.4 4.481 24.93 3.38 24.33 2.69c-.863-.99-2.187-1.598-4.13-1.895-1.19-.182-2.419-.25-4.988-.277L13.557.5l.015.566ZM.601 18.125c.018 2.472.048 3.592.133 4.852.19 2.85.649 4.711 1.463 5.94.784 1.184 2.194 1.933 4.273 2.271 1.293.21 3.167.31 5.881.312h.913v-.163c0-.202-.055-2.042-.085-2.846-.119-3.142-.31-4.894-.694-6.331-.672-2.526-2.077-4.22-4.178-5.04-1.391-.544-3.175-.771-7.252-.925l-.469-.018.015 1.948Zm24.672-1.911c-3.4.153-4.803.31-6.09.683-2.471.715-4.093 2.473-4.836 5.241-.335 1.248-.523 2.742-.644 5.114-.045.894-.14 3.644-.14 4.084v.164h.914c3.756-.003 5.76-.175 7.26-.623 1.314-.393 2.305-1.064 2.893-1.958.887-1.347 1.343-3.37 1.508-6.704.053-1.072.074-2.048.09-4.087l.014-1.943-.255.004c-.14.002-.461.013-.714.025Z"/></svg><svg viewBox="0 0 27 32" id="social-dzen-light1" xmlns="http://www.w3.org/2000/svg"><path fill-rule="evenodd" clip-rule="evenodd" d="M10.177.536c-2.535.056-4.146.265-5.403.7-1.005.349-1.855.913-2.379 1.579C1.465 4 .938 5.966.734 9.03c-.085 1.26-.115 2.38-.133 4.853L.586 15.83l.458-.017c4.556-.176 6.253-.426 7.776-1.145a6.5 6.5 0 0 0 2.28-1.872c1.077-1.448 1.613-3.137 1.874-5.903.127-1.337.21-3.051.282-5.824L13.27.51l-1.119.004c-.616.002-1.504.013-1.974.023Zm3.395.53c.115 4.451.263 6.44.6 8.069.16.77.307 1.26.567 1.898.513 1.26 1.223 2.222 2.192 2.97 1.251.967 2.827 1.423 5.671 1.638.931.07 3.057.181 3.51.182h.123v-1.065c-.003-4.56-.152-7.02-.539-8.865C25.4 4.481 24.93 3.38 24.33 2.69c-.863-.99-2.187-1.598-4.13-1.895-1.19-.182-2.419-.25-4.988-.277L13.557.5l.015.566ZM.601 18.125c.018 2.472.048 3.592.133 4.852.19 2.85.649 4.711 1.463 5.94.784 1.184 2.194 1.933 4.273 2.271 1.293.21 3.167.31 5.881.312h.913v-.163c0-.202-.055-2.042-.085-2.846-.119-3.142-.31-4.894-.694-6.331-.672-2.526-2.077-4.22-4.178-5.04-1.391-.544-3.175-.771-7.252-.925l-.469-.018.015 1.948Zm24.672-1.911c-3.4.153-4.803.31-6.09.683-2.471.715-4.093 2.473-4.836 5.241-.335 1.248-.523 2.742-.644 5.114-.045.894-.14 3.644-.14 4.084v.164h.914c3.756-.003 5.76-.175 7.26-.623 1.314-.393 2.305-1.064 2.893-1.958.887-1.347 1.343-3.37 1.508-6.704.053-1.072.074-2.048.09-4.087l.014-1.943-.255.004c-.14.002-.461.013-.714.025Z"/></svg><svg viewBox="0 0 24 24" id="social-tg" xmlns="http://www.w3.org/2000/svg"><path fill-rule="evenodd" clip-rule="evenodd" d="M18.483 19.79v-.002l.018-.043L21.5 4.625v-.048c0-.377-.14-.706-.442-.903-.265-.173-.57-.185-.784-.169a2.7 2.7 0 0 0-.826.208l-.013.005-16.72 6.56-.005.001a2.294 2.294 0 0 0-.49.251c-.215.148-.624.496-.555 1.048.057.458.372.748.585.9.125.088.26.161.403.22l.032.013.01.003.007.003 2.926.985c-.01.184.008.37.057.555l1.465 5.56a1.5 1.5 0 0 0 2.834.195l2.288-2.446 3.929 3.012.056.024c.357.156.69.205.995.164.305-.042.547-.17.729-.315.21-.17.378-.388.49-.635l.008-.017.003-.006.001-.003ZM7.135 13.875a.3.3 0 0 1 .13-.33l9.921-6.3s.584-.355.563 0c0 0 .104.062-.209.353-.296.277-7.071 6.818-7.757 7.48a.3.3 0 0 0-.077.136L8.6 19.434l-1.465-5.559Z"/></svg><svg viewBox="0 0 24 24" id="social-tg-light" xmlns="http://www.w3.org/2000/svg"><path fill-rule="evenodd" clip-rule="evenodd" d="M18.483 19.79v-.002l.018-.043L21.5 4.625v-.048c0-.377-.14-.706-.442-.903-.265-.173-.57-.185-.784-.169a2.7 2.7 0 0 0-.826.208l-.013.005-16.72 6.559-.005.002a2.303 2.303 0 0 0-.49.251c-.215.148-.624.496-.555 1.048.057.458.372.748.585.899.125.089.26.162.403.22l.032.014.01.003.007.003 2.926.985c-.01.184.008.369.057.555l1.465 5.559a1.5 1.5 0 0 0 2.834.196l2.288-2.446 3.929 3.012.056.024c.357.156.69.205.995.164.305-.042.547-.17.729-.315.21-.17.378-.388.49-.635l.008-.017.003-.006.001-.003ZM7.135 13.875a.3.3 0 0 1 .13-.33l9.921-6.3s.584-.355.563 0c0 0 .104.062-.209.353-.296.277-7.071 6.818-7.757 7.48a.3.3 0 0 0-.077.136L8.6 19.434l-1.465-5.559Z"/></svg><svg viewBox="0 0 26 24" id="social-vc" xmlns="http://www.w3.org/2000/svg"><path fill-rule="evenodd" clip-rule="evenodd" d="M19.755.57c-.595.086-1.444.383-1.979.693-.624.363-1.554 1.299-1.906 1.92-.513.904-.686 1.552-.693 2.605-.005.755.026 1.016.174 1.488.306.969.675 1.572 1.402 2.294.965.956 2.024 1.439 3.433 1.564 1.085.096 2.344-.217 3.274-.814.453-.291 1.343-1.13 1.343-1.267 0-.035-.308-.292-.686-.57l-.687-.508-.377.38c-.99.994-2.662 1.295-3.959.712-.505-.226-1.24-.906-1.511-1.397-.59-1.069-.587-2.612.007-3.707.851-1.567 2.936-2.211 4.671-1.444l.453.2v1.734h1.78V1.882l-.462-.32c-.782-.54-1.616-.843-2.736-.994-.678-.091-.901-.09-1.541.002ZM3.308 1.65l.021.858.9.022.9.021.23.627 1.537 4.23 1.309 3.605h1.704L11.505 6.8 13.1 2.584l.86-.021.861-.022V.792h-3.074l-1.067 3.07a617.913 617.913 0 0 1-1.3 3.71l-.23.641-.964-2.776a1303.1 1303.1 0 0 1-1.283-3.71l-.32-.935H3.285l.022.858Zm6.817 11.511c-.88.135-1.808.698-2.373 1.439l-.345.451-.055-.95-.056-.952H4.065v1.602h1.702v6.789H4.065v1.678h7.893V21.54H7.624v-2.162c0-2.357.037-2.601.492-3.312.438-.685 1.237-1.217 1.944-1.296l.344-.038.023.753.022.754.87.021.87.022v-1.558c0-1.389-.013-1.564-.129-1.608-.168-.063-1.417-.034-1.935.045Zm3.922.866v.877h1.534l.033 2.727c.035 2.958.063 3.184.506 4.058.278.55.88 1.146 1.42 1.405a5.4 5.4 0 0 0 1.073.333c1.431.278 2.761-.249 3.579-1.418l.247-.355.1.687c.054.378.114.73.134.782.027.071.386.095 1.432.095H25.5v-1.672l-.677-.022c-.472-.015-.68-.051-.687-.117a517.62 517.62 0 0 1-.02-4.177l-.009-4.08h-3.72l.022.857.022.859.875.021.874.022-.023 2.42-.023 2.418-.208.437c-.578 1.217-1.871 1.886-3.012 1.559-.515-.148-.873-.474-1.145-1.042l-.2-.42-.024-3.566-.023-3.566h-3.475v.878ZM.522 22.36l.022.896h1.78l.021-.896.022-.896H.5l.022.896Z"/></svg><svg viewBox="0 0 24 24" id="social-vc-light" xmlns="http://www.w3.org/2000/svg"><path fill-rule="evenodd" clip-rule="evenodd" d="M18.485.073c-.572.09-1.387.4-1.9.723-.6.379-1.492 1.355-1.83 2.003-.493.944-.658 1.62-.665 2.72-.005.787.025 1.059.167 1.551.293 1.011.647 1.641 1.346 2.394.926.998 1.943 1.502 3.295 1.632 1.042.1 2.25-.226 3.144-.85.435-.303 1.29-1.179 1.29-1.32 0-.038-.297-.306-.66-.597l-.659-.529-.362.396c-.95 1.037-2.556 1.352-3.8.744-.486-.237-1.191-.946-1.451-1.458-.567-1.116-.564-2.726.006-3.868.818-1.636 2.819-2.308 4.485-1.507l.435.21v1.808h1.708V1.442l-.443-.333C21.841.545 21.04.229 19.964.07c-.65-.095-.865-.095-1.48.002ZM2.695 1.2l.021.896.864.022.864.022.22.654c.121.36.786 2.347 1.476 4.415l1.256 3.76.819.001h.818l1.532-4.397 1.531-4.398.826-.022.826-.023V.305h-2.951L9.772 3.508A680.095 680.095 0 0 1 8.525 7.38l-.222.669-.925-2.897A1520.81 1520.81 0 0 1 6.147 1.28L5.84.305H2.674l.021.895ZM9.24 13.212c-.845.14-1.736.728-2.279 1.501l-.33.47-.053-.991-.054-.993H3.422v1.672h1.634v7.084H3.422v1.751h7.577v-1.751H6.84v-2.256c0-2.46.035-2.715.472-3.456.421-.715 1.188-1.27 1.867-1.352l.33-.04.021.786.022.786.836.022.835.023v-1.626c0-1.449-.013-1.631-.124-1.677-.162-.066-1.36-.036-1.858.047Zm3.765.903v.915h1.473l.031 2.845c.034 3.088.061 3.323.486 4.235.267.574.846 1.196 1.363 1.466.23.12.693.277 1.03.348 1.375.29 2.651-.26 3.436-1.48l.238-.37.095.717c.052.394.11.76.13.815.025.075.37.1 1.373.1H24V21.96l-.65-.023c-.453-.016-.653-.053-.66-.122-.005-.055-.013-2.016-.018-4.358l-.01-4.259h-3.57l.021.896.021.895.84.023.84.022-.023 2.525-.023 2.524-.199.455c-.555 1.27-1.796 1.968-2.892 1.627-.494-.154-.838-.494-1.099-1.087l-.193-.438-.022-3.72-.022-3.722h-3.336v.916ZM.021 22.81l.02.935H1.75l.021-.935.021-.936H0l.02.936Z"/></svg><svg viewBox="0 0 24 24" id="social-vk" xmlns="http://www.w3.org/2000/svg"><path d="M23.456 5.784a8.6 8.6 0 0 1-1.09 2.259l.019-.03c-.448.747-.983 1.61-1.605 2.588-.533.773-.816 1.173-.847 1.2a1.3 1.3 0 0 0-.267.618l-.001.007a.9.9 0 0 0 .268.535l.4.446c2.14 2.2 3.344 3.715 3.61 4.548a.89.89 0 0 1-.111.83l.002-.004a.97.97 0 0 1-.784.29h.004-2.636c-.337 0-.647-.119-.89-.315l.003.002a7.006 7.006 0 0 1-.951-.948l-.01-.012c-.46-.52-.868-.959-1.225-1.315-1.188-1.13-2.065-1.694-2.63-1.694a.8.8 0 0 0-.516.135l.003-.002a.77.77 0 0 0-.16.584v-.004c-.038.467-.05.935-.038 1.403v-.017 1.16a.78.78 0 0 1-.266.756l-.001.001a3.201 3.201 0 0 1-1.617.267l.013.001a8.3 8.3 0 0 1-4.275-1.268l.035.02A11.9 11.9 0 0 1 4.176 14.3l-.027-.042a26.403 26.403 0 0 1-2.471-3.992l-.07-.154A25.005 25.005 0 0 1 .375 7.31l-.06-.185a6.7 6.7 0 0 1-.31-1.535l-.002-.025c0-.505.297-.758.892-.758h2.63c.266-.02.53.06.739.225l-.002-.002c.2.22.348.488.42.788l.004.012a25.4 25.4 0 0 0 1.587 3.615l-.067-.137c.45.913.994 1.776 1.623 2.576l-.023-.03c.533.654.95.981 1.248.981l.032.001a.4.4 0 0 0 .347-.2v-.002a1.8 1.8 0 0 0 .112-.787v.006-3.879a3.2 3.2 0 0 0-.32-1.267l.008.02a3 3 0 0 0-.45-.696l.003.004a1.1 1.1 0 0 1-.311-.619l-.001-.006c0-.17.078-.323.2-.423v-.001a.68.68 0 0 1 .46-.178h4.155a.63.63 0 0 1 .559.222v.001c.127.233.182.499.16.763V5.79v5.173a1 1 0 0 0 .136.584l-.002-.004a.4.4 0 0 0 .333.178.954.954 0 0 0 .472-.162l-.003.002c.27-.187.507-.4.709-.64l.004-.006a15.565 15.565 0 0 0 1.655-2.25l.039-.07c.344-.57.716-1.272 1.053-1.993l.062-.147.446-.892a1.12 1.12 0 0 1 1.117-.759h-.003 2.63c.712 0 .978.327.8.981Z"/></svg><svg viewBox="0 0 24 24" id="social-vk-light" xmlns="http://www.w3.org/2000/svg"><path d="M23.456 5.784a8.6 8.6 0 0 1-1.09 2.259l.019-.03c-.448.747-.983 1.61-1.605 2.588-.533.773-.816 1.173-.847 1.2a1.3 1.3 0 0 0-.267.618l-.001.007a.9.9 0 0 0 .268.535l.4.446c2.14 2.2 3.344 3.715 3.61 4.548a.89.89 0 0 1-.111.829l.002-.003a.97.97 0 0 1-.784.289h.004-2.636c-.337 0-.647-.118-.89-.314l.003.002a7.006 7.006 0 0 1-.951-.948l-.01-.012c-.46-.52-.868-.959-1.225-1.315-1.188-1.13-2.065-1.694-2.63-1.694a.8.8 0 0 0-.516.135l.003-.002a.77.77 0 0 0-.16.584v-.004c-.038.467-.05.935-.038 1.403v-.017 1.159a.78.78 0 0 1-.266.757l-.001.001a3.2 3.2 0 0 1-1.617.267l.013.001a8.3 8.3 0 0 1-4.275-1.268l.035.02A11.9 11.9 0 0 1 4.176 14.3l-.027-.042a26.403 26.403 0 0 1-2.471-3.992l-.07-.154A25 25 0 0 1 .375 7.31l-.06-.185a6.7 6.7 0 0 1-.31-1.535l-.002-.025c0-.505.297-.758.892-.758h2.63c.266-.02.53.06.739.225l-.002-.002c.2.219.348.488.42.788l.004.012a25.4 25.4 0 0 0 1.587 3.615l-.067-.137a14.6 14.6 0 0 0 1.623 2.576l-.023-.031c.533.655.95.982 1.248.982l.032.001a.4.4 0 0 0 .347-.2v-.002a1.8 1.8 0 0 0 .112-.787v.006-3.879a3.2 3.2 0 0 0-.32-1.267l.008.019a3 3 0 0 0-.45-.695l.003.004a1.1 1.1 0 0 1-.311-.619l-.001-.006c0-.17.078-.323.2-.423v-.001a.68.68 0 0 1 .46-.178h4.155a.63.63 0 0 1 .559.222v.001c.127.233.182.499.16.763v-.005 5.173a1 1 0 0 0 .136.584l-.002-.004a.4.4 0 0 0 .333.178.954.954 0 0 0 .472-.162l-.003.002c.27-.187.507-.4.709-.641l.004-.005a15.596 15.596 0 0 0 1.655-2.25l.039-.07c.344-.57.716-1.272 1.053-1.993l.062-.147.446-.892a1.12 1.12 0 0 1 1.117-.759h-.003 2.63c.712 0 .978.327.8.981Z"/></svg><svg viewBox="0 0 24 24" id="social-wa" xmlns="http://www.w3.org/2000/svg"><path d="M12.001 2c5.523 0 10 4.477 10 10s-4.477 10-10 10a9.95 9.95 0 0 1-5.03-1.355L2.005 22l1.352-4.968A9.95 9.95 0 0 1 2.001 12c0-5.523 4.477-10 10-10ZM8.593 7.3l-.2.008a1 1 0 0 0-.372.1 1.3 1.3 0 0 0-.294.228c-.12.113-.188.211-.261.306A2.73 2.73 0 0 0 6.9 9.62c.002.49.13.967.33 1.413.409.902 1.082 1.857 1.97 2.742.214.213.424.427.65.626a9.45 9.45 0 0 0 3.84 2.046l.568.087c.185.01.37-.004.556-.013a2 2 0 0 0 .833-.231c.13-.068.259-.141.383-.22 0 0 .042-.029.125-.09.135-.1.218-.171.33-.288.084-.087.154-.187.21-.302.078-.163.156-.474.188-.733.024-.198.017-.306.014-.373-.004-.107-.093-.218-.19-.265l-.582-.261s-.87-.379-1.402-.621a.502.502 0 0 0-.176-.041.48.48 0 0 0-.378.127c-.005-.002-.072.055-.795.931a.35.35 0 0 1-.368.13 1.4 1.4 0 0 1-.191-.066c-.124-.052-.167-.072-.252-.108a6 6 0 0 1-1.575-1.003c-.126-.11-.243-.23-.363-.346a6.3 6.3 0 0 1-1.02-1.268l-.059-.095a1 1 0 0 1-.102-.205c-.038-.147.061-.265.061-.265s.243-.266.356-.41c.11-.14.203-.276.263-.373.118-.19.155-.385.093-.536-.28-.684-.57-1.364-.868-2.041-.059-.134-.234-.23-.393-.249a3.001 3.001 0 0 0-.565-.012l.202-.007Z"/></svg><svg viewBox="0 0 20 20" id="social-wa-light1" xmlns="http://www.w3.org/2000/svg"><path d="M10.001 0c5.523 0 10 4.477 10 10s-4.477 10-10 10a9.951 9.951 0 0 1-5.03-1.355L.005 20l1.352-4.968A9.95 9.95 0 0 1 .001 10c0-5.523 4.477-10 10-10ZM6.593 5.3l-.2.008a1 1 0 0 0-.372.1 1.3 1.3 0 0 0-.294.228c-.12.113-.188.211-.261.306A2.73 2.73 0 0 0 4.9 7.62c.002.49.13.967.33 1.413.409.902 1.082 1.857 1.97 2.742.214.213.424.427.65.626a9.45 9.45 0 0 0 3.84 2.046l.568.087c.185.01.37-.004.556-.013a2 2 0 0 0 .833-.231c.13-.068.259-.141.383-.22 0 0 .042-.029.125-.09.135-.1.218-.171.33-.288.084-.087.154-.187.21-.302.078-.163.156-.474.188-.733.024-.198.017-.306.014-.373-.004-.107-.093-.218-.19-.265l-.582-.261s-.87-.379-1.402-.621a.502.502 0 0 0-.176-.041.48.48 0 0 0-.378.127c-.005-.002-.072.055-.795.931a.35.35 0 0 1-.368.13 1.4 1.4 0 0 1-.191-.066c-.124-.052-.167-.072-.252-.108a6 6 0 0 1-1.575-1.003c-.126-.11-.243-.23-.363-.346a6.3 6.3 0 0 1-1.02-1.268l-.059-.095a1 1 0 0 1-.102-.205c-.038-.147.061-.265.061-.265s.243-.266.356-.41c.11-.14.203-.276.263-.373.118-.19.155-.385.093-.536-.28-.684-.57-1.364-.868-2.041-.059-.134-.234-.23-.393-.249a3.001 3.001 0 0 0-.565-.012l.202-.007Z"/></svg><svg viewBox="0 0 812 163" id="step-line" xmlns="http://www.w3.org/2000/svg"><path d="M1 3.816c48.832 21.998 25.718 73.79 33.73 127.987 8.054 54.494 170.156 15.997 182.742 15.997 15.606 0 52.356 15.499 70.479-76.993 15.79-80.585 168.646-78.491 224.023-53.494 57.243 25.84 32.722 72.993 39.77 113.488 5.639 32.397 103.37 14.833 137.938 13.999C824.599 141.548 793.085 89.906 810 32.311"/></svg><svg viewBox="0 0 20 20" id="tooltip-q" xmlns="http://www.w3.org/2000/svg"><path d="M10 0c5.523 0 10 4.477 10 10s-4.477 10-10 10S0 15.523 0 10 4.477 0 10 0Zm0 14a1 1 0 1 0 0 2 1 1 0 0 0 0-2Zm0-9.5a3.625 3.625 0 0 0-3.625 3.625 1 1 0 0 0 2 0 1.625 1.625 0 1 1 2.23 1.51C9.929 9.905 9 10.597 9 11.75V12a1 1 0 1 0 2 0c0-.244.05-.366.261-.47l.087-.04A3.626 3.626 0 0 0 10 4.5Z"/></svg><svg viewBox="0 0 18 20" id="touch" xmlns="http://www.w3.org/2000/svg"><path fill-rule="evenodd" clip-rule="evenodd" d="M1.13.046c-.08.062-.077.058-.44.659C.177 1.55 0 1.887 0 2.013c0 .175.058.225.61.53.28.154.662.375.849.49.186.116.363.21.392.21.073 0 .189-.07.219-.131.04-.082.03-.183-.059-.602-.057-.268-.075-.4-.058-.412.039-.026.694-.173 1.177-.263a18.98 18.98 0 0 1 9.196.571c.166.053.348.097.404.097.134 0 .311-.096.37-.2.098-.18.022-.478-.153-.597-.153-.103-1.259-.425-2.11-.613A18.728 18.728 0 0 0 6.585.635a18.59 18.59 0 0 0-4.355.484 6.957 6.957 0 0 1-.485.099 17.763 17.763 0 0 1-.117-.54c-.1-.484-.117-.538-.183-.604A.24.24 0 0 0 1.13.046Zm5.6 3.294a1.568 1.568 0 0 0-.506.19c-.547.317-.823 1.052-.662 1.772.026.117.572 1.702 1.214 3.522l1.166 3.309-.058.08c-.254.354-.53.91-.612 1.235-.367 1.454.129 3.285 1.219 4.505.241.27.473.478.851.763.924.695 1.746 1.075 2.677 1.235.398.069 1.124.063 1.572-.013.772-.131 1.695-.461 2.297-.821 1.123-.672 1.734-1.581 1.988-2.962.115-.627.145-1.001.113-1.4-.093-1.133-.645-3.39-1.415-5.782-.18-.562-.225-.652-.418-.849a1.208 1.208 0 0 0-.903-.372c-.29.001-.488.076-.81.31l-.062.045-.087-.157a1.536 1.536 0 0 0-.781-.67c-.505-.192-1.161.024-1.499.494a1.84 1.84 0 0 0-.093.139c-.011.022-.065-.019-.168-.126a1.24 1.24 0 0 0-.89-.398c-.439 0-.919.305-1.126.713a.63.63 0 0 1-.082.137c-.006 0-.326-.859-.71-1.907a93.887 93.887 0 0 0-.793-2.12c-.262-.586-.862-.954-1.422-.872Zm-.169.75c-.267.141-.418.39-.44.725-.006.098.002.236.018.306s.786 2.281 1.712 4.914c.989 2.81 1.684 4.82 1.684 4.871 0 .193-.126.323-.312.323-.188 0-.203-.03-.627-1.232a51.7 51.7 0 0 0-.394-1.099c-.036-.04-.312.564-.377.823-.342 1.38.434 3.331 1.733 4.352.848.667 1.643 1.054 2.493 1.212.34.064 1.037.063 1.42 0 .728-.123 1.625-.444 2.179-.78.913-.556 1.41-1.297 1.621-2.417.1-.525.143-.95.125-1.218-.07-1.022-.614-3.238-1.412-5.74-.109-.341-.14-.413-.226-.507-.124-.138-.279-.198-.505-.198-.203 0-.341.065-.53.247l-.118.116.128.394c.158.481.172.55.143.667-.042.168-.27.256-.4.155-.074-.056-.105-.128-.415-.975-.31-.84-.353-.916-.62-1.061a.552.552 0 0 0-.343-.087.552.552 0 0 0-.343.087.849.849 0 0 0-.405.48c-.052.153-.053.224-.008.696.012.133.007.157-.05.231-.121.16-.319.17-.444.022-.03-.034-.113-.24-.185-.457a4.245 4.245 0 0 0-.188-.489c-.162-.272-.398-.413-.655-.39-.275.022-.54.248-.625.529a1.221 1.221 0 0 0-.013.555c.041.14.195 1.082.195 1.197 0 .08-.018.125-.082.203-.074.09-.095.1-.203.1-.23 0-.145.192-1.309-2.98a863.213 863.213 0 0 0-1.117-3.036c-.087-.227-.27-.444-.454-.54a.692.692 0 0 0-.65 0Z"/></svg><svg viewBox="0 0 16 16" id="yandex_map" xmlns="http://www.w3.org/2000/svg"><path d="M8 1a6 6 0 0 0-4.244 10.242C4.843 12.328 7.4 13.9 7.55 15.55c.022.247.202.45.45.45s.428-.203.45-.45c.15-1.65 2.708-3.222 3.793-4.308A6 6 0 0 0 8 1Z"/><path d="M8 9.1a2.1 2.1 0 1 0 0-4.2 2.1 2.1 0 0 0 0 4.2Z"/></svg></svg>