<svg width="180" height="132" viewBox="0 0 180 132" fill="none" xmlns="http://www.w3.org/2000/svg">
<path fill-rule="evenodd" clip-rule="evenodd" d="M120.691 0.678381C124.723 1.73252 128.104 3.66893 131.437 6.83134C136.41 11.5507 138.775 16.1821 139.757 23.1264C140.806 30.5436 141.14 30.3056 122.499 35.4274C114.319 37.6751 101.303 41.1906 93.5739 43.2401L79.521 46.9662L77.6488 46.2574C76.619 45.8676 73.4657 44.0093 70.6413 42.1276C67.736 40.1924 64.8535 38.5853 64.0041 38.4274C62.9349 38.2285 61.3568 38.4706 58.5211 39.2686C46.2745 42.7147 37.9767 44.8406 36.7743 44.8406C35.1075 44.8406 34.5737 44.4328 32.468 41.5516C28.8489 36.6 23.225 32.494 17.6267 30.7163C16.4862 30.3541 13.7128 29.7867 11.464 29.4558C7.68027 28.8987 6.64299 28.6146 7.0851 28.2549C7.1805 28.178 10.8975 27.1391 15.3456 25.9468C19.7938 24.7545 23.9931 23.6124 24.6774 23.4089C25.3617 23.205 30.3076 21.8622 35.6682 20.4245C41.0288 18.9868 48.9608 16.8464 53.2949 15.6686C57.629 14.4907 68.7339 11.5071 77.9723 9.03869C87.2108 6.56986 96.8226 3.99989 99.3318 3.3277C112.6 -0.226514 115.742 -0.616264 120.691 0.678381ZM15.553 31.904C20.4636 33.2686 22.8115 34.46 23.9512 36.165C25.0511 37.8107 25.105 38.9339 24.2527 42.4433C23.12 47.1072 22.646 48.2662 21.3416 49.5588C19.9244 50.9636 17.0262 51.8298 13.743 51.8298C11.958 51.8298 11.6228 51.6609 9.86847 49.877C4.59372 44.513 0 37.9213 0 35.7156C0 34.4736 1.25046 32.9315 2.95755 32.0681C4.03134 31.525 5.7206 31.201 8.18253 31.0662C11.2197 30.8997 12.4362 31.0378 15.553 31.904ZM142.841 33.2077C144.231 37.5472 145.577 45.4532 145.574 49.2574C145.572 52.4712 144.504 58.7726 143.531 61.3105C141.961 65.4074 139.082 68.0493 134.66 69.4504C133.25 69.8973 128.364 71.2174 123.802 72.3842C119.24 73.551 103.7 77.7285 89.27 81.6671C60.3887 89.5509 59.7235 89.7211 59.7235 89.2142C59.7235 89.0206 60.1096 87.8908 60.5816 86.7034C64.8809 75.892 64.0647 63.2144 58.1143 48.3718C56.9439 45.4524 56.0542 42.9959 56.1376 42.9137C56.6701 42.3858 61.2344 41.1405 62.6371 41.1405C64.6888 41.1405 66.0086 41.7835 68.7936 44.1401C69.9644 45.1305 71.995 46.4708 73.3064 47.1187C75.3814 48.1432 76.2574 48.3155 80.0461 48.4438C84.8468 48.6062 84.8866 48.5979 97.222 44.8875C101.08 43.7269 109.572 41.3752 116.093 39.6621C131.295 35.6679 141.038 33.0445 141.91 32.7107C142.367 32.5355 142.679 32.702 142.841 33.2077ZM29.4561 41.8299C31.4523 44.0842 31.8048 45.3508 32.0674 51.2131C32.5908 62.9131 35.2207 71.1693 41.1167 79.6238C43.747 83.3955 45.4463 84.7617 47.802 84.9989C52.6902 85.491 54.7387 81.568 54.744 71.703C54.7482 64.9777 53.3053 58.9304 49.7231 50.6548C48.6083 48.0787 47.6958 45.8434 47.6958 45.6876C47.6958 45.2374 50.5311 44.0184 51.5779 44.0184C53.0428 44.0184 54.1933 45.5675 56.0306 50.0135C58.0023 54.7854 59.4821 60.1145 60.1689 64.9185C60.7915 69.2724 60.4667 78.228 59.546 82.1029C58.1201 88.1058 54.6988 91.6465 49.9479 92.037C46.6046 92.3121 44.431 91.3241 40.7347 87.8505C33.2826 80.8457 29.1384 72.4512 26.922 59.8686C26.4193 57.0142 26.6309 43.2948 27.209 41.2433C27.5645 39.9836 27.8975 40.0707 29.4561 41.8299ZM41.8077 47.3091C43.1432 47.867 46.9605 55.8885 48.3395 61.0354C49.507 65.3926 50.1225 71.3358 49.7443 74.6014C49.58 76.0178 49.23 76.8372 48.5577 77.3766C46.9277 78.6852 45.9025 78.3468 43.409 75.677C39.3934 71.3778 37.3185 66.0701 35.8893 56.4431C35.1145 51.2255 35.4301 48.9836 37.092 47.9044C38.3545 47.0846 40.5933 46.8017 41.8077 47.3091ZM42.0155 55.1291C43.7508 56.4818 45.3102 60.2461 45.5325 63.6169C45.7503 66.9179 45.3957 69.5084 44.7263 69.5084C43.8466 69.5084 41.4547 66.4204 40.6029 64.1851C39.1454 60.3608 39.0214 54.2966 40.4005 54.2966C40.7016 54.2966 41.4286 54.6711 42.0155 55.1291ZM179.354 75.767C179.922 76.5708 180 79.8565 180 103.127C180 126.029 179.915 129.737 179.367 130.787L178.735 132H170.533C164.707 132 162.187 131.857 161.834 131.507C161.115 130.793 161.115 76.0597 161.834 75.3464C162.187 74.9961 164.705 74.8531 170.52 74.8531C178.512 74.8531 178.724 74.8749 179.354 75.767ZM125.557 75.7781C125.781 76.061 126.088 76.7545 126.241 77.3198C128.241 84.7239 129.401 89.3672 129.401 89.9752C129.401 90.6351 129.095 90.7013 126.729 90.552C120.427 90.1541 114.88 92.1641 110.48 96.4406C109.021 97.859 107.756 98.9008 107.67 98.7561C107.494 98.4589 104.483 87.7 103.666 84.4451C102.787 80.9456 103.078 80.7301 112.043 78.2366C124.114 74.879 124.756 74.7622 125.557 75.7781ZM127.327 93.4057C132.344 94.2119 137.427 97.8672 139.517 102.171C142.577 108.475 141.567 116.27 137.041 121.26C133.438 125.233 126.897 127.547 121.839 126.638C112.842 125.021 106.919 117.483 107.507 108.397C107.978 101.133 113.898 94.7575 121.473 93.3559C123.979 92.8926 124.144 92.8938 127.327 93.4057ZM158.103 104.146C158.467 104.782 158.633 107.023 158.636 111.329C158.642 119.822 159.112 119.387 149.678 119.602L142.585 119.763L142.813 118.584C142.939 117.936 143.265 114.214 143.538 110.313L144.036 103.221H150.805C157.392 103.221 157.589 103.246 158.103 104.146ZM126.912 104.767C128.931 105.84 130.389 108.747 129.984 110.892C129.423 113.869 125.931 116.122 123.007 115.395C121.303 114.971 119.494 113.142 119.007 111.352C117.748 106.715 122.745 102.552 126.912 104.767Z" fill="#E7E7E7"/>
</svg>
