<svg width="132" height="42" viewBox="0 0 132 42" fill="none" xmlns="http://www.w3.org/2000/svg">
<g clip-path="url(#clip0_2009_64)">
<path fill-rule="evenodd" clip-rule="evenodd" d="M131.792 0.717829H113.498C107.317 0.717829 102.26 5.76761 102.26 11.9399V28.3247H120.554C126.735 28.3247 131.792 23.2748 131.792 17.1027V0.717829ZM121.311 23.6386C124.794 23.6654 127.089 20.9176 127.089 18.4924V5.72017L124.653 8.15323V18.1236C124.653 19.6083 123.401 21.2072 121.344 21.1914L110.336 21.2057L107.9 23.6386H121.311Z" fill="#922898"/>
<path d="M58.7866 26.1946C56.4171 26.1946 54.2813 25.6916 52.3797 24.6849C50.4781 23.6786 48.9938 22.2768 47.9256 20.4794C46.8577 18.682 46.324 16.6475 46.324 14.3757C46.324 12.1042 46.8577 10.0765 47.9256 8.29365C48.9938 6.51073 50.4781 5.11605 52.3797 4.10969C54.2813 3.10298 56.4171 2.60014 58.7866 2.60014C61.1857 2.60014 63.336 3.10298 65.2376 4.10969C67.1393 5.11605 68.6242 6.51073 69.6917 8.29365C70.7596 10.0765 71.2937 12.1042 71.2937 14.3757C71.2937 16.6475 70.7596 18.682 69.6917 20.4794C68.6242 22.2768 67.1393 23.6786 65.2376 24.6849C63.336 25.6916 61.1857 26.1946 58.7866 26.1946ZM58.5362 21.3537C60.5549 21.3537 62.73 20.6924 64.0469 19.3696C65.3635 18.0468 66.0215 16.5323 66.0215 14.3757C66.0215 12.2193 65.3635 10.7695 64.0469 9.44653C62.73 8.12372 60.5549 7.4622 58.5362 7.4622C56.5178 7.4622 54.8571 8.12423 53.5555 9.44653C52.2538 10.7695 51.6026 12.2193 51.6026 14.3757C51.6026 16.5323 52.2538 18.047 53.5555 19.3696C54.8571 20.6917 56.5178 21.3537 58.5362 21.3537Z" fill="#922898"/>
<path d="M25.2634 3.06367H35.2365C37.8354 3.06367 39.8982 3.68545 41.4252 4.929C42.9518 6.17255 43.7153 8.02697 43.7153 10.4925C43.7153 12.9145 42.9573 14.7473 41.4415 15.9907C39.9253 17.2344 37.944 17.8562 35.4967 17.8562H30.2988V26.1604H25.2634V3.06367ZM30.2988 7.74137V13.105H34.8143C37.4564 13.105 38.7774 12.0779 38.7774 10.5573C38.7774 8.90532 37.4672 7.74137 34.8466 7.74137H30.2988Z" fill="#922898"/>
<path d="M22.7463 3.06709L19.5099 7.74692H13.1149V26.102H8.2588V7.7211H0.123047L3.45909 3.06709H22.7463Z" fill="#922898"/>
<path fill-rule="evenodd" clip-rule="evenodd" d="M89.0728 2.87772L86.1067 8.00766H81.1538C80.7157 8.00766 79.4527 8.44765 79.448 9.75138C79.4409 11.7433 81.3632 11.6109 82.7972 11.8109C84.015 11.9843 85.5512 12.3768 86.5814 12.9702C88.802 14.2489 89.7331 16.4348 89.6412 18.8693C89.5791 20.5179 88.954 22.2749 87.9764 23.4376C86.6975 24.9576 84.6757 26.0484 82.1049 26.0141L71.3464 25.8705L74.0889 21.1271H82.1508C83.6686 21.1271 84.4518 20.1836 84.4972 18.8637C84.579 16.5006 82.3801 16.5533 80.7415 16.1485C78.2732 15.5377 74.4411 13.7801 74.4503 9.95814C74.4612 5.52645 78.1283 2.87297 81.7826 2.87466L89.0728 2.87772Z" fill="#922898"/>
<path d="M5.69116 37.333C5.63944 38.0504 5.375 38.6148 4.89583 39.0275C4.41839 39.4386 3.78744 39.645 3.00486 39.645C2.14845 39.645 1.47535 39.3574 0.983718 38.7804C0.493808 38.2052 0.247925 37.4143 0.247925 36.409V36.0011C0.247925 35.3601 0.360726 34.7944 0.587654 34.305C0.813123 33.8173 1.13721 33.4422 1.55674 33.181C1.97786 32.92 2.46631 32.7887 3.02196 32.7887C3.79382 32.7887 4.41374 32.9951 4.88484 33.4061C5.3562 33.8189 5.62859 34.3973 5.70056 35.1429H4.32453C4.29169 34.7114 4.17105 34.3987 3.96454 34.205C3.75934 34.0111 3.44468 33.9142 3.02196 33.9142C2.56333 33.9142 2.22042 34.0783 1.99349 34.4066C1.76498 34.7348 1.64913 35.2445 1.6429 35.9354V36.4388C1.6429 37.1594 1.75093 37.6863 1.97003 38.0192C2.18927 38.3522 2.53351 38.5194 3.00486 38.5194C3.42904 38.5194 3.74675 38.4225 3.9566 38.2302C4.16481 38.0364 4.28531 37.7378 4.31673 37.333H5.69116ZM8.7955 39.645C8.06753 39.645 7.47424 39.4214 7.01706 38.9759C6.56002 38.5304 6.33138 37.9363 6.33138 37.1938V37.0656C6.33138 36.5685 6.42839 36.123 6.621 35.7305C6.8136 35.3382 7.08598 35.035 7.43977 34.824C7.79356 34.6113 8.19583 34.5052 8.64837 34.5052C9.32771 34.5052 9.86161 34.7192 10.2513 35.146C10.6412 35.5744 10.8353 36.1808 10.8353 36.9656V37.5064H7.67625C7.71839 37.8301 7.84843 38.0879 8.06288 38.2834C8.27894 38.4788 8.55135 38.5756 8.88166 38.5756C9.39357 38.5756 9.7911 38.3913 10.0791 38.0238L10.7305 38.7523C10.5317 39.0322 10.2623 39.2525 9.92273 39.409C9.58445 39.5669 9.20721 39.645 8.7955 39.645ZM8.64362 35.5744C8.38063 35.5744 8.16774 35.6635 8.00336 35.8416C7.84062 36.0198 7.73563 36.2747 7.6903 36.6061H9.5329V36.4998C9.52652 36.2059 9.44831 35.9777 9.29483 35.8167C9.14145 35.6556 8.9254 35.5744 8.64362 35.5744ZM16.0531 37.1203C16.0531 37.8848 15.8793 38.496 15.5318 38.9555C15.1858 39.4152 14.7162 39.645 14.1261 39.645C13.625 39.645 13.2197 39.4715 12.9112 39.123V41.4551H11.5852V34.5989H12.8141L12.8611 35.0836C13.182 34.6973 13.6001 34.5052 14.1183 34.5052C14.7288 34.5052 15.2046 34.7318 15.5444 35.1835C15.8825 35.6353 16.0531 36.2575 16.0531 37.0515V37.1203ZM14.7272 37.0204C14.7272 36.5575 14.6456 36.2011 14.4813 35.9511C14.3185 35.6993 14.0806 35.5744 13.7691 35.5744C13.3526 35.5744 13.0678 35.7337 12.9112 36.0511V38.0849C13.0724 38.4115 13.362 38.5756 13.7785 38.5756C14.4109 38.5756 14.7272 38.0568 14.7272 37.0204ZM16.9612 39.5511V34.5989H19.0339C19.7102 34.5989 20.2283 34.7176 20.5883 34.9553C20.9501 35.1945 21.1301 35.5352 21.1301 35.9809C21.1301 36.209 21.0549 36.4154 20.903 36.5967C20.7512 36.778 20.5304 36.9172 20.2408 37.0141C20.5947 37.0813 20.8749 37.2142 21.0768 37.4111C21.2803 37.6081 21.3821 37.8489 21.3821 38.1365C21.3821 38.5976 21.2083 38.9478 20.8625 39.1901C20.5148 39.4308 20.0107 39.5511 19.3502 39.5511H16.9612ZM18.2871 37.497V38.4913H19.3548C19.8229 38.4913 20.0578 38.3288 20.0578 38.0036C20.0578 37.6722 19.8339 37.5034 19.3877 37.497H18.2871ZM18.2871 36.6061H19.1075C19.5725 36.5998 19.8056 36.4513 19.8056 36.1621C19.8056 35.9839 19.7415 35.8572 19.6146 35.7806C19.4879 35.7057 19.2937 35.6681 19.0339 35.6681H18.2871V36.6061ZM25.1799 34.5989H26.506V39.5511H25.1799V36.4935L23.5205 39.5511H22.1898V34.5989H23.5205V37.6519L25.1799 34.5989ZM29.5806 38.5756C29.8248 38.5756 30.0236 38.5084 30.1771 38.3741C30.3305 38.2396 30.4087 38.0614 30.4149 37.8379H31.658C31.6548 38.1741 31.564 38.4819 31.3825 38.7617C31.2024 39.0416 30.9566 39.2589 30.642 39.4136C30.3289 39.5683 29.9829 39.645 29.6041 39.645C28.8949 39.645 28.3345 39.4198 27.9244 38.9697C27.5158 38.5194 27.3107 37.8973 27.3107 37.1031V37.0156C27.3107 36.2511 27.5142 35.6431 27.9212 35.1881C28.3265 34.7333 28.8855 34.5052 29.5947 34.5052C30.2146 34.5052 30.7125 34.6817 31.0867 35.0334C31.4623 35.3852 31.6518 35.8542 31.658 36.4403H30.4149C30.4087 36.1839 30.3305 35.9745 30.1771 35.815C30.0236 35.654 29.8217 35.5744 29.5712 35.5744C29.2628 35.5744 29.0296 35.6869 28.8715 35.9104C28.715 36.1356 28.6366 36.4998 28.6366 37.0047V37.1407C28.6366 37.6519 28.7134 38.0176 28.8699 38.2412C29.0264 38.4647 29.2628 38.5756 29.5806 38.5756ZM36.7193 39.5511H35.3902V37.6471H33.7431V39.5511H32.4172V34.5989H33.7431V36.5779H35.3902V34.5989H36.7193V39.5511ZM37.5378 37.0297C37.5378 36.5373 37.6335 36.0996 37.8228 35.7151C38.0122 35.3304 38.2847 35.0318 38.6417 34.8209C38.9969 34.6097 39.4102 34.5052 39.8816 34.5052C40.5518 34.5052 41.0981 34.7099 41.5222 35.1194C41.9451 35.5275 42.1812 36.084 42.2298 36.7859L42.2393 37.1251C42.2393 37.8863 42.0265 38.496 41.602 38.9555C41.1761 39.4152 40.6064 39.645 39.8907 39.645C39.1754 39.645 38.604 39.4152 38.1781 38.9571C37.7509 38.4991 37.5378 37.8769 37.5378 37.0891V37.0297ZM38.8639 37.1235C38.8639 37.5939 38.9515 37.9536 39.1303 38.2021C39.3071 38.4507 39.5606 38.5756 39.8907 38.5756C40.2121 38.5756 40.4622 38.4523 40.6424 38.2068C40.8239 37.9614 40.9131 37.5674 40.9131 37.0266C40.9131 36.5654 40.8239 36.2074 40.6424 35.9543C40.4622 35.7009 40.2087 35.5744 39.8816 35.5744C39.5575 35.5744 39.3071 35.7009 39.1303 35.9527C38.9515 36.2043 38.8639 36.5951 38.8639 37.1235ZM45.6363 37.2344H43.0533V36.1652H45.6363V37.2344ZM50.8179 35.6681H49.2278V39.5511H47.8969V35.6681H46.333V34.5989H50.8179V35.6681ZM51.1375 37.0297C51.1375 36.5373 51.2329 36.0996 51.4226 35.7151C51.6119 35.3304 51.8844 35.0318 52.2414 34.8209C52.5963 34.6097 53.01 34.5052 53.481 34.5052C54.1511 34.5052 54.6975 34.7099 55.1216 35.1194C55.5444 35.5275 55.781 36.084 55.8295 36.7859L55.8386 37.1251C55.8386 37.8863 55.6259 38.496 55.2014 38.9555C54.7755 39.4152 54.2058 39.645 53.4905 39.645C52.7752 39.645 52.2037 39.4152 51.7779 38.9571C51.3503 38.4991 51.1375 37.8769 51.1375 37.0891V37.0297ZM52.4637 37.1235C52.4637 37.5939 52.5512 37.9536 52.7297 38.2021C52.9065 38.4507 53.16 38.5756 53.4905 38.5756C53.8115 38.5756 54.0619 38.4523 54.2418 38.2068C54.4233 37.9614 54.5125 37.5674 54.5125 37.0266C54.5125 36.5654 54.4233 36.2074 54.2418 35.9543C54.0619 35.7009 53.8081 35.5744 53.481 35.5744C53.1569 35.5744 52.9065 35.7009 52.7297 35.9527C52.5512 36.2043 52.4637 36.5951 52.4637 37.1235ZM61.1254 37.1203C61.1254 37.8848 60.9517 38.496 60.6042 38.9555C60.2581 39.4152 59.7885 39.645 59.1984 39.645C58.6975 39.645 58.292 39.4715 57.9836 39.123V41.4551H56.6575V34.5989H57.8865L57.9333 35.0836C58.2544 34.6973 58.6724 34.5052 59.1906 34.5052C59.801 34.5052 60.2771 34.7318 60.6168 35.1835C60.9548 35.6353 61.1254 36.2575 61.1254 37.0515V37.1203ZM59.7993 37.0204C59.7993 36.5575 59.7182 36.2011 59.5537 35.9511C59.3908 35.6993 59.1529 35.5744 58.8414 35.5744C58.425 35.5744 58.14 35.7337 57.9836 36.0511V38.0849C58.1447 38.4115 58.4345 38.5756 58.8509 38.5756C59.4831 38.5756 59.7993 38.0568 59.7993 37.0204ZM65.3257 35.6681H63.2717V39.5511H61.9456V34.5989H65.3257V35.6681ZM65.5809 37.0297C65.5809 36.5373 65.6762 36.0996 65.8659 35.7151C66.0553 35.3304 66.3277 35.0318 66.6847 34.8209C67.04 34.6097 67.4533 34.5052 67.9243 34.5052C68.5945 34.5052 69.1408 34.7099 69.565 35.1194C69.9878 35.5275 70.2239 36.084 70.2728 36.7859L70.282 37.1251C70.282 37.8863 70.0692 38.496 69.6447 38.9555C69.2192 39.4152 68.6491 39.645 67.9338 39.645C67.2185 39.645 66.647 39.4152 66.2212 38.9571C65.794 38.4991 65.5809 37.8769 65.5809 37.0891V37.0297ZM66.907 37.1235C66.907 37.5939 66.9945 37.9536 67.173 38.2021C67.3501 38.4507 67.6033 38.5756 67.9338 38.5756C68.2548 38.5756 68.5052 38.4523 68.6851 38.2068C68.8666 37.9614 68.9562 37.5674 68.9562 37.0266C68.9562 36.5654 68.8666 36.2074 68.6851 35.9543C68.5052 35.7009 68.2517 35.5744 67.9243 35.5744C67.6002 35.5744 67.3501 35.7009 67.173 35.9527C66.9945 36.2043 66.907 36.5951 66.907 37.1235ZM71.1887 39.5511V34.5989H73.2613C73.9376 34.5989 74.4557 34.7176 74.8158 34.9553C75.1775 35.1945 75.3577 35.5352 75.3577 35.9809C75.3577 36.209 75.2824 36.4154 75.1303 36.5967C74.9787 36.778 74.7578 36.9172 74.4683 37.0141C74.8222 37.0813 75.1025 37.2142 75.3044 37.4111C75.5077 37.6081 75.6095 37.8489 75.6095 38.1365C75.6095 38.5976 75.4357 38.9478 75.09 39.1901C74.7421 39.4308 74.2382 39.5511 73.5776 39.5511H71.1887ZM72.5144 37.497V38.4913H73.5823C74.0502 38.4913 74.2851 38.3288 74.2851 38.0036C74.2851 37.6722 74.0614 37.5034 73.6149 37.497H72.5144ZM72.5144 36.6061H73.3349C73.7998 36.5998 74.0329 36.4513 74.0329 36.1621C74.0329 35.9839 73.9688 35.8572 73.8422 35.7806C73.7153 35.7057 73.5212 35.6681 73.2613 35.6681H72.5144V36.6061ZM79.2933 39.5511C79.2322 39.4324 79.1881 39.2854 79.1599 39.1088C78.8389 39.4667 78.4212 39.645 77.9074 39.645C77.4222 39.645 77.0184 39.5043 76.6991 39.2229C76.3798 38.9415 76.2199 38.5866 76.2199 38.1583C76.2199 37.6331 76.4157 37.2298 76.8056 36.9484C77.1952 36.667 77.7588 36.5247 78.4948 36.5217H79.1053V36.2403C79.1053 36.0121 79.0455 35.8306 78.9285 35.6947C78.8111 35.5586 78.6244 35.4899 78.371 35.4899C78.1487 35.4899 77.9733 35.543 77.8467 35.6478C77.7198 35.7525 77.6556 35.8979 77.6556 36.0808H76.3312C76.3312 35.7948 76.4188 35.529 76.5956 35.2866C76.7744 35.0428 77.0245 34.8521 77.3489 34.713C77.6729 34.5738 78.036 34.5052 78.4398 34.5052C79.052 34.5052 79.5372 34.6583 79.8959 34.9647C80.2559 35.2726 80.4358 35.7025 80.4358 36.2589V38.4069C80.4388 38.8758 80.5047 39.2323 80.6329 39.473V39.5511H79.2933ZM78.1972 38.632C78.393 38.632 78.5729 38.5882 78.7388 38.5022C78.903 38.4147 79.0255 38.2974 79.1053 38.1521V37.3002H78.6105C77.9468 37.3002 77.5929 37.5284 77.5508 37.9864L77.546 38.0645C77.546 38.2287 77.6037 38.3647 77.7198 38.4725C77.8355 38.5788 77.9953 38.632 78.1972 38.632ZM85.5896 34.5989V39.5511H84.2696V37.8442H83.4307L82.4759 39.5511H81.1324L82.2142 37.6191C81.9183 37.4816 81.6899 37.2955 81.5288 37.0593C81.3689 36.8249 81.2875 36.5575 81.2875 36.2575C81.2875 35.7775 81.4738 35.3852 81.8447 35.0772C82.2173 34.7708 82.7151 34.6113 83.3384 34.5989H85.5896ZM83.3618 36.9156H84.2696V35.6681H83.407C83.1725 35.6681 82.9815 35.7291 82.8342 35.8526C82.6869 35.9761 82.6133 36.1246 82.6133 36.3013C82.6133 36.4763 82.6839 36.6233 82.8247 36.7374C82.9655 36.853 83.144 36.9125 83.3618 36.9156ZM90.9873 37.7222H90.4566V39.5511H89.1308V34.5989H90.4566V36.456H90.9279L92.0111 34.5989H93.6847L92.0613 36.9514L93.8367 39.5511H92.0708L90.9873 37.7222ZM93.8662 37.0297C93.8662 36.5373 93.9615 36.0996 94.1512 35.7151C94.3406 35.3304 94.6127 35.0318 94.9697 34.8209C95.3253 34.6097 95.7386 34.5052 96.2096 34.5052C96.8798 34.5052 97.4261 34.7099 97.8503 35.1194C98.2731 35.5275 98.5093 36.084 98.5581 36.7859L98.5673 37.1251C98.5673 37.8863 98.3545 38.496 97.93 38.9555C97.5045 39.4152 96.9344 39.645 96.2191 39.645C95.5038 39.645 94.9324 39.4152 94.5065 38.9571C94.079 38.4991 93.8662 37.8769 93.8662 37.0891V37.0297ZM95.1923 37.1235C95.1923 37.5939 95.2798 37.9536 95.4583 38.2021C95.6351 38.4507 95.889 38.5756 96.2191 38.5756C96.5401 38.5756 96.7906 38.4523 96.9704 38.2068C97.1519 37.9614 97.2415 37.5674 97.2415 37.0266C97.2415 36.5654 97.1519 36.2074 96.9704 35.9543C96.7906 35.7009 96.5367 35.5744 96.2096 35.5744C95.8856 35.5744 95.6351 35.7009 95.4583 35.9527C95.2798 36.2043 95.1923 36.5951 95.1923 37.1235ZM102.409 37.991L103.707 34.5989H105.368V39.5511H104.042V36.5123L102.854 39.5511H101.965L100.8 36.5623V39.5511H99.4736V34.5989H101.121L102.409 37.991ZM110.835 39.5511H109.504V35.6681H107.845V39.5511H106.519V34.5989H110.835V39.5511ZM114.723 39.5511C114.662 39.4324 114.618 39.2854 114.59 39.1088C114.269 39.4667 113.851 39.645 113.338 39.645C112.852 39.645 112.449 39.5043 112.129 39.2229C111.81 38.9415 111.65 38.5866 111.65 38.1583C111.65 37.6331 111.846 37.2298 112.236 36.9484C112.625 36.667 113.189 36.5247 113.925 36.5217H114.536V36.2403C114.536 36.0121 114.476 35.8306 114.358 35.6947C114.241 35.5586 114.055 35.4899 113.801 35.4899C113.579 35.4899 113.404 35.543 113.277 35.6478C113.15 35.7525 113.086 35.8979 113.086 36.0808H111.762C111.762 35.7948 111.849 35.529 112.026 35.2866C112.204 35.0428 112.455 34.8521 112.779 34.713C113.103 34.5738 113.466 34.5052 113.87 34.5052C114.482 34.5052 114.968 34.6583 115.326 34.9647C115.686 35.2726 115.866 35.7025 115.866 36.2589V38.4069C115.869 38.8758 115.935 39.2323 116.064 39.473V39.5511H114.723ZM113.628 38.632C113.823 38.632 114.003 38.5882 114.169 38.5022C114.334 38.4147 114.455 38.2974 114.536 38.1521V37.3002H114.041C113.377 37.3002 113.023 37.5284 112.981 37.9864L112.976 38.0645C112.976 38.2287 113.034 38.3647 113.15 38.4725C113.266 38.5788 113.426 38.632 113.628 38.632ZM121.186 39.5511H119.857V37.6471H118.21V39.5511H116.884V34.5989H118.21V36.5779H119.857V34.5989H121.186V39.5511ZM125.203 34.5989H126.529V39.5511H125.203V36.4935L123.543 39.5511H122.213V34.5989H123.543V37.6519L125.203 34.5989ZM131.678 34.5989V39.5511H130.358V37.8442H129.519L128.564 39.5511H127.221L128.303 37.6191C128.007 37.4816 127.778 37.2955 127.617 37.0593C127.457 36.8249 127.376 36.5575 127.376 36.2575C127.376 35.7775 127.562 35.3852 127.933 35.0772C128.306 34.7708 128.803 34.6113 129.426 34.5989H131.678ZM129.45 36.9156H130.358V35.6681H129.495C129.261 35.6681 129.069 35.7291 128.922 35.8526C128.775 35.9761 128.702 36.1246 128.702 36.3013C128.702 36.4763 128.772 36.6233 128.913 36.7374C129.054 36.853 129.232 36.9125 129.45 36.9156Z" fill="#922898"/>
</g>
<defs>
<clipPath id="clip0_2009_64">
<rect width="132" height="41" fill="white" transform="translate(0 0.5)"/>
</clipPath>
</defs>
</svg>
