<svg width="330" height="230" viewBox="0 0 330 230" fill="none" xmlns="http://www.w3.org/2000/svg">
<rect width="330" height="230" rx="7.61135" fill="#25354C"/>
<path d="M165.5 149.646C173.261 149.646 179.858 146.931 185.292 141.5C190.727 136.07 193.442 129.473 193.438 121.708C193.434 113.944 190.719 107.348 185.292 101.922C179.866 96.4963 173.269 93.7791 165.5 93.7708C157.732 93.7626 151.136 96.4797 145.714 101.922C140.292 107.365 137.575 113.96 137.563 121.708C137.55 129.456 140.268 136.054 145.714 141.5C151.161 146.947 157.756 149.662 165.5 149.646ZM165.5 137.229C161.154 137.229 157.481 135.729 154.481 132.728C151.48 129.727 149.979 126.054 149.979 121.708C149.979 117.362 151.48 113.689 154.481 110.689C157.481 107.688 161.154 106.187 165.5 106.187C169.846 106.187 173.519 107.688 176.52 110.689C179.521 113.689 181.021 117.362 181.021 121.708C181.021 126.054 179.521 129.727 176.52 132.728C173.519 135.729 169.846 137.229 165.5 137.229ZM115.834 171.375C112.419 171.375 109.497 170.16 107.067 167.731C104.638 165.301 103.421 162.377 103.417 158.958V84.4583C103.417 81.0437 104.634 78.1217 107.067 75.6922C109.501 73.2626 112.423 72.0458 115.834 72.0417H135.39L143.15 63.6604C144.289 62.4188 145.661 61.4358 147.266 60.7115C148.872 59.9872 150.553 59.625 152.308 59.625H178.693C180.452 59.625 182.135 59.9872 183.74 60.7115C185.346 61.4358 186.716 62.4188 187.85 63.6604L195.611 72.0417H215.167C218.582 72.0417 221.506 73.2585 223.939 75.6922C226.373 78.1258 227.588 81.0479 227.584 84.4583V158.958C227.584 162.373 226.369 165.297 223.939 167.731C221.51 170.164 218.586 171.379 215.167 171.375H115.834Z" fill="#D8D5D8"/>
</svg>
