<svg width="61" height="61" viewBox="0 0 61 61" fill="none" xmlns="http://www.w3.org/2000/svg">
<path d="M47.1666 27.0833V33.9333C47.1666 34.3229 47.0899 34.7087 46.9408 35.0686C46.7917 35.4286 46.5731 35.7556 46.2977 36.0311C46.0222 36.3066 45.6951 36.5251 45.3352 36.6742C44.9753 36.8233 44.5895 36.9 44.1999 36.9H36.8833V44.2167C36.8863 44.6044 36.8111 44.9887 36.6622 45.3466C36.5133 45.7046 36.2937 46.0288 36.0166 46.3C35.4573 46.853 34.7031 47.1642 33.9166 47.1667H27.0666C26.28 47.1642 25.5259 46.853 24.9666 46.3C24.4176 45.7448 24.1067 44.9974 24.0999 44.2167V36.9H16.7999C16.0131 36.9 15.2585 36.5874 14.7022 36.0311C14.1458 35.4747 13.8333 34.7201 13.8333 33.9333V27.0833C13.8333 26.2965 14.1458 25.5419 14.7022 24.9856C15.2585 24.4292 16.0131 24.1167 16.7999 24.1167H24.0999V16.8C24.1044 16.213 24.2809 15.6403 24.6076 15.1526C24.9344 14.665 25.397 14.2839 25.9383 14.0567C26.2964 13.9101 26.6796 13.8343 27.0666 13.8333H33.8333C34.6198 13.8358 35.3739 14.147 35.9333 14.7C36.2093 14.9754 36.4281 15.3028 36.5768 15.6632C36.7256 16.0237 36.8014 16.4101 36.7999 16.8V24.1167H44.1166C44.9033 24.1217 45.6566 24.4333 46.2166 24.9833C46.507 25.2523 46.7407 25.5766 46.9039 25.9373C47.067 26.298 47.1563 26.6876 47.1666 27.0833Z" fill="#4F74A4"/>
</svg>
