<svg width="40" height="40" viewBox="0 0 40 40" fill="none" xmlns="http://www.w3.org/2000/svg">
<path d="M37 20C37 20.341 36.8736 20.668 36.6485 20.9091C36.4235 21.1503 36.1183 21.2857 35.8 21.2857H33.2995C33.0137 23.0822 32.1444 24.7126 30.8453 25.8889C29.5462 27.0652 27.9009 27.7118 26.2 27.7143H20.2V31.5714H23.8C25.073 31.5714 26.2939 32.1133 27.1941 33.0777C28.0943 34.0422 28.6 35.3503 28.6 36.7143C28.6 37.0553 28.4736 37.3823 28.2485 37.6234C28.0235 37.8645 27.7183 38 27.4 38C27.0817 38 26.7765 37.8645 26.5515 37.6234C26.3264 37.3823 26.2 37.0553 26.2 36.7143C26.2 36.0323 25.9471 35.3782 25.4971 34.896C25.047 34.4138 24.4365 34.1429 23.8 34.1429H20.2V36.7143C20.2 37.0553 20.0736 37.3823 19.8485 37.6234C19.6235 37.8645 19.3183 38 19 38C18.6817 38 18.3765 37.8645 18.1515 37.6234C17.9264 37.3823 17.8 37.0553 17.8 36.7143V34.1429H14.2C13.5635 34.1429 12.953 34.4138 12.5029 34.896C12.0529 35.3782 11.8 36.0323 11.8 36.7143C11.8 37.0553 11.6736 37.3823 11.4485 37.6234C11.2235 37.8645 10.9183 38 10.6 38C10.2817 38 9.97652 37.8645 9.75147 37.6234C9.52643 37.3823 9.4 37.0553 9.4 36.7143C9.4 35.3503 9.90571 34.0422 10.8059 33.0777C11.7061 32.1133 12.927 31.5714 14.2 31.5714H17.8V27.7143H11.8C10.0991 27.7118 8.45378 27.0652 7.15468 25.8889C5.85559 24.7126 4.98634 23.0822 4.7005 21.2857H2.2C1.88174 21.2857 1.57652 21.1503 1.35147 20.9091C1.12643 20.668 1 20.341 1 20C1 19.659 1.12643 19.332 1.35147 19.0909C1.57652 18.8497 1.88174 18.7143 2.2 18.7143H5.8C6.11826 18.7143 6.42348 18.8497 6.64853 19.0909C6.87357 19.332 7 19.659 7 20C7 21.364 7.50571 22.6721 8.40589 23.6365C9.30606 24.601 10.527 25.1429 11.8 25.1429H26.2C27.473 25.1429 28.6939 24.601 29.5941 23.6365C30.4943 22.6721 31 21.364 31 20C31 19.659 31.1264 19.332 31.3515 19.0909C31.5765 18.8497 31.8817 18.7143 32.2 18.7143H35.8C36.1183 18.7143 36.4235 18.8497 36.6485 19.0909C36.8736 19.332 37 19.659 37 20ZM11.8 22.5714H26.2C26.5438 22.5714 26.8836 22.4923 27.1964 22.3394C27.5092 22.1864 27.7877 21.9633 28.013 21.685C28.2383 21.4067 28.4052 21.0798 28.5023 20.7265C28.5994 20.3731 28.6246 20.0015 28.576 19.6368L26.518 4.20821C26.434 3.59646 26.1481 3.03725 25.7122 2.63208C25.2762 2.22691 24.7191 2.00265 24.142 2H13.858C13.2809 2.00265 12.7238 2.22691 12.2878 2.63208C11.8519 3.03725 11.566 3.59646 11.482 4.20821L9.424 19.6368C9.37544 20.0015 9.40057 20.3731 9.49771 20.7265C9.59484 21.0798 9.76171 21.4067 9.987 21.685C10.2123 21.9633 10.4908 22.1864 10.8036 22.3394C11.1164 22.4923 11.4562 22.5714 11.8 22.5714Z" fill="#4F74A4"/>
</svg>
