<svg width="61" height="61" viewBox="0 0 61 61" fill="none" xmlns="http://www.w3.org/2000/svg">
<path d="M45.1666 31.8333C45.1666 40.66 39.3266 47.8333 30.4999 47.8333C21.6733 47.8333 15.8333 40.66 15.8333 31.8333C18.7793 31.8581 21.6449 32.7978 24.0336 34.5225C26.4222 36.2471 28.216 38.6714 29.1666 41.46V29.1666H22.4999C21.4391 29.1666 20.4216 28.7452 19.6715 27.9951C18.9213 27.2449 18.4999 26.2275 18.4999 25.1666V17.1666C18.4999 16.8868 18.588 16.614 18.7516 16.387C18.9152 16.16 19.1461 15.9902 19.4116 15.9017C19.6771 15.8132 19.9637 15.8105 20.2308 15.894C20.4979 15.9774 20.732 16.1428 20.8999 16.3666L24.9799 21.7L29.3799 13.7C29.5008 13.5128 29.6666 13.359 29.8623 13.2524C30.0579 13.1459 30.2771 13.0901 30.4999 13.0901C30.7227 13.0901 30.9419 13.1459 31.1376 13.2524C31.3332 13.359 31.499 13.5128 31.6199 13.7L36.0199 21.7L40.0999 16.3666C40.2678 16.1428 40.5019 15.9774 40.769 15.894C41.0361 15.8105 41.3227 15.8132 41.5882 15.9017C41.8537 15.9902 42.0846 16.16 42.2482 16.387C42.4119 16.614 42.4999 16.8868 42.4999 17.1666V25.1666C42.4999 26.2275 42.0785 27.2449 41.3283 27.9951C40.5782 28.7452 39.5608 29.1666 38.4999 29.1666H31.8333V41.46C32.7839 38.6714 34.5776 36.2471 36.9663 34.5225C39.3549 32.7978 42.2205 31.8581 45.1666 31.8333Z" fill="#4F74A4"/>
</svg>
