<svg width="40" height="40" viewBox="0 0 40 40" fill="none" xmlns="http://www.w3.org/2000/svg">
<g clip-path="url(#clip0_168_1341)">
<path fill-rule="evenodd" clip-rule="evenodd" d="M16.7164 2.45941C16.9293 2.53313 17.1256 2.6481 17.2941 2.79773C17.4625 2.94737 17.5998 3.12874 17.6981 3.33147C17.7964 3.5342 17.8537 3.75432 17.8669 3.97924C17.88 4.20416 17.8487 4.42946 17.7747 4.64227C17.1166 6.53843 17.204 8.6139 18.0193 10.448C18.2033 10.8638 18.2145 11.3358 18.0506 11.7599C17.8866 12.1841 17.5609 12.5257 17.145 12.7097C16.7291 12.8937 16.2572 12.9049 15.8331 12.741C15.4089 12.577 15.0673 12.2513 14.8833 11.8354C13.7167 9.20818 13.5917 6.23589 14.5336 3.51998C14.6068 3.30667 14.7215 3.10992 14.8709 2.94099C15.0204 2.77206 15.2017 2.63428 15.4044 2.53555C15.6072 2.43681 15.8275 2.37906 16.0526 2.3656C16.2778 2.35215 16.5033 2.38325 16.7164 2.45713V2.45941ZM11.3382 8.5897C11.4006 8.13928 11.2815 7.68251 11.0072 7.31987C10.7329 6.95723 10.3257 6.71842 9.87529 6.65598C9.42488 6.59354 8.96811 6.71259 8.60547 6.98693C8.24283 7.26127 8.00402 7.66843 7.94158 8.11884C7.72277 9.69298 8.08696 11.2928 8.96558 12.6171C9.09015 12.8047 9.25045 12.966 9.43733 13.0916C9.6242 13.2173 9.834 13.3049 10.0547 13.3495C10.2755 13.394 10.5028 13.3947 10.7238 13.3514C10.9448 13.3081 11.1551 13.2217 11.3427 13.0971C11.5303 12.9726 11.6916 12.8123 11.8172 12.6254C11.9429 12.4385 12.0305 12.2287 12.075 12.008C12.1196 11.7872 12.1203 11.5599 12.077 11.3389C12.0337 11.1179 11.9473 10.9076 11.8227 10.72C11.4068 10.0927 11.2345 9.33513 11.3382 8.5897ZM24.7896 11.8057C24.1649 11.6457 23.5099 11.6455 22.8851 11.8053C22.2604 11.9651 21.6859 12.2797 21.2147 12.72L21.1873 12.7474L12.2479 21.6868L12.2364 21.6983C11.7917 22.156 11.469 22.7181 11.298 23.333C11.1271 23.9479 11.1133 24.5959 11.258 25.2175C11.4028 25.8391 11.7013 26.4144 12.1262 26.8906C12.5512 27.3668 13.089 27.7286 13.6902 27.9428L27.9347 33.2526L27.9507 33.2594C28.6123 33.4938 29.3264 33.5377 30.0117 33.3859C30.697 33.2342 31.3258 32.893 31.8266 32.4013C32.3274 31.9096 32.68 31.287 32.8442 30.6046C33.0084 29.9222 32.9776 29.2074 32.7553 28.5417L27.4684 14.3086C27.2658 13.7008 26.9143 13.1535 26.446 12.7163C25.9777 12.2792 25.4075 11.9661 24.7873 11.8057H24.7896ZM8.49472 20.08C7.77448 19.914 7.01821 20.0224 6.37358 20.384C5.97651 20.6056 5.50769 20.6603 5.07025 20.5362C4.63281 20.4121 4.26258 20.1193 4.04101 19.7223C3.81944 19.3252 3.76468 18.8564 3.88878 18.4189C4.01287 17.9815 4.30566 17.6113 4.70272 17.3897C6.08634 16.6156 7.70802 16.3827 9.25358 16.736C9.69702 16.8366 10.0823 17.1093 10.3247 17.494C10.5671 17.8787 10.6468 18.344 10.5462 18.7874C10.4455 19.2309 10.1729 19.6162 9.78814 19.8586C9.40342 20.101 8.93817 20.1806 8.49472 20.08ZM3.43415 9.99998C2.82794 9.99998 2.24656 10.2408 1.81791 10.6695C1.38925 11.0981 1.14844 11.6795 1.14844 12.2857C1.14844 12.8919 1.38925 13.4733 1.81791 13.9019C2.24656 14.3306 2.82794 14.5714 3.43415 14.5714C4.04036 14.5714 4.62174 14.3306 5.0504 13.9019C5.47905 13.4733 5.71987 12.8919 5.71987 12.2857C5.71987 11.6795 5.47905 11.0981 5.0504 10.6695C4.62174 10.2408 4.04036 9.99998 3.43415 9.99998Z" fill="#4F74A4"/>
</g>
<defs>
<clipPath id="clip0_168_1341">
<rect width="32" height="32" fill="white" transform="translate(1 2)"/>
</clipPath>
</defs>
</svg>
