<svg width="45" height="45" viewBox="0 0 45 45" fill="none" xmlns="http://www.w3.org/2000/svg">
<path fill-rule="evenodd" clip-rule="evenodd" d="M38.6111 19.3214C39.719 23.8399 36.9068 28.4427 32.3274 29.6028C31.7538 29.7465 31.1826 29.8321 30.6139 29.8595L25.6911 37.9145C25.1845 38.7442 24.3789 39.3406 23.4458 39.5769L21.1635 40.1541C20.9281 40.2135 20.6836 40.2254 20.4437 40.1889C20.2039 40.1524 19.9735 40.0683 19.7657 39.9415C19.5579 39.8146 19.3767 39.6474 19.2325 39.4495C19.0884 39.2515 18.9841 39.0267 18.9255 38.7879L18.4085 36.6888C18.2891 36.2026 18.2669 35.697 18.3433 35.2019C18.4198 34.7068 18.5933 34.2323 18.8535 33.8064L23.3682 26.4168C22.7377 25.5489 22.281 24.5638 22.024 23.5175C20.9161 18.999 23.7264 14.3962 28.3076 13.2361C32.8888 12.076 37.4995 14.801 38.6111 19.3214ZM31.4614 22.0951C32.4807 21.8383 33.1048 20.815 32.8574 19.8105C32.6118 18.806 31.587 18.2006 30.5677 18.4593C29.5521 18.716 28.9243 19.7393 29.1718 20.7438C29.4192 21.7483 30.4458 22.3537 31.4614 22.0951Z" fill="#4F74A4"/>
<path fill-rule="evenodd" clip-rule="evenodd" d="M20.8793 22.8429C25.4586 21.6828 28.2727 17.08 27.1629 12.5615C26.0532 8.04107 21.4388 5.31798 16.8595 6.47618C12.2801 7.63439 9.46607 12.2391 10.5777 16.7576C10.8347 17.8039 11.2914 18.789 11.9219 19.6569L7.40722 27.0447C7.14697 27.4705 6.9735 27.945 6.89706 28.4401C6.82062 28.9352 6.84278 29.4408 6.96221 29.9271L7.47923 32.0279C7.59789 32.5096 7.89999 32.9238 8.31923 33.1796C8.73847 33.4354 9.24059 33.5119 9.71535 33.3923L11.9976 32.8151C12.9305 32.5793 13.736 31.9836 14.243 31.1546L19.1657 23.0996C19.7345 23.0721 20.3056 22.9866 20.8793 22.8429ZM21.4111 13.0506C21.6567 14.0551 21.0326 15.0784 20.0151 15.3352C18.9977 15.5919 17.9729 14.9866 17.7255 13.9839C17.478 12.9794 18.104 11.9561 19.1214 11.6975C20.1388 11.4389 21.1637 12.0461 21.4111 13.0506Z" fill="#4F74A4"/>
</svg>
