<svg width="61" height="61" viewBox="0 0 61 61" fill="none" xmlns="http://www.w3.org/2000/svg">
<path d="M38.5125 13.6818C38.5125 13.2358 38.6863 12.808 38.9958 12.4926C39.3052 12.1772 39.7249 12 40.1625 12H46.35C46.7876 12 47.2073 12.1772 47.5167 12.4926C47.8262 12.808 48 13.2358 48 13.6818V22.0909C48 22.537 47.8262 22.9647 47.5167 23.2801C47.2073 23.5955 46.7876 23.7727 46.35 23.7727H44.7V47.7386C44.7 48.0732 44.5696 48.394 44.3375 48.6306C44.1055 48.8671 43.7907 49 43.4625 49C43.1343 49 42.8195 48.8671 42.5875 48.6306C42.3554 48.394 42.225 48.0732 42.225 47.7386V23.7727H40.1625C39.7249 23.7727 39.3052 23.5955 38.9958 23.2801C38.6863 22.9647 38.5125 22.537 38.5125 22.0909V13.6818ZM36.12 15.3636C36.3708 15.3636 36.6183 15.381 36.8625 15.4158V17.9873C36.6201 17.9224 36.3706 17.8891 36.12 17.888H23.5816C22.9375 17.888 22.3119 18.1075 21.8042 18.5116C21.2965 18.9156 20.936 19.4812 20.7799 20.1181L19.4731 25.4545H40.575V41.4318H38.9234L38.925 43.529C38.925 43.7611 39.1098 43.9495 39.3375 43.9495H40.575V46.4722H39.3375C38.5717 46.4722 37.8372 46.1621 37.2957 45.6102C36.7542 45.0582 36.45 44.3096 36.45 43.529L36.4483 41.4318H23.2566V43.529C23.2566 44.3096 22.9524 45.0582 22.4109 45.6102C21.8694 46.1621 21.1349 46.4722 20.3691 46.4722H17.8875C17.1217 46.4722 16.3872 46.1621 15.8457 45.6102C15.3042 45.0582 15 44.3096 15 43.529V29.2386C15 27.868 15.7144 26.6671 16.7853 26.0045L17.1269 24.6136H16.2375C15.9385 24.6136 15.6495 24.5032 15.4242 24.3029C15.1988 24.1025 15.0522 23.8258 15.0115 23.5238L15 23.3523C15 23.0475 15.1083 22.753 15.3049 22.5233C15.5014 22.2935 15.7729 22.1441 16.0692 22.1027L16.2375 22.0909H17.744L18.3808 19.5043C18.6708 18.3216 19.3404 17.2717 20.283 16.5214C21.2257 15.7712 22.3873 15.3636 23.5833 15.3636H36.12ZM20.7799 41.4318H17.4734L17.475 43.529C17.475 43.7611 17.6598 43.9495 17.8875 43.9495H20.3691C20.4785 43.9495 20.5834 43.9052 20.6608 43.8264C20.7381 43.7475 20.7816 43.6406 20.7816 43.529L20.7799 41.4318ZM32.7375 33.8636H26.9592L26.7909 33.8754C26.4947 33.9169 26.2233 34.0664 26.0268 34.2961C25.8303 34.5258 25.7221 34.8202 25.7221 35.125C25.7221 35.4298 25.8303 35.7242 26.0268 35.9539C26.2233 36.1836 26.4947 36.333 26.7909 36.3746L26.9592 36.3864H32.7375L32.9042 36.3746C33.2145 36.3311 33.4971 36.1692 33.6949 35.9217C33.8928 35.6741 33.9912 35.3593 33.9702 35.0407C33.9493 34.7221 33.8106 34.4235 33.5821 34.205C33.3537 33.9866 33.0524 33.8646 32.7392 33.8636M38.1 30.5C37.6624 30.5 37.2427 30.6772 36.9333 30.9926C36.6238 31.308 36.45 31.7358 36.45 32.1818C36.45 32.6279 36.6238 33.0556 36.9333 33.371C37.2427 33.6864 37.6624 33.8636 38.1 33.8636C38.5376 33.8636 38.9573 33.6864 39.2667 33.371C39.5762 33.0556 39.75 32.6279 39.75 32.1818C39.75 31.7358 39.5762 31.308 39.2667 30.9926C38.9573 30.6772 38.5376 30.5 38.1 30.5ZM21.6 30.5C21.1624 30.5 20.7427 30.6772 20.4333 30.9926C20.1238 31.308 19.95 31.7358 19.95 32.1818C19.95 32.6279 20.1238 33.0556 20.4333 33.371C20.7427 33.6864 21.1624 33.8636 21.6 33.8636C22.0376 33.8636 22.4573 33.6864 22.7667 33.371C23.0762 33.0556 23.25 32.6279 23.25 32.1818C23.25 31.7358 23.0762 31.308 22.7667 30.9926C22.4573 30.6772 22.0376 30.5 21.6 30.5Z" fill="#4F74A4"/>
</svg>
