<svg width="61" height="61" viewBox="0 0 61 61" fill="none" xmlns="http://www.w3.org/2000/svg">
<path d="M45.4998 42.1667H48.8332V45.5H12.1665V42.1667H15.4998V17.1667C15.4998 16.7246 15.6754 16.3007 15.988 15.9882C16.3006 15.6756 16.7245 15.5 17.1665 15.5H33.8332C34.2752 15.5 34.6991 15.6756 35.0117 15.9882C35.3242 16.3007 35.4998 16.7246 35.4998 17.1667V42.1667H38.8332V25.5H43.8332C44.2752 25.5 44.6991 25.6756 45.0117 25.9882C45.3242 26.3007 45.4998 26.7246 45.4998 27.1667V42.1667ZM22.1665 28.8333V32.1667H28.8332V28.8333H22.1665ZM22.1665 22.1667V25.5H28.8332V22.1667H22.1665Z" fill="#4F74A4"/>
</svg>
