<svg width="45" height="45" viewBox="0 0 45 45" fill="none" xmlns="http://www.w3.org/2000/svg">
<path d="M28.2813 34.4921C27.0017 34.4921 25.9688 33.1971 25.9688 31.5938C25.9688 30.0058 27.0017 28.7108 28.2813 28.7108C29.5609 28.7108 30.5938 30.0058 30.5938 31.5938C30.5938 33.1971 29.5609 34.4921 28.2813 34.4921ZM22.5 22.3438C20.5884 22.3438 19.0313 21.0488 19.0313 19.4608C19.0313 17.8575 20.5884 16.5625 22.5 16.5625C24.4117 16.5625 25.9688 17.8575 25.9688 19.4608C25.9688 21.0488 24.4117 22.3438 22.5 22.3438ZM16.7188 34.4921C15.4392 34.4921 14.4063 33.1971 14.4063 31.5938C14.4063 30.0058 15.4392 28.7108 16.7188 28.7108C17.9984 28.7108 19.0313 30.0058 19.0313 31.5938C19.0313 33.1971 17.9984 34.4921 16.7188 34.4921ZM22.5 17.7188C23.1321 17.7188 23.6563 18.2429 23.6563 18.875C23.6563 19.5071 23.1321 20.0313 22.5 20.0313C21.8679 20.0313 21.3438 19.5071 21.3438 18.875C21.3438 18.2429 21.8679 17.7188 22.5 17.7188ZM32.9063 23.5C32.4129 23.5 31.935 23.6079 31.5034 23.8083C30.7634 22.8679 29.7613 22.0663 28.5588 21.4496C29.4375 20.2163 29.9617 18.7208 29.9617 17.1021V17.0096C31.6421 16.655 32.9063 15.1596 32.9063 13.3558C32.9063 11.3054 31.2259 9.62501 29.1754 9.62501C28.1117 9.62501 27.125 10.0721 26.4775 10.7813C25.2885 10.0256 23.9088 9.62427 22.5 9.62427C21.0912 9.62427 19.7115 10.0256 18.5225 10.7813C17.875 10.0721 16.8884 9.62501 15.8246 9.62501C13.7742 9.62501 12.0938 11.3054 12.0938 13.3558C12.0938 15.1442 13.3579 16.6396 15.0229 17.0096V17.1021C15.0229 18.7208 15.5625 20.2317 16.4259 21.4496C15.2388 22.0663 14.2367 22.8679 13.4967 23.8083C12.9698 23.571 12.3919 23.4697 11.8157 23.5136C11.2396 23.5576 10.6836 23.7454 10.1989 24.0599C9.71413 24.3743 9.31603 24.8054 9.04106 25.3136C8.76609 25.8218 8.62305 26.3909 8.62502 26.9688C8.62502 28.8958 10.1667 30.4375 12.0938 30.4375H12.1863C12.1246 30.8075 12.0938 31.2083 12.0938 31.5938C12.0938 34.785 14.1596 37.375 16.7188 37.375C18.2759 37.375 19.6479 36.4038 20.4959 34.9238C21.1434 35.0163 21.8063 35.0625 22.5 35.0625C23.1938 35.0625 23.8567 35.0163 24.5042 34.9238C25.3521 36.4038 26.7242 37.375 28.2813 37.375C30.8404 37.375 32.9063 34.785 32.9063 31.5938C32.9063 31.2083 32.8754 30.8075 32.8138 30.4375H32.9063C34.8334 30.4375 36.375 28.8958 36.375 26.9688C36.375 25.0417 34.8334 23.5 32.9063 23.5Z" fill="#4F74A4"/>
</svg>
