<svg width="45" height="45" viewBox="0 0 45 45" fill="none" xmlns="http://www.w3.org/2000/svg">
<path d="M12.6667 27.3333V32.3333C12.6667 32.8056 12.8267 33.2017 13.1467 33.5217C13.4667 33.8417 13.8622 34.0011 14.3333 34H16C16.4722 34 16.8683 33.84 17.1883 33.52C17.5083 33.2 17.6678 32.8044 17.6667 32.3333V27.3333C17.9722 27.0278 18.3267 26.785 18.73 26.605C19.1333 26.425 19.3344 26.1122 19.3333 25.6667V23.1667C19.3333 22.25 19.0072 21.4656 18.355 20.8133C17.7028 20.1611 16.9178 19.8344 16 19.8333H14.3333C13.4167 19.8333 12.6322 20.16 11.98 20.8133C11.3278 21.4667 11.0011 22.2511 11 23.1667V25.6667C11 26.1111 11.2017 26.4239 11.605 26.605C12.0083 26.7861 12.3622 27.0289 12.6667 27.3333ZM15.1667 18.1667C15.75 18.1667 16.2433 17.965 16.6467 17.5617C17.05 17.1583 17.2511 16.6656 17.25 16.0833C17.2489 15.5011 17.0472 15.0078 16.645 14.6033C16.2428 14.1989 15.75 13.9978 15.1667 14C14.5833 14.0022 14.09 14.2039 13.6867 14.605C13.2833 15.0061 13.0822 15.4989 13.0833 16.0833C13.0844 16.6678 13.2861 17.1611 13.6883 17.5633C14.0906 17.9656 14.5833 18.1667 15.1667 18.1667ZM24.1667 22.3333H29.5C29.8333 22.3333 30.0767 22.1878 30.23 21.8967C30.3833 21.6056 30.3761 21.3206 30.2083 21.0417L27.5417 16.7917C27.375 16.5139 27.1389 16.375 26.8333 16.375C26.5278 16.375 26.2917 16.5139 26.125 16.7917L23.4583 21.0417C23.2917 21.3194 23.285 21.6044 23.4383 21.8967C23.5917 22.1889 23.8344 22.3344 24.1667 22.3333ZM27.5417 31.2083L30.2083 26.9583C30.375 26.6806 30.3822 26.3956 30.23 26.1033C30.0778 25.8111 29.8344 25.6656 29.5 25.6667H24.1667C23.8333 25.6667 23.5906 25.8128 23.4383 26.105C23.2861 26.3972 23.2928 26.6817 23.4583 26.9583L26.125 31.2083C26.2917 31.4861 26.5278 31.625 26.8333 31.625C27.1389 31.625 27.375 31.4861 27.5417 31.2083ZM9.33333 39C8.41667 39 7.63222 38.6739 6.98 38.0217C6.32778 37.3694 6.00111 36.5844 6 35.6667V12.3333C6 11.4167 6.32667 10.6322 6.98 9.98C7.63333 9.32778 8.41778 9.00111 9.33333 9H32.6667C33.5833 9 34.3683 9.32667 35.0217 9.98C35.675 10.6333 36.0011 11.4178 36 12.3333V35.6667C36 36.5833 35.6739 37.3683 35.0217 38.0217C34.3694 38.675 33.5844 39.0011 32.6667 39H9.33333Z" fill="#4F74A4"/>
</svg>
