<svg width="61" height="61" viewBox="0 0 61 61" fill="none" xmlns="http://www.w3.org/2000/svg">
<path d="M13.8335 40.5V37.1667C14.8891 37.1667 15.6741 36.8889 16.1885 36.3334C16.7029 35.7778 17.7791 35.5 19.4168 35.5C21.0546 35.5 22.1313 35.7778 22.6468 36.3334C23.1624 36.8889 23.9191 37.1667 24.9168 37.1667C25.9724 37.1667 26.7574 36.8889 27.2718 36.3334C27.7863 35.7778 28.8624 35.5 30.5002 35.5C32.0835 35.5 33.1602 35.7778 33.7302 36.3334C34.3002 36.8889 35.0846 37.1667 36.0835 37.1667C37.1391 37.1667 37.9102 36.8889 38.3968 36.3334C38.8835 35.7778 39.9457 35.5 41.5835 35.5C43.2213 35.5 44.2979 35.7778 44.8135 36.3334C45.3291 36.8889 46.1135 37.1667 47.1668 37.1667V40.5C45.5835 40.5 44.5074 40.2222 43.9385 39.6667C43.3696 39.1111 42.5846 38.8334 41.5835 38.8334C40.5824 38.8334 39.8257 39.1111 39.3135 39.6667C38.8013 40.2222 37.7246 40.5 36.0835 40.5C34.5002 40.5 33.4241 40.2222 32.8552 39.6667C32.2863 39.1111 31.5013 38.8334 30.5002 38.8334C29.4446 38.8334 28.6602 39.1111 28.1468 39.6667C27.6335 40.2222 26.5568 40.5 24.9168 40.5C23.2768 40.5 22.2146 40.2222 21.7302 39.6667C21.2457 39.1111 20.4746 38.8334 19.4168 38.8334C18.3591 38.8334 17.5746 39.1111 17.0635 39.6667C16.5524 40.2222 15.4757 40.5 13.8335 40.5ZM13.8335 33.8334V30.5C14.8891 30.5 15.6741 30.2222 16.1885 29.6667C16.7029 29.1111 17.7791 28.8334 19.4168 28.8334C21.0002 28.8334 22.0629 29.1111 22.6052 29.6667C23.1474 30.2222 23.9179 30.5 24.9168 30.5C25.9724 30.5 26.7568 30.2222 27.2702 29.6667C27.7835 29.1111 28.8602 28.8334 30.5002 28.8334C32.0835 28.8334 33.1529 29.1111 33.7085 29.6667C34.2641 30.2222 35.0279 30.5 36.0002 30.5C37.0557 30.5 37.8402 30.2222 38.3535 29.6667C38.8668 29.1111 39.9435 28.8334 41.5835 28.8334C43.1668 28.8334 44.2435 29.1111 44.8135 29.6667C45.3835 30.2222 46.1679 30.5 47.1668 30.5V33.8334C45.5279 33.8334 44.4374 33.5556 43.8952 33C43.3529 32.4445 42.5824 32.1667 41.5835 32.1667C40.5846 32.1667 39.8279 32.4445 39.3135 33C38.7991 33.5556 37.7224 33.8334 36.0835 33.8334C34.5002 33.8334 33.4241 33.5556 32.8552 33C32.2863 32.4445 31.5013 32.1667 30.5002 32.1667C29.4446 32.1667 28.6735 32.4445 28.1868 33C27.7002 33.5556 26.6379 33.8334 25.0002 33.8334C23.3624 33.8334 22.2724 33.5556 21.7302 33C21.1879 32.4445 20.4168 32.1667 19.4168 32.1667C18.4168 32.1667 17.6324 32.4445 17.0635 33C16.4946 33.5556 15.4179 33.8334 13.8335 33.8334ZM13.8335 27.1667V23.8334C14.8891 23.8334 15.6741 23.5556 16.1885 23C16.7029 22.4445 17.7791 22.1667 19.4168 22.1667C21.0002 22.1667 22.0629 22.4445 22.6052 23C23.1474 23.5556 23.9179 23.8334 24.9168 23.8334C25.9724 23.8334 26.7568 23.5556 27.2702 23C27.7835 22.4445 28.8602 22.1667 30.5002 22.1667C32.0835 22.1667 33.1529 22.4445 33.7085 23C34.2641 23.5556 35.0279 23.8334 36.0002 23.8334C37.0557 23.8334 37.8402 23.5556 38.3535 23C38.8668 22.4445 39.9435 22.1667 41.5835 22.1667C43.1668 22.1667 44.2435 22.4445 44.8135 23C45.3835 23.5556 46.1679 23.8334 47.1668 23.8334V27.1667C45.5279 27.1667 44.4374 26.8889 43.8952 26.3334C43.3529 25.7778 42.5824 25.5 41.5835 25.5C40.5846 25.5 39.8279 25.7778 39.3135 26.3334C38.7991 26.8889 37.7224 27.1667 36.0835 27.1667C34.5002 27.1667 33.4241 26.8889 32.8552 26.3334C32.2863 25.7778 31.5013 25.5 30.5002 25.5C29.4446 25.5 28.6735 25.7778 28.1868 26.3334C27.7002 26.8889 26.6379 27.1667 25.0002 27.1667C23.3624 27.1667 22.2724 26.8889 21.7302 26.3334C21.1879 25.7778 20.4168 25.5 19.4168 25.5C18.4168 25.5 17.6324 25.7778 17.0635 26.3334C16.4946 26.8889 15.4179 27.1667 13.8335 27.1667Z" fill="#4F74A4"/>
</svg>
