<svg width="61" height="61" viewBox="0 0 61 61" fill="none" xmlns="http://www.w3.org/2000/svg">
<path d="M13.8333 35.5C16.6166 34.25 19.3833 33 22.1666 32.45V18.8333C22.1666 17.5073 22.6934 16.2355 23.6311 15.2978C24.5687 14.3601 25.8405 13.8333 27.1666 13.8333C29.3499 13.8333 31.1999 15.2167 31.8833 17.1667H27.1666C26.7246 17.1667 26.3006 17.3423 25.9881 17.6548C25.6755 17.9674 25.4999 18.3913 25.4999 18.8333V20.5H33.8333V18.8333C33.8333 17.5073 34.36 16.2355 35.2977 15.2978C36.2354 14.3601 37.5072 13.8333 38.8333 13.8333C41.0166 13.8333 42.8666 15.2167 43.5499 17.1667H38.8333C38.3912 17.1667 37.9673 17.3423 37.6547 17.6548C37.3422 17.9674 37.1666 18.3913 37.1666 18.8333V35.4C40.4999 34.8667 43.8333 32.1667 47.1666 32.1667V35.5C43.4666 35.5 39.7666 38.8333 36.0499 38.8333C32.3499 38.8333 28.6499 35.5 24.9499 35.5C21.2333 35.5 17.5333 37.1667 13.8333 38.8333V35.5ZM33.8333 23.8333H25.4999V27.1667H33.8333V23.8333ZM33.8333 30.5H25.4999V32.1667C28.2833 32.4333 31.0499 34.35 33.8333 35.15V30.5ZM13.8333 42.1667C17.5333 40.5 21.2333 38.8333 24.9499 38.8333C28.6499 38.8333 32.3499 42.1667 36.0499 42.1667C39.7666 42.1667 43.4666 38.8333 47.1666 38.8333V42.1667C43.4666 42.1667 39.7666 45.5 36.0499 45.5C32.3499 45.5 28.6499 42.1667 24.9499 42.1667C21.2333 42.1667 17.5333 43.8333 13.8333 45.5V42.1667Z" fill="#4F74A4"/>
</svg>
