<svg width="61" height="61" viewBox="0 0 61 61" fill="none" xmlns="http://www.w3.org/2000/svg">
<g clip-path="url(#clip0_185_208)">
<path d="M26.8 26.3889C30.4819 26.3889 33.4666 23.4041 33.4666 19.7222C33.4666 16.0403 30.4819 13.0555 26.8 13.0555C23.1181 13.0555 20.1333 16.0403 20.1333 19.7222C20.1333 23.4041 23.1181 26.3889 26.8 26.3889Z" fill="#4F74A4"/>
<path d="M28.7666 45.8555C28.3994 45.4924 28.1598 45.02 28.0837 44.5092C28.0076 43.9984 28.099 43.4767 28.3444 43.0222L28.9333 41.9111L27.7222 41.5444C27.2283 41.3899 26.7983 41.0784 26.4975 40.6573C26.1967 40.2362 26.0415 39.7284 26.0555 39.2111V36.9333C26.0546 36.4183 26.2193 35.9166 26.5255 35.5024C26.8316 35.0883 27.2629 34.7835 27.7555 34.6333L28.9666 34.2667L28.3888 33.1555C28.1507 32.7073 28.0601 32.1953 28.1299 31.6926C28.1997 31.1898 28.4264 30.7219 28.7777 30.3555C27.9229 30.2437 27.062 30.1843 26.1999 30.1778C23.6536 30.1178 21.1255 30.6205 18.7958 31.65C16.4661 32.6794 14.3922 34.2103 12.7222 36.1333V44.7444C12.7222 45.0391 12.8392 45.3217 13.0476 45.5301C13.256 45.7385 13.5386 45.8555 13.8333 45.8555H28.7666Z" fill="#4F74A4"/>
<path d="M47.9444 36.5667L45.7221 35.9C45.5684 35.3511 45.3522 34.8218 45.0777 34.3222L46.1888 32.2556C46.2317 32.1789 46.2474 32.0899 46.2333 32.0031C46.2192 31.9163 46.1761 31.8369 46.111 31.7778L44.4999 30.1556C44.4379 30.0952 44.3587 30.0553 44.2733 30.0414C44.1878 30.0275 44.1001 30.0402 44.0221 30.0778L41.9666 31.1889C41.4607 30.9138 40.9284 30.6904 40.3777 30.5222L39.6999 28.3C39.6701 28.2181 39.6156 28.1474 39.544 28.0976C39.4724 28.0479 39.3871 28.0216 39.2999 28.0222H36.9888C36.9022 28.0246 36.8184 28.0537 36.7488 28.1054C36.6792 28.157 36.6272 28.2289 36.5999 28.3111L35.9332 30.5333C35.3724 30.698 34.832 30.9254 34.3221 31.2111L32.311 30.1C32.2328 30.0585 32.1436 30.0425 32.0558 30.0545C31.9681 30.0665 31.8863 30.1057 31.8221 30.1667L30.1888 31.7667C30.1245 31.8287 30.0821 31.9099 30.0681 31.9981C30.054 32.0863 30.0691 32.1767 30.111 32.2556L31.2221 34.2778C30.9242 34.7795 30.682 35.3123 30.4999 35.8667L28.2777 36.5445C28.1936 36.5688 28.1199 36.6199 28.0677 36.6902C28.0155 36.7604 27.9878 36.8458 27.9888 36.9333V39.2111C27.9878 39.2986 28.0155 39.384 28.0677 39.4543C28.1199 39.5245 28.1936 39.5757 28.2777 39.6L30.4999 40.2778C30.6666 40.8219 30.89 41.3471 31.1666 41.8445L30.0555 43.9556C30.0136 44.0344 29.9985 44.1248 30.0125 44.213C30.0266 44.3012 30.0689 44.3825 30.1332 44.4445L31.7888 46.0556C31.853 46.1165 31.9348 46.1558 32.0225 46.1677C32.1102 46.1797 32.1995 46.1638 32.2777 46.1222L34.3555 45.0111C34.8496 45.2778 35.3712 45.4901 35.911 45.6445L36.5777 47.9222C36.6056 48.0062 36.6593 48.0793 36.7311 48.1312C36.8029 48.183 36.8891 48.211 36.9777 48.2111H39.2555C39.3421 48.2087 39.4259 48.1797 39.4955 48.128C39.565 48.0763 39.617 48.0045 39.6444 47.9222L40.311 45.6445C40.8441 45.4911 41.3584 45.2787 41.8443 45.0111L43.9444 46.1222C44.0225 46.1638 44.1118 46.1797 44.1995 46.1677C44.2873 46.1558 44.369 46.1165 44.4332 46.0556L46.0555 44.4445C46.1164 44.3802 46.1557 44.2985 46.1676 44.2108C46.1796 44.123 46.1637 44.0338 46.1221 43.9556L45.011 41.8667C45.2762 41.3796 45.4885 40.8656 45.6444 40.3333L47.8666 39.6556C47.9501 39.6287 48.0234 39.5772 48.077 39.5077C48.1306 39.4383 48.1618 39.3542 48.1666 39.2667V36.9667C48.1693 36.8861 48.15 36.8063 48.1109 36.7359C48.0717 36.6654 48.0142 36.6069 47.9444 36.5667ZM38.1332 41.8111C37.3988 41.8133 36.6802 41.5975 36.0684 41.1911C35.4567 40.7846 34.9793 40.2058 34.6967 39.5279C34.4141 38.85 34.339 38.1035 34.481 37.3828C34.6229 36.6622 34.9755 35.9999 35.494 35.4798C36.0126 34.9597 36.6738 34.6051 37.394 34.461C38.1142 34.3169 38.861 34.3898 39.5397 34.6703C40.2185 34.9509 40.7987 35.4265 41.207 36.0371C41.6153 36.6476 41.8332 37.3655 41.8332 38.1C41.8332 39.0823 41.4438 40.0246 40.7502 40.7202C40.0566 41.4159 39.1156 41.8082 38.1332 41.8111Z" fill="#4F74A4"/>
</g>
<defs>
<clipPath id="clip0_185_208">
<rect width="40" height="40" fill="white" transform="translate(10.5 10.5)"/>
</clipPath>
</defs>
</svg>
