<svg width="61" height="61" viewBox="0 0 61 61" fill="none" xmlns="http://www.w3.org/2000/svg">
<path d="M22.2498 24.5834L17.4998 29.3334C17.1943 29.6389 16.8126 29.7989 16.3548 29.8134C15.8971 29.8278 15.5009 29.6678 15.1665 29.3334C14.8609 29.0278 14.7015 28.6461 14.6882 28.1884C14.6748 27.7306 14.8204 27.3345 15.1248 27L16.3332 25.75L15.1665 24.5834C14.8332 24.25 14.6665 23.8611 14.6665 23.4167C14.6665 22.9722 14.8332 22.5834 15.1665 22.25L17.4998 19.9167L16.2915 18.6667C15.9859 18.3611 15.8332 17.9795 15.8332 17.5217C15.8332 17.0639 15.9998 16.6678 16.3332 16.3334C16.6387 16.0278 17.0209 15.8684 17.4798 15.855C17.9387 15.8417 18.3343 15.9872 18.6665 16.2917L19.9165 17.5L22.2498 15.1667C22.5832 14.8334 22.9721 14.6667 23.4165 14.6667C23.8609 14.6667 24.2498 14.8334 24.5832 15.1667L25.7498 16.3334L26.9998 15.125C27.3054 14.8195 27.6876 14.6667 28.1465 14.6667C28.6054 14.6667 29.0009 14.8334 29.3332 15.1667C29.6387 15.4722 29.7915 15.8611 29.7915 16.3334C29.7915 16.8056 29.6387 17.1945 29.3332 17.5L24.5832 22.25L38.7498 36.4167L43.4998 31.6667C43.8054 31.3611 44.1876 31.2017 44.6465 31.1884C45.1054 31.175 45.5009 31.3345 45.8332 31.6667C46.1387 31.9722 46.2987 32.3545 46.3132 32.8134C46.3276 33.2722 46.1815 33.6678 45.8748 34L44.6665 35.25L45.8332 36.4167C46.1665 36.75 46.3332 37.1389 46.3332 37.5834C46.3332 38.0278 46.1665 38.4167 45.8332 38.75L43.4998 41.0834L44.7082 42.3334C45.0137 42.6389 45.1665 43.0206 45.1665 43.4784C45.1665 43.9361 44.9998 44.3322 44.6665 44.6667C44.3609 44.9722 43.9793 45.1322 43.5215 45.1467C43.0637 45.1611 42.6676 45.015 42.3332 44.7084L41.0832 43.5L38.7498 45.8334C38.4165 46.1667 38.0276 46.3334 37.5832 46.3334C37.1387 46.3334 36.7498 46.1667 36.4165 45.8334L35.2498 44.6667L33.9998 45.875C33.6943 46.1806 33.3126 46.3334 32.8548 46.3334C32.3971 46.3334 32.0009 46.1667 31.6665 45.8334C31.3609 45.5278 31.2082 45.1389 31.2082 44.6667C31.2082 44.1945 31.3609 43.8056 31.6665 43.5L36.4165 38.75L22.2498 24.5834Z" fill="#4F74A4"/>
</svg>
