<svg width="61" height="61" viewBox="0 0 61 61" fill="none" xmlns="http://www.w3.org/2000/svg">
<path d="M43.5385 15H17.6923C17.3659 15 17.0528 15.1328 16.822 15.3693C16.5912 15.6058 16.4615 15.9265 16.4615 16.2609V31.3913C16.4638 33.397 17.2425 35.3199 18.6269 36.7382C20.0113 38.1564 21.8883 38.9542 23.8462 38.9565H32.4615C34.4194 38.9542 36.2964 38.1564 37.6808 36.7382C39.0652 35.3199 39.8439 33.397 39.8462 31.3913V25.087H41.2308C42.4952 25.0855 43.7075 24.5703 44.6016 23.6543C45.4956 22.7383 45.9986 21.4965 46 20.2011V17.5217C46 16.8529 45.7407 16.2115 45.279 15.7386C44.8174 15.2657 44.1913 15 43.5385 15ZM43.5385 20.2011C43.5385 20.8281 43.2953 21.4294 42.8626 21.8728C42.4298 22.3161 41.8428 22.5652 41.2308 22.5652H39.8462V17.5217H43.5385V20.2011ZM41.0769 41.4783H15.2308C14.9043 41.4783 14.5913 41.6111 14.3605 41.8476C14.1297 42.084 14 42.4047 14 42.7391C14 43.0735 14.1297 43.3942 14.3605 43.6307C14.5913 43.8672 14.9043 44 15.2308 44H41.0769C41.4033 44 41.7164 43.8672 41.9472 43.6307C42.178 43.3942 42.3077 43.0735 42.3077 42.7391C42.3077 42.4047 42.178 42.084 41.9472 41.8476C41.7164 41.6111 41.4033 41.4783 41.0769 41.4783Z" fill="#4F74A4"/>
</svg>
