<svg width="61" height="61" viewBox="0 0 61 61" fill="none" xmlns="http://www.w3.org/2000/svg">
<path d="M37.1667 18.8333V17.1667C37.1667 16.2826 36.8156 15.4348 36.1904 14.8096C35.5653 14.1845 34.7175 13.8333 33.8334 13.8333H27.1667C26.2827 13.8333 25.4348 14.1845 24.8097 14.8096C24.1846 15.4348 23.8334 16.2826 23.8334 17.1667V18.8333C22.0653 18.8333 20.3696 19.5357 19.1194 20.786C17.8691 22.0362 17.1667 23.7319 17.1667 25.5V43.8333C17.1667 44.7174 17.5179 45.5652 18.1431 46.1904C18.7682 46.8155 19.616 47.1667 20.5001 47.1667H40.5001C41.3841 47.1667 42.232 46.8155 42.8571 46.1904C43.4822 45.5652 43.8334 44.7174 43.8334 43.8333V25.5C43.8334 23.7319 43.131 22.0362 41.8808 20.786C40.6305 19.5357 38.9349 18.8333 37.1667 18.8333ZM27.1667 17.1667H33.8334V18.8333H27.1667V17.1667ZM30.5001 25.5L33.8334 28.8333L30.5001 32.1667L27.1667 28.8333L30.5001 25.5ZM40.5001 37.1667H25.5001V40.5H23.8334V37.1667H20.5001V35.5H40.5001V37.1667Z" fill="#4F74A4"/>
</svg>
