<svg width="40" height="40" viewBox="0 0 40 40" fill="none" xmlns="http://www.w3.org/2000/svg">
<path d="M6.66669 31.6666V16.6666C6.66669 16.1389 6.78502 15.6389 7.02169 15.1666C7.25835 14.6944 7.58447 14.3055 8.00002 14L18 6.49998C18.5834 6.05554 19.25 5.83331 20 5.83331C20.75 5.83331 21.4167 6.05554 22 6.49998L32 14C32.4167 14.3055 32.7434 14.6944 32.98 15.1666C33.2167 15.6389 33.3345 16.1389 33.3334 16.6666V31.6666C33.3334 32.5833 33.0067 33.3683 32.3534 34.0216C31.7 34.675 30.9156 35.0011 30 35H25C24.5278 35 24.1322 34.84 23.8134 34.52C23.4945 34.2 23.3345 33.8044 23.3334 33.3333V25C23.3334 24.5278 23.1734 24.1322 22.8534 23.8133C22.5334 23.4944 22.1378 23.3344 21.6667 23.3333H18.3334C17.8611 23.3333 17.4656 23.4933 17.1467 23.8133C16.8278 24.1333 16.6678 24.5289 16.6667 25V33.3333C16.6667 33.8055 16.5067 34.2016 16.1867 34.5216C15.8667 34.8416 15.4711 35.0011 15 35H10C9.08335 35 8.29891 34.6739 7.64669 34.0216C6.99446 33.3694 6.6678 32.5844 6.66669 31.6666Z" fill="#4F74A4"/>
</svg>
