<svg width="45" height="45" viewBox="0 0 45 45" fill="none" xmlns="http://www.w3.org/2000/svg">
<path d="M7.75 27.5833C7.75 31.3627 9.25133 34.9872 11.9237 37.6596C14.5961 40.332 18.2207 41.8333 22 41.8333C22 33.9167 15.6192 27.5833 7.75 27.5833ZM22 15.7083C23.0498 15.7083 24.0566 16.1254 24.799 16.8677C25.5413 17.61 25.9583 18.6169 25.9583 19.6667C25.9583 20.7165 25.5413 21.7233 24.799 22.4656C24.0566 23.208 23.0498 23.625 22 23.625C20.9502 23.625 19.9434 23.208 19.201 22.4656C18.4587 21.7233 18.0417 20.7165 18.0417 19.6667C18.0417 18.6169 18.4587 17.61 19.201 16.8677C19.9434 16.1254 20.9502 15.7083 22 15.7083ZM11.8667 23.2292C11.8667 24.279 12.2837 25.2858 13.026 26.0281C13.7684 26.7705 14.7752 27.1875 15.825 27.1875C16.6642 27.1875 17.44 26.9183 18.0417 26.4908V26.7917C18.0417 27.8415 18.4587 28.8483 19.201 29.5906C19.9434 30.333 20.9502 30.75 22 30.75C23.0498 30.75 24.0566 30.333 24.799 29.5906C25.5413 28.8483 25.9583 27.8415 25.9583 26.7917V26.4908C26.56 26.9183 27.3358 27.1875 28.175 27.1875C29.2248 27.1875 30.2316 26.7705 30.974 26.0281C31.7163 25.2858 32.1333 24.279 32.1333 23.2292C32.1333 21.6458 31.1992 20.3 29.8692 19.6667C31.1992 19.0333 32.1333 17.6717 32.1333 16.1042C32.1333 15.0544 31.7163 14.0475 30.974 13.3052C30.2316 12.5629 29.2248 12.1458 28.175 12.1458C27.3358 12.1458 26.56 12.3992 25.9583 12.8425V12.5417C25.9583 11.4919 25.5413 10.485 24.799 9.7427C24.0566 9.00037 23.0498 8.58334 22 8.58334C20.9502 8.58334 19.9434 9.00037 19.201 9.7427C18.4587 10.485 18.0417 11.4919 18.0417 12.5417V12.8425C17.44 12.3992 16.6642 12.1458 15.825 12.1458C14.7752 12.1458 13.7684 12.5629 13.026 13.3052C12.2837 14.0475 11.8667 15.0544 11.8667 16.1042C11.8667 17.6717 12.8008 19.0333 14.1308 19.6667C12.8008 20.3 11.8667 21.6458 11.8667 23.2292ZM22 41.8333C25.7793 41.8333 29.4039 40.332 32.0763 37.6596C34.7487 34.9872 36.25 31.3627 36.25 27.5833C28.3333 27.5833 22 33.9167 22 41.8333Z" fill="#4F74A4"/>
</svg>
