<svg width="61" height="61" viewBox="0 0 61 61" fill="none" xmlns="http://www.w3.org/2000/svg">
<path fill-rule="evenodd" clip-rule="evenodd" d="M20.5001 13.8334C19.616 13.8334 18.7682 14.1846 18.1431 14.8097C17.5179 15.4348 17.1667 16.2827 17.1667 17.1667V42.1667C17.1667 43.4928 17.6935 44.7646 18.6312 45.7022C19.5689 46.6399 20.8407 47.1667 22.1667 47.1667H42.1667C42.6088 47.1667 43.0327 46.9911 43.3453 46.6786C43.6578 46.366 43.8334 45.9421 43.8334 45.5C43.8334 45.058 43.6578 44.6341 43.3453 44.3215C43.0327 44.009 42.6088 43.8334 42.1667 43.8334H38.8334V40.5H42.1667C42.6088 40.5 43.0327 40.3244 43.3453 40.0119C43.6578 39.6993 43.8334 39.2754 43.8334 38.8334V17.1667C43.8334 16.2827 43.4822 15.4348 42.8571 14.8097C42.232 14.1846 41.3841 13.8334 40.5001 13.8334H27.1667V40.5H35.5001V43.8334H22.1667C21.7247 43.8334 21.3008 43.6578 20.9882 43.3452C20.6757 43.0327 20.5001 42.6087 20.5001 42.1667C20.5001 41.7247 20.6757 41.3008 20.9882 40.9882C21.3008 40.6756 21.7247 40.5 22.1667 40.5H23.8334V13.8334H20.5001Z" fill="#4F74A4"/>
</svg>
