<svg width="45" height="45" viewBox="0 0 45 45" fill="none" xmlns="http://www.w3.org/2000/svg">
<path d="M23.5 16.3333C21.6766 16.3333 19.928 17.0357 18.6386 18.2859C17.3493 19.5362 16.625 21.2319 16.625 23C16.625 24.7681 17.3493 26.4638 18.6386 27.714C19.928 28.9643 21.6766 29.6666 23.5 29.6666C25.3234 29.6666 27.072 28.9643 28.3614 27.714C29.6507 26.4638 30.375 24.7681 30.375 23C30.375 21.2319 29.6507 19.5362 28.3614 18.2859C27.072 17.0357 25.3234 16.3333 23.5 16.3333Z" fill="#4F74A4"/>
<path fill-rule="evenodd" clip-rule="evenodd" d="M23.5 8.33331C23.8647 8.33331 24.2144 8.47379 24.4723 8.72384C24.7301 8.97389 24.875 9.31302 24.875 9.66665V11C24.875 11.3536 24.7301 11.6927 24.4723 11.9428C24.2144 12.1928 23.8647 12.3333 23.5 12.3333C23.1353 12.3333 22.7856 12.1928 22.5277 11.9428C22.2699 11.6927 22.125 11.3536 22.125 11V9.66665C22.125 9.31302 22.2699 8.97389 22.5277 8.72384C22.7856 8.47379 23.1353 8.33331 23.5 8.33331ZM11.5279 11.3906C11.7857 11.1407 12.1354 11.0003 12.5 11.0003C12.8646 11.0003 13.2143 11.1407 13.4721 11.3906L15.5346 13.3906C15.7851 13.6421 15.9237 13.9789 15.9206 14.3285C15.9174 14.6781 15.7728 15.0125 15.5179 15.2597C15.2629 15.5069 14.9181 15.6472 14.5576 15.6502C14.197 15.6533 13.8497 15.5189 13.5904 15.276L11.5279 13.276C11.2701 13.0259 11.1253 12.6869 11.1253 12.3333C11.1253 11.9798 11.2701 11.6407 11.5279 11.3906ZM35.4721 11.3906C35.7299 11.6407 35.8747 11.9798 35.8747 12.3333C35.8747 12.6869 35.7299 13.0259 35.4721 13.276L33.4096 15.276C33.2828 15.4033 33.1311 15.5049 32.9633 15.5748C32.7956 15.6447 32.6151 15.6814 32.4326 15.683C32.25 15.6845 32.0689 15.6508 31.8999 15.5837C31.731 15.5167 31.5774 15.4177 31.4483 15.2925C31.3192 15.1673 31.2171 15.0184 31.148 14.8546C31.0789 14.6907 31.0441 14.5152 31.0457 14.3381C31.0472 14.1611 31.0852 13.9861 31.1572 13.8234C31.2293 13.6608 31.334 13.5136 31.4654 13.3906L33.5279 11.3906C33.7857 11.1407 34.1354 11.0003 34.5 11.0003C34.8646 11.0003 35.2143 11.1407 35.4721 11.3906ZM8.375 23C8.375 22.6464 8.51987 22.3072 8.77773 22.0572C9.03559 21.8071 9.38533 21.6666 9.75 21.6666H11.125C11.4897 21.6666 11.8394 21.8071 12.0973 22.0572C12.3551 22.3072 12.5 22.6464 12.5 23C12.5 23.3536 12.3551 23.6927 12.0973 23.9428C11.8394 24.1928 11.4897 24.3333 11.125 24.3333H9.75C9.38533 24.3333 9.03559 24.1928 8.77773 23.9428C8.51987 23.6927 8.375 23.3536 8.375 23ZM34.5 23C34.5 22.6464 34.6449 22.3072 34.9027 22.0572C35.1606 21.8071 35.5103 21.6666 35.875 21.6666H37.25C37.6147 21.6666 37.9644 21.8071 38.2223 22.0572C38.4801 22.3072 38.625 22.6464 38.625 23C38.625 23.3536 38.4801 23.6927 38.2223 23.9428C37.9644 24.1928 37.6147 24.3333 37.25 24.3333H35.875C35.5103 24.3333 35.1606 24.1928 34.9027 23.9428C34.6449 23.6927 34.5 23.3536 34.5 23ZM15.5346 30.724C15.7924 30.974 15.9372 31.3131 15.9372 31.6666C15.9372 32.0202 15.7924 32.3593 15.5346 32.6093L13.4721 34.6093C13.2128 34.8522 12.8655 34.9866 12.5049 34.9835C12.1444 34.9805 11.7996 34.8403 11.5446 34.5931C11.2897 34.3459 11.1451 34.0114 11.1419 33.6618C11.1388 33.3123 11.2774 32.9754 11.5279 32.724L13.5904 30.724C13.8482 30.474 14.1979 30.3336 14.5625 30.3336C14.9271 30.3336 15.2768 30.474 15.5346 30.724ZM31.4654 30.724C31.7232 30.474 32.0729 30.3336 32.4375 30.3336C32.8021 30.3336 33.1518 30.474 33.4096 30.724L35.4721 32.724C35.7226 32.9754 35.8612 33.3123 35.8581 33.6618C35.8549 34.0114 35.7103 34.3459 35.4554 34.5931C35.2004 34.8403 34.8556 34.9805 34.4951 34.9835C34.1345 34.9866 33.7872 34.8522 33.5279 34.6093L31.4654 32.6093C31.2076 32.3593 31.0628 32.0202 31.0628 31.6666C31.0628 31.3131 31.2076 30.974 31.4654 30.724ZM23.5 33.6666C23.8647 33.6666 24.2144 33.8071 24.4723 34.0572C24.7301 34.3072 24.875 34.6464 24.875 35V36.3333C24.875 36.6869 24.7301 37.0261 24.4723 37.2761C24.2144 37.5262 23.8647 37.6666 23.5 37.6666C23.1353 37.6666 22.7856 37.5262 22.5277 37.2761C22.2699 37.0261 22.125 36.6869 22.125 36.3333V35C22.125 34.6464 22.2699 34.3072 22.5277 34.0572C22.7856 33.8071 23.1353 33.6666 23.5 33.6666Z" fill="#4F74A4"/>
</svg>
