<svg width="19" height="21" viewBox="0 0 19 21" fill="none" xmlns="http://www.w3.org/2000/svg">
<path d="M10.8436 0.52865C10.4867 0.190079 10.0036 0 9.5 0C8.99638 0 8.51327 0.190079 8.15636 0.52865L0.556556 7.77053C0.380106 7.93867 0.240139 8.13828 0.144644 8.35797C0.0491505 8.57765 0 8.81311 0 9.0509C0 9.53113 0.2002 9.99169 0.556556 10.3313C0.912913 10.6708 1.39624 10.8616 1.9002 10.8616C2.40417 10.8616 2.88749 10.6708 3.24385 10.3313L7.60005 6.18021V19.1895C7.60005 19.6697 7.80022 20.1302 8.15653 20.4697C8.51284 20.8093 8.9961 21 9.5 21C10.0039 21 10.4872 20.8093 10.8435 20.4697C11.1998 20.1302 11.4 19.6697 11.4 19.1895V6.18021L15.7562 10.3313C15.9326 10.4994 16.1421 10.6328 16.3726 10.7238C16.6032 10.8148 16.8503 10.8616 17.0998 10.8616C17.3493 10.8616 17.5964 10.8148 17.827 10.7238C18.0575 10.6328 18.267 10.4994 18.4434 10.3313C18.6199 10.1631 18.7599 9.96351 18.8554 9.74382C18.9509 9.52414 19 9.28868 19 9.0509C19 8.81311 18.9509 8.57765 18.8554 8.35797C18.7599 8.13828 18.6199 7.93867 18.4434 7.77053L10.8436 0.52865Z" fill="white"/>
</svg>
