<svg width="20" height="20" viewBox="0 0 20 20" fill="none" xmlns="http://www.w3.org/2000/svg">
<path d="M4.16667 2.5C3.72464 2.5 3.30072 2.67559 2.98816 2.98816C2.67559 3.30072 2.5 3.72464 2.5 4.16667V5.83333C2.5 6.27536 2.67559 6.69928 2.98816 7.01184C3.30072 7.3244 3.72464 7.5 4.16667 7.5H7.5C7.94203 7.5 8.36595 7.3244 8.67851 7.01184C8.99107 6.69928 9.16667 6.27536 9.16667 5.83333V4.16667C9.16667 3.72464 8.99107 3.30072 8.67851 2.98816C8.36595 2.67559 7.94203 2.5 7.5 2.5H4.16667ZM15.8333 17.5C16.2754 17.5 16.6993 17.3244 17.0118 17.0118C17.3244 16.6993 17.5 16.2754 17.5 15.8333V14.1667C17.5 13.7246 17.3244 13.3007 17.0118 12.9882C16.6993 12.6756 16.2754 12.5 15.8333 12.5H12.5C12.058 12.5 11.634 12.6756 11.3215 12.9882C11.0089 13.3007 10.8333 13.7246 10.8333 14.1667V15.8333C10.8333 16.2754 11.0089 16.6993 11.3215 17.0118C11.634 17.3244 12.058 17.5 12.5 17.5H15.8333ZM4.16667 9.16667C3.72464 9.16667 3.30072 9.34226 2.98816 9.65482C2.67559 9.96738 2.5 10.3913 2.5 10.8333V15.8333C2.5 16.2754 2.67559 16.6993 2.98816 17.0118C3.30072 17.3244 3.72464 17.5 4.16667 17.5H7.5C7.94203 17.5 8.36595 17.3244 8.67851 17.0118C8.99107 16.6993 9.16667 16.2754 9.16667 15.8333V10.8333C9.16667 10.3913 8.99107 9.96738 8.67851 9.65482C8.36595 9.34226 7.94203 9.16667 7.5 9.16667H4.16667ZM15.8333 10.8333C16.2754 10.8333 16.6993 10.6577 17.0118 10.3452C17.3244 10.0326 17.5 9.60869 17.5 9.16667V4.16667C17.5 3.72464 17.3244 3.30072 17.0118 2.98816C16.6993 2.67559 16.2754 2.5 15.8333 2.5H12.5C12.058 2.5 11.634 2.67559 11.3215 2.98816C11.0089 3.30072 10.8333 3.72464 10.8333 4.16667V9.16667C10.8333 9.60869 11.0089 10.0326 11.3215 10.3452C11.634 10.6577 12.058 10.8333 12.5 10.8333H15.8333Z" fill="white"/>
</svg>
