<svg width="20" height="20" viewBox="0 0 20 20" fill="none" xmlns="http://www.w3.org/2000/svg">
<path d="M13.285 9.06274C13.5062 8.43722 13.9413 7.91003 14.5136 7.57433C15.0858 7.23864 15.7583 7.11605 16.4122 7.22824C17.0662 7.34043 17.6593 7.68018 18.087 8.18743C18.5146 8.69468 18.7491 9.33678 18.7491 10.0002C18.7491 10.6637 18.5146 11.3058 18.087 11.813C17.6593 12.3203 17.0662 12.66 16.4122 12.7722C15.7583 12.8844 15.0858 12.7618 14.5136 12.4261C13.9413 12.0904 13.5062 11.5632 13.285 10.9377H10.7775C10.5556 11.5656 10.1181 12.0944 9.5429 12.43C8.96767 12.7656 8.29204 12.8861 7.63625 12.7702L6.2875 15.1552C6.693 15.6802 6.89989 16.3316 6.87161 16.9944C6.84333 17.6572 6.5817 18.2886 6.13295 18.7771C5.6842 19.2656 5.07721 19.5798 4.41923 19.6642C3.76126 19.7485 3.09465 19.5976 2.53719 19.238C1.97974 18.8784 1.56732 18.3334 1.3728 17.6992C1.17828 17.065 1.2142 16.3825 1.47419 15.7722C1.73418 15.1619 2.20152 14.6631 2.79363 14.3641C3.38574 14.065 4.06451 13.9848 4.71 14.1377L6.00375 11.8477C5.55785 11.3356 5.31232 10.6793 5.3125 10.0002C5.3125 9.29274 5.57375 8.64774 6.00375 8.15274L4.71 5.86274C4.06451 6.01565 3.38574 5.93549 2.79363 5.63641C2.20152 5.33733 1.73418 4.83858 1.47419 4.2283C1.2142 3.61801 1.17828 2.93547 1.3728 2.30128C1.56732 1.66708 1.97974 1.12205 2.53719 0.762483C3.09465 0.40292 3.76126 0.251969 4.41923 0.336304C5.07721 0.420639 5.6842 0.73483 6.13295 1.22336C6.5817 1.71189 6.84333 2.34332 6.87161 3.00608C6.89989 3.66883 6.693 4.32025 6.2875 4.84524L7.63625 7.23024C8.29204 7.11434 8.96767 7.23491 9.5429 7.57048C10.1181 7.90604 10.5556 8.43484 10.7775 9.06274H13.285ZM3.125 3.12524C3.125 3.37388 3.22377 3.61233 3.39959 3.78815C3.5754 3.96396 3.81386 4.06274 4.0625 4.06274C4.31114 4.06274 4.5496 3.96396 4.72541 3.78815C4.90123 3.61233 5 3.37388 5 3.12524C5 2.8766 4.90123 2.63814 4.72541 2.46232C4.5496 2.28651 4.31114 2.18774 4.0625 2.18774C3.81386 2.18774 3.5754 2.28651 3.39959 2.46232C3.22377 2.63814 3.125 2.8766 3.125 3.12524ZM8.125 9.06274C7.87636 9.06274 7.6379 9.16151 7.46209 9.33732C7.28627 9.51314 7.1875 9.7516 7.1875 10.0002C7.1875 10.2489 7.28627 10.4873 7.46209 10.6631C7.6379 10.839 7.87636 10.9377 8.125 10.9377C8.37364 10.9377 8.6121 10.839 8.78791 10.6631C8.96373 10.4873 9.0625 10.2489 9.0625 10.0002C9.0625 9.7516 8.96373 9.51314 8.78791 9.33732C8.6121 9.16151 8.37364 9.06274 8.125 9.06274ZM15.9375 9.06274C15.6889 9.06274 15.4504 9.16151 15.2746 9.33732C15.0988 9.51314 15 9.7516 15 10.0002C15 10.2489 15.0988 10.4873 15.2746 10.6631C15.4504 10.839 15.6889 10.9377 15.9375 10.9377C16.1861 10.9377 16.4246 10.839 16.6004 10.6631C16.7762 10.4873 16.875 10.2489 16.875 10.0002C16.875 9.7516 16.7762 9.51314 16.6004 9.33732C16.4246 9.16151 16.1861 9.06274 15.9375 9.06274ZM4.0625 15.9377C3.81386 15.9377 3.5754 16.0365 3.39959 16.2123C3.22377 16.3881 3.125 16.6266 3.125 16.8752C3.125 17.1239 3.22377 17.3623 3.39959 17.5381C3.5754 17.714 3.81386 17.8127 4.0625 17.8127C4.31114 17.8127 4.5496 17.714 4.72541 17.5381C4.90123 17.3623 5 17.1239 5 16.8752C5 16.6266 4.90123 16.3881 4.72541 16.2123C4.5496 16.0365 4.31114 15.9377 4.0625 15.9377Z" fill="white"/>
</svg>
