<svg width="21" height="21" viewBox="0 0 21 21" fill="none" xmlns="http://www.w3.org/2000/svg">
<path fill-rule="evenodd" clip-rule="evenodd" d="M10.0625 2.625C10.9227 2.62478 11.7594 2.90627 12.4445 3.42644C13.1296 3.94661 13.6256 4.67685 13.8565 5.5055L13.902 5.68488L15.5382 5.27625C15.6578 5.24648 15.7824 5.24231 15.9037 5.26402C16.025 5.28573 16.1404 5.33282 16.2422 5.40221C16.3441 5.4716 16.4301 5.56172 16.4947 5.66668C16.5594 5.77164 16.6011 5.88906 16.6171 6.01125L16.625 6.125V7.70875C17.1185 8.1815 17.5228 8.73933 17.8185 9.3555L17.9393 9.625H18.375C18.5893 9.62503 18.7962 9.70371 18.9563 9.84613C19.1165 9.98854 19.2188 10.1848 19.2439 10.3976L19.25 10.5V13.125C19.25 13.269 19.2145 13.4108 19.1466 13.5378C19.0786 13.6648 18.9804 13.7731 18.8606 13.853L18.7661 13.9073L17.7441 14.4191C17.3264 15.2291 16.7203 15.9268 15.9766 16.4535L15.75 16.6058V17.5C15.75 17.7143 15.6713 17.9212 15.5289 18.0813C15.3865 18.2415 15.1902 18.3438 14.9774 18.3689L14.875 18.375H12.25C12.0357 18.375 11.8288 18.2963 11.6687 18.1539C11.5085 18.0115 11.4062 17.8152 11.3811 17.6024L11.375 17.5H10.5C10.5 17.7143 10.4213 17.9212 10.2789 18.0813C10.1365 18.2415 9.94022 18.3438 9.72737 18.3689L9.625 18.375H7C6.78568 18.375 6.57883 18.2963 6.41867 18.1539C6.25852 18.0115 6.1562 17.8152 6.13112 17.6024L6.125 17.5V16.6058C5.49263 16.2019 4.94641 15.6769 4.51782 15.0611C4.08923 14.4452 3.78673 13.7507 3.62775 13.0174C3.11166 12.864 2.6552 12.5557 2.32024 12.1342C1.98529 11.7127 1.78805 11.1984 1.75525 10.661L1.75 10.5V10.0625C1.75025 9.83948 1.83564 9.62497 1.98874 9.4628C2.14184 9.30063 2.35108 9.20304 2.57372 9.18997C2.79636 9.1769 3.01558 9.24934 3.1866 9.39248C3.35763 9.53562 3.46753 9.73867 3.49388 9.96013L3.5 10.0625V10.5C3.50117 10.6307 3.52742 10.7517 3.57875 10.8631C3.71209 10.0753 4.00994 9.32442 4.45289 8.6594C4.89583 7.99438 5.47392 7.43016 6.1495 7.0035C6.08742 6.45267 6.14234 5.89495 6.31066 5.36681C6.47899 4.83867 6.75693 4.35202 7.1263 3.93871C7.49568 3.5254 7.94815 3.19473 8.45413 2.96835C8.96011 2.74196 9.50819 2.62496 10.0625 2.625ZM14 9.625C13.7679 9.625 13.5454 9.71719 13.3813 9.88128C13.2172 10.0454 13.125 10.2679 13.125 10.5C13.125 10.7321 13.2172 10.9546 13.3813 11.1187C13.5454 11.2828 13.7679 11.375 14 11.375C14.2321 11.375 14.4546 11.2828 14.6187 11.1187C14.7828 10.9546 14.875 10.7321 14.875 10.5C14.875 10.2679 14.7828 10.0454 14.6187 9.88128C14.4546 9.71719 14.2321 9.625 14 9.625ZM10.0625 4.375C9.53251 4.375 9.02053 4.56741 8.62173 4.91649C8.22293 5.26556 7.96442 5.74755 7.89425 6.27288C8.31825 6.17425 8.75218 6.12464 9.1875 6.125H12.1424L12.2036 6.11013C12.0999 5.61921 11.8305 5.1789 11.4407 4.86299C11.0508 4.54708 10.5643 4.37479 10.0625 4.375Z" fill="white"/>
</svg>
