<svg width="24" height="24" viewBox="0 0 24 24" fill="none" xmlns="http://www.w3.org/2000/svg">
<path fill-rule="evenodd" clip-rule="evenodd" d="M18.483 19.79V19.788L18.501 19.745L21.5 4.625V4.577C21.5 4.2 21.36 3.871 21.058 3.674C20.793 3.501 20.488 3.489 20.274 3.505C20.0748 3.52317 19.8783 3.56342 19.688 3.625C19.6068 3.65091 19.5267 3.68027 19.448 3.713L19.435 3.718L2.71497 10.277L2.70997 10.279C2.65875 10.2953 2.60892 10.3157 2.56097 10.34C2.44213 10.3936 2.32805 10.4571 2.21997 10.53C2.00497 10.678 1.59597 11.026 1.66497 11.578C1.72197 12.036 2.03697 12.326 2.24997 12.477C2.37541 12.5656 2.51064 12.6394 2.65297 12.697L2.68497 12.711L2.69497 12.714L2.70197 12.717L5.62797 13.702C5.6173 13.886 5.6363 14.071 5.68497 14.257L7.14997 19.816C7.23 20.119 7.40294 20.3894 7.64449 20.589C7.88605 20.7887 8.18408 20.9078 8.49675 20.9294C8.80941 20.951 9.12099 20.8741 9.38774 20.7096C9.65448 20.5451 9.86299 20.3011 9.98397 20.012L12.272 17.566L16.201 20.578L16.257 20.602C16.614 20.758 16.947 20.807 17.252 20.766C17.557 20.724 17.799 20.596 17.981 20.451C18.1915 20.2804 18.3593 20.0629 18.471 19.816L18.479 19.799L18.482 19.793L18.483 19.79ZM7.13497 13.875C7.11875 13.8133 7.1226 13.7481 7.14598 13.6887C7.16936 13.6294 7.21104 13.579 7.26497 13.545L17.186 7.245C17.186 7.245 17.77 6.89 17.749 7.245C17.749 7.245 17.853 7.307 17.54 7.598C17.244 7.875 10.469 14.416 9.78297 15.078C9.74574 15.1157 9.71917 15.1627 9.70597 15.214L8.59997 19.434L7.13497 13.875Z" fill="#4F74A4"/>
</svg>
