<svg width="29" height="32" viewBox="0 0 29 32" fill="none" xmlns="http://www.w3.org/2000/svg">
<rect x="1" y="3" width="26" height="28" rx="13" fill="white"/>
<path fill-rule="evenodd" clip-rule="evenodd" d="M10.9414 0.535924C8.19547 0.591864 6.44956 0.800746 5.08827 1.23618C3.99915 1.58457 3.07861 2.14851 2.5112 2.81493C1.50259 3.99958 0.933031 5.9665 0.711133 9.0312C0.61986 10.2916 0.586642 11.4116 0.567128 13.8841L0.551758 15.8315L1.0475 15.8139C5.98341 15.6382 7.82139 15.3883 9.47149 14.6686C10.3816 14.2717 11.3384 13.5469 11.9421 12.7971C13.1083 11.3487 13.6891 9.65965 13.9719 6.89447C14.1087 5.55651 14.1985 3.84287 14.2769 1.07027L14.2928 0.508548L13.0801 0.51281C12.4131 0.51516 11.4507 0.525568 10.9414 0.535924ZM14.6194 1.06598C14.7439 5.51744 14.9043 7.50678 15.2703 9.1345C15.4435 9.90518 15.6017 10.3948 15.8834 11.0327C16.44 12.2934 17.2087 13.255 18.258 14.0035C19.6136 14.9705 21.3209 15.4256 24.4021 15.6412C25.4107 15.7118 27.7142 15.822 28.2041 15.8232L28.3372 15.8235L28.3368 14.7582C28.3348 10.1987 28.173 7.73875 27.7539 5.89331C27.4333 4.48147 26.9235 3.37869 26.2727 2.68898C25.3385 1.69893 23.9033 1.09108 21.7979 0.793825C20.5086 0.611802 19.1787 0.543698 16.3952 0.517097L14.6036 0.5L14.6194 1.06598ZM0.567128 18.1247C0.586642 20.5969 0.61986 21.7169 0.711133 22.9774C0.917429 25.8268 1.41428 27.6883 2.29657 28.9174C3.14611 30.1009 4.6735 30.8503 6.92519 31.1884C8.32644 31.3988 10.3561 31.4979 13.2967 31.4995L14.2863 31.5V31.337C14.2863 31.1353 14.2262 29.2946 14.1933 28.4912C14.0649 25.3485 13.8571 23.5969 13.4423 22.1596C12.7134 19.6341 11.1919 17.9399 8.91593 17.1195C7.40859 16.5762 5.4756 16.3487 1.05907 16.1952L0.551781 16.1775L0.567128 18.1247ZM27.2956 16.2137C23.6129 16.367 22.092 16.5245 20.6983 16.8969C18.0206 17.6122 16.2639 19.3696 15.4594 22.138C15.0967 23.3861 14.8929 24.8798 14.7617 27.2516C14.7123 28.1463 14.6104 30.8958 14.6104 31.3359V31.5L15.6 31.4995C19.6688 31.4973 21.8398 31.3254 23.4646 30.8768C24.8883 30.4836 25.9619 29.8132 26.5994 28.9193C27.5604 27.5716 28.0534 25.5482 28.2325 22.2155C28.2901 21.1432 28.3133 20.1674 28.3294 18.1285L28.3449 16.1851L28.069 16.189C27.9174 16.1912 27.5693 16.2023 27.2956 16.2137Z" fill="#4F74A4"/>
</svg>
