<svg width="27" height="32" viewBox="0 0 27 32" fill="none" xmlns="http://www.w3.org/2000/svg">
<rect x="1" y="5" width="24" height="24" rx="12" fill="#4F74A4"/>
<path fill-rule="evenodd" clip-rule="evenodd" d="M10.1769 0.535924C7.64216 0.591864 6.03055 0.800746 4.77397 1.23618C3.76863 1.58457 2.91891 2.14851 2.39515 2.81493C1.46412 3.99958 0.938371 5.9665 0.733541 9.0312C0.649289 10.2916 0.618627 11.4116 0.600614 13.8841L0.586426 15.8315L1.04403 15.8139C5.60025 15.6382 7.29686 15.3883 8.82002 14.6686C9.66013 14.2717 10.5433 13.5469 11.1006 12.7971C12.1771 11.3487 12.7132 9.65965 12.9742 6.89447C13.1005 5.55651 13.1834 3.84287 13.2558 1.07027L13.2705 0.508548L12.151 0.51281C11.5353 0.51516 10.6469 0.525568 10.1769 0.535924ZM13.572 1.06598C13.6868 5.51744 13.835 7.50678 14.1727 9.1345C14.3327 9.90518 14.4787 10.3948 14.7387 11.0327C15.2525 12.2934 15.9621 13.255 16.9307 14.0035C18.182 14.9705 19.758 15.4256 22.6021 15.6412C23.5332 15.7118 25.6594 15.822 26.1117 15.8232L26.2346 15.8235L26.2341 14.7582C26.2323 10.1987 26.083 7.73875 25.6961 5.89331C25.4001 4.48147 24.9296 3.37869 24.3289 2.68898C23.4665 1.69893 22.1417 1.09108 20.1982 0.793825C19.0082 0.611802 17.7805 0.543698 15.2111 0.517097L13.5574 0.5L13.572 1.06598ZM0.600614 18.1247C0.618627 20.5969 0.649289 21.7169 0.733541 22.9774C0.923969 25.8268 1.3826 27.6883 2.19703 28.9174C2.98121 30.1009 4.39111 30.8503 6.46959 31.1884C7.76306 31.3988 9.63663 31.4979 12.351 31.4995L13.2645 31.5V31.337C13.2645 31.1353 13.209 29.2946 13.1787 28.4912C13.0601 25.3485 12.8683 23.5969 12.4854 22.1596C11.8125 19.6341 10.4081 17.9399 8.3072 17.1195C6.91581 16.5762 5.13152 16.3487 1.05472 16.1952L0.586447 16.1775L0.600614 18.1247ZM25.273 16.2137C21.8737 16.367 20.4698 16.5245 19.1833 16.8969C16.7115 17.6122 15.09 19.3696 14.3473 22.138C14.0125 23.3861 13.8244 24.8798 13.7033 27.2516C13.6577 28.1463 13.5636 30.8958 13.5636 31.3359V31.5L14.4771 31.4995C18.2329 31.4973 20.2369 31.3254 21.7367 30.8768C23.0509 30.4836 24.042 29.8132 24.6304 28.9193C25.5175 27.5716 25.9725 25.5482 26.1379 22.2155C26.1911 21.1432 26.2125 20.1674 26.2274 18.1285L26.2416 16.1851L25.987 16.189C25.847 16.1912 25.5257 16.2023 25.273 16.2137Z" fill="white"/>
</svg>
