<svg width="24" height="24" viewBox="0 0 24 24" fill="none" xmlns="http://www.w3.org/2000/svg">
<path d="M23.4559 5.78405C23.2049 6.58627 22.8377 7.34737 22.3659 8.04305L22.3849 8.01305C21.9369 8.75972 21.4019 9.62239 20.7799 10.6011C20.2466 11.3737 19.9643 11.7737 19.9329 11.8011C19.7912 11.98 19.6991 12.1932 19.6659 12.4191L19.6649 12.4261C19.6906 12.6297 19.7852 12.8185 19.9329 12.9611L20.3329 13.4071C22.4729 15.6064 23.6766 17.1224 23.9439 17.9551C23.9946 18.0918 24.0109 18.239 23.9914 18.3835C23.9719 18.5281 23.9171 18.6656 23.8319 18.7841L23.8339 18.7811C23.733 18.8846 23.6103 18.9643 23.4746 19.0143C23.339 19.0643 23.1939 19.0833 23.0499 19.0701H23.0539H20.4179C20.0809 19.0701 19.7709 18.9521 19.5279 18.7561L19.5309 18.7581C19.1843 18.4733 18.8658 18.1558 18.5799 17.8101L18.5709 17.7981C18.1103 17.2774 17.7016 16.8391 17.3449 16.4831C16.1569 15.3537 15.2803 14.7891 14.7149 14.7891C14.5326 14.7737 14.3504 14.8214 14.1989 14.9241L14.2019 14.9221C14.1372 15.0035 14.0896 15.0973 14.0621 15.1977C14.0346 15.298 14.0277 15.4029 14.0419 15.5061V15.5021C14.004 15.9687 13.9913 16.437 14.0039 16.9051V16.8881V18.0471C14.0323 18.1855 14.0226 18.329 13.9757 18.4624C13.9289 18.5957 13.8467 18.7138 13.7379 18.8041L13.7369 18.8051C13.2302 19.0329 12.673 19.1249 12.1199 19.0721L12.1329 19.0731C10.6189 19.0482 9.14059 18.6098 7.85793 17.8051L7.89293 17.8251C6.41272 16.9338 5.14433 15.731 4.17593 14.3001L4.14893 14.2581C3.20834 13.0034 2.38141 11.6675 1.67793 10.2661L1.60793 10.1121C1.14008 9.20412 0.728305 8.26836 0.37493 7.31005L0.31493 7.12505C0.15195 6.62726 0.0479063 6.11208 0.00492969 5.59005L0.00292969 5.56505C0.00292969 5.05972 0.300263 4.80705 0.89493 4.80705H3.52493C3.7908 4.78643 4.05467 4.86677 4.26393 5.03205L4.26193 5.03005C4.46193 5.24905 4.60993 5.51805 4.68293 5.81805L4.68593 5.83005C5.12034 7.0744 5.65094 8.28305 6.27293 9.44505L6.20593 9.30805C6.65567 10.2209 7.19963 11.0843 7.82893 11.8841L7.80593 11.8531C8.33926 12.5077 8.75526 12.8351 9.05393 12.8351L9.08593 12.8361C9.15624 12.8362 9.22534 12.8177 9.28626 12.7826C9.34718 12.7475 9.39777 12.6969 9.43293 12.6361L9.43393 12.6341C9.52911 12.3833 9.56703 12.1144 9.54493 11.8471V11.8531V7.97405C9.52655 7.5342 9.41761 7.10288 9.22493 6.70705L9.23293 6.72605C9.11577 6.4747 8.96433 6.24081 8.78293 6.03105L8.78593 6.03505C8.6183 5.8676 8.50922 5.65049 8.47493 5.41605L8.47393 5.41005C8.47393 5.24005 8.55193 5.08705 8.67393 4.98705L8.67493 4.98605C8.80058 4.87124 8.96472 4.80772 9.13493 4.80805H13.2889C13.3932 4.79552 13.499 4.80926 13.5966 4.84803C13.6943 4.88681 13.7806 4.94938 13.8479 5.03005L13.8489 5.03105C13.9752 5.26443 14.0305 5.52965 14.0079 5.79405V5.78905V10.9621C13.9925 11.166 14.0399 11.3699 14.1439 11.5461L14.1419 11.5421C14.1785 11.5968 14.228 11.6418 14.2861 11.6728C14.3442 11.7039 14.4091 11.7201 14.4749 11.7201C14.6435 11.7089 14.8071 11.653 14.9469 11.5581L14.9439 11.5601C15.2146 11.3734 15.4509 11.1597 15.6529 10.9191L15.6569 10.9141C16.2748 10.215 16.8286 9.46203 17.3119 8.66405L17.3509 8.59405C17.6949 8.02405 18.0669 7.32205 18.4039 6.60105L18.4659 6.45405L18.9119 5.56205C18.9902 5.33123 19.1416 5.13224 19.3432 4.99526C19.5448 4.85829 19.7855 4.7908 20.0289 4.80305H20.0259H22.6569C23.3676 4.80305 23.6343 5.13005 23.4569 5.78405H23.4559Z" fill="white"/>
</svg>
